<svg width="920" height="920" viewBox="0 0 920 920" fill="none" xmlns="http://www.w3.org/2000/svg">
<circle cx="460" cy="460" r="460" fill="white"/>
<path d="M418.571 756.388H244.333L281.603 659.617L126 525.626L169.792 482.823L126 385.121H215.448L240.606 305.099L331.918 385.121L324.464 193.439L394.345 222.285L458.637 119L521.996 222.285L596.536 193.439L585.355 385.121L681.326 305.099L696.234 385.121H795L745.617 482.823L795 525.626L635.67 659.617L673.872 756.388H503.361L458.637 627.98L418.571 756.388Z" fill="#ED1C24" stroke="#231F20" stroke-width="18" stroke-linejoin="round"/>
<circle cx="460.499" cy="510.108" r="213.933" fill="#231F20"/>
<path d="M341.092 509.176L265.684 434.641L453.74 502.654L380.193 321.906L459.326 391.783L538.458 321.906L464.911 502.654L650.175 434.641L576.628 509.176L650.175 589.302L464.911 515.698L538.458 698.31L459.326 626.57L380.193 698.31L453.74 515.698L266.615 589.302L341.092 509.176Z" fill="white"/>
</svg>
