<svg width="757" height="757" viewBox="0 0 757 757" fill="none" xmlns="http://www.w3.org/2000/svg">
<path d="M757 378.5C757 587.54 587.54 757 378.5 757C169.46 757 0 587.54 0 378.5C0 169.46 169.46 0 378.5 0C587.54 0 757 169.46 757 378.5Z" fill="white"/>
<path d="M121.5 345V406L126 438.5L141.5 480.5L169 532.5L209.5 576.5L270.5 614L337 637H399.5L471 624L541 581L589.5 532.5L626 466.5L639.5 413V357.5L626 298.5L597 237L551.5 185L501.5 146L430 122.5L347.5 118.5L281.5 136.5L216.5 176L163.5 230L134 289L121.5 345Z" stroke="white" stroke-width="10"/>
<path d="M330.5 329.5H231.5L231 427H330V525H428V427H526V329.5H427.5V230H330.5V329.5Z" fill="#D8232A" stroke="#D8232A"/>
<path d="M190.95 526.498L228.59 492.22L250.549 516.333L244.834 521.538L229.084 504.244L218.865 513.55L233.108 529.19L227.393 534.395L213.149 518.755L197.16 533.316L190.95 526.498Z" fill="black"/>
<path d="M225.147 558.652L255.425 517.726L270.772 529.08C273.916 531.406 276.15 533.904 277.473 536.573C278.81 539.253 279.295 541.982 278.929 544.762C278.586 547.539 277.448 550.233 275.517 552.844C273.575 555.468 271.33 557.332 268.782 558.436C266.257 559.537 263.526 559.815 260.589 559.27C257.662 558.713 254.626 557.271 251.482 554.945L240.551 546.858L245.105 540.703L255.037 548.051C256.875 549.411 258.568 550.272 260.115 550.633C261.672 550.981 263.094 550.868 264.383 550.297C265.695 549.721 266.889 548.707 267.963 547.255C269.037 545.803 269.667 544.352 269.853 542.903C270.049 541.44 269.758 540.008 268.98 538.608C268.212 537.194 266.902 535.802 265.05 534.432L258.255 529.406L232.561 564.137L225.147 558.652ZM260.009 555.749L256.421 581.79L248.148 575.669L251.916 549.762L260.009 555.749Z" fill="black"/>
<path d="M379.681 195.163L384.725 144.504L403.722 146.396C407.614 146.783 410.812 147.784 413.316 149.399C415.836 151.016 417.651 153.112 418.76 155.687C419.887 158.247 420.29 161.144 419.968 164.376C419.645 167.624 418.671 170.375 417.048 172.628C415.443 174.867 413.24 176.504 410.439 177.541C407.639 178.561 404.294 178.878 400.402 178.49L386.871 177.143L387.63 169.525L399.924 170.749C402.199 170.975 404.094 170.847 405.607 170.365C407.123 169.867 408.287 169.042 409.101 167.89C409.934 166.724 410.439 165.242 410.618 163.445C410.797 161.647 410.595 160.078 410.013 158.738C409.432 157.381 408.448 156.301 407.063 155.497C405.679 154.676 403.841 154.152 401.549 153.923L393.139 153.086L388.858 196.077L379.681 195.163ZM408.137 174.814L418.393 199.017L408.152 197.998L398.119 173.816L408.137 174.814Z" fill="black"/>
<path d="M224.948 279.68L185.432 247.583L197.468 232.765C199.934 229.729 202.53 227.61 205.257 226.409C207.994 225.195 210.742 224.833 213.503 225.325C216.261 225.793 218.901 227.051 221.422 229.099C223.956 231.157 225.717 233.484 226.704 236.08C227.689 238.652 227.844 241.393 227.167 244.302C226.478 247.201 224.901 250.168 222.435 253.204L213.862 263.758L207.919 258.931L215.708 249.341C217.15 247.566 218.086 245.914 218.517 244.385C218.935 242.846 218.887 241.419 218.374 240.106C217.859 238.769 216.9 237.531 215.498 236.393C214.096 235.254 212.675 234.559 211.235 234.307C209.782 234.045 208.339 234.271 206.905 234.986C205.458 235.689 204.009 236.935 202.556 238.723L197.228 245.283L230.763 272.521L224.948 279.68ZM223.624 244.722L249.475 249.483L242.987 257.471L217.276 252.537L223.624 244.722Z" fill="black"/>
<path d="M191.017 272.918L186.669 281.136C185.198 280.657 183.775 280.457 182.402 280.537C181.014 280.609 179.706 280.92 178.478 281.469C177.249 282.019 176.134 282.798 175.132 283.805C174.124 284.79 173.255 285.971 172.527 287.348C171.232 289.794 170.7 292.288 170.931 294.828C171.147 297.361 172.151 299.786 173.944 302.103C175.722 304.413 178.302 306.463 181.686 308.253C185.128 310.074 188.311 311.074 191.235 311.253C194.153 311.409 196.708 310.867 198.901 309.628C201.087 308.366 202.824 306.52 204.11 304.088C204.823 302.74 205.314 301.388 205.583 300.03C205.844 298.65 205.872 297.305 205.664 295.995C205.465 294.671 205.023 293.416 204.339 292.229C203.662 291.027 202.731 289.953 201.544 289.006L205.936 280.812C207.912 282.251 209.566 283.979 210.899 285.997C212.239 288 213.193 290.201 213.76 292.601C214.313 294.994 214.411 297.502 214.054 300.125C213.682 302.741 212.787 305.389 211.369 308.069C209.276 312.024 206.493 315.07 203.019 317.207C199.545 319.343 195.606 320.39 191.204 320.348C186.801 320.306 182.183 319.006 177.349 316.449C172.501 313.883 168.832 310.789 166.343 307.166C163.84 303.535 162.494 299.682 162.306 295.608C162.118 291.534 163.063 287.534 165.14 283.609C166.466 281.104 168.049 278.961 169.892 277.18C171.734 275.398 173.782 274.026 176.036 273.062C178.275 272.091 180.662 271.582 183.199 271.537C185.728 271.469 188.334 271.93 191.017 272.918Z" fill="black"/>
<path d="M371.815 172.621L372.386 180.007L349.534 181.771L348.964 174.385L371.815 172.621Z" fill="black"/>
<path d="M275.323 590.054L266.275 586.176L302.806 546.446L313.27 550.931L309.708 604.794L300.66 600.915L304.107 558.363L303.742 558.206L275.323 590.054ZM283.484 571.835L308.159 582.412L305.241 589.221L280.566 578.643L283.484 571.835Z" fill="black"/>
<path d="M436.259 608.653L426.86 611.58L428.832 557.644L439.702 554.259L471.977 597.527L462.579 600.454L437.562 565.86L437.182 565.979L436.259 608.653ZM430.631 589.499L456.263 581.515L458.466 588.587L432.834 596.571L430.631 589.499Z" fill="black"/>
<path d="M465.416 543.852L488.35 589.302L480.116 593.457L457.182 548.006L465.416 543.852Z" fill="black"/>
<path d="M284.077 166.655L305.784 212.705L297.442 216.637L275.735 170.587L284.077 166.655Z" fill="black"/>
<path d="M305.945 157.426L321.86 172.258L322.242 172.148L327.928 151.123L338.036 148.225L329.974 177.017L352.307 197.094L342.032 200.04L326.031 185.362L325.649 185.472L319.857 206.398L309.63 209.33L318.074 180.429L295.789 160.338L305.945 157.426Z" fill="black"/>
<path d="M500.601 535.105C499.167 533.459 497.397 532.634 495.292 532.629C493.2 532.616 491.033 533.392 488.792 534.958C487.216 536.06 486.031 537.242 485.236 538.505C484.441 539.769 484.029 541.017 484.001 542.25C483.973 543.482 484.318 544.626 485.035 545.682C485.643 546.551 486.366 547.167 487.207 547.53C488.06 547.884 488.99 548.043 489.996 548.007C490.993 547.957 492.016 547.788 493.067 547.498C494.118 547.208 495.143 546.866 496.141 546.472L500.737 544.715C502.569 543.981 504.43 543.418 506.32 543.027C508.223 542.627 510.085 542.498 511.904 542.642C513.737 542.777 515.463 543.279 517.082 544.149C518.701 545.019 520.141 546.357 521.404 548.164C523.113 550.609 523.993 553.198 524.044 555.933C524.085 558.653 523.29 561.363 521.657 564.06C520.029 566.735 517.544 569.24 514.203 571.576C510.956 573.845 507.787 575.312 504.693 575.978C501.614 576.634 498.728 576.468 496.035 575.479C493.356 574.48 490.993 572.634 488.948 569.939L496.385 564.741C497.509 566.118 498.802 567.014 500.264 567.428C501.726 567.841 503.255 567.844 504.85 567.437C506.459 567.02 508.052 566.261 509.627 565.16C511.271 564.011 512.54 562.76 513.434 561.407C514.333 560.031 514.826 558.655 514.916 557.278C514.995 555.888 514.624 554.591 513.802 553.386C513.029 552.309 512.084 551.635 510.965 551.366C509.837 551.082 508.543 551.097 507.084 551.41C505.628 551.699 504.02 552.176 502.26 552.84L496.658 554.936C492.605 556.455 488.953 557.015 485.703 556.618C482.457 556.197 479.79 554.493 477.702 551.505C475.983 549.046 475.144 546.428 475.184 543.65C475.238 540.863 476.063 538.153 477.66 535.521C479.248 532.874 481.502 530.531 484.422 528.49C487.383 526.42 490.338 525.123 493.288 524.598C496.241 524.051 498.992 524.241 501.541 525.168C504.08 526.082 506.192 527.7 507.875 530.022L500.601 535.105Z" fill="black"/>
<path d="M542.469 550.974L504.982 516.529L527.385 492.148L533.078 497.379L516.915 514.969L527.092 524.32L542.094 507.993L547.787 513.224L532.785 529.551L543.017 538.953L559.314 521.216L565.007 526.447L542.469 550.974Z" fill="black"/>
<path d="M539.574 294.188L586.102 273.526L599.54 303.787L592.475 306.924L582.779 285.092L570.148 290.701L579.147 310.966L572.082 314.104L563.082 293.839L550.383 299.479L560.159 321.493L553.093 324.631L539.574 294.188Z" fill="black"/>
<path d="M557.797 256.301C558.625 255.166 559.246 253.99 559.661 252.771C560.098 251.556 560.32 250.315 560.327 249.049C560.344 247.797 560.118 246.538 559.651 245.274C559.197 244 558.515 242.752 557.603 241.53C555.968 239.338 553.961 237.796 551.58 236.905C549.199 236.013 546.573 235.874 543.701 236.486C540.853 237.101 537.9 238.548 534.845 240.827C531.763 243.125 529.514 245.557 528.099 248.121C526.683 250.686 526.061 253.248 526.233 255.808C526.418 258.357 527.363 260.774 529.067 263.059C530.613 265.131 532.349 266.627 534.275 267.547C536.211 268.481 538.217 268.814 540.293 268.548C542.382 268.272 544.416 267.396 546.395 265.92L547.385 267.787L539.122 256.708L544.901 252.398L557.25 268.957L552.348 272.613C548.854 275.219 545.277 276.728 541.617 277.143C537.957 277.557 534.465 276.977 531.141 275.404C527.831 273.821 524.918 271.342 522.402 267.968C519.598 264.208 517.98 260.278 517.547 256.177C517.137 252.079 517.899 248.069 519.832 244.147C521.788 240.228 524.918 236.663 529.222 233.453C532.517 230.996 535.806 229.267 539.09 228.265C542.384 227.276 545.563 226.952 548.628 227.292C551.706 227.621 554.564 228.571 557.202 230.139C559.852 231.697 562.173 233.811 564.164 236.482C565.849 238.74 567.087 241.093 567.879 243.541C568.684 245.98 569.047 248.407 568.968 250.823C568.898 253.252 568.4 255.578 567.472 257.799C566.545 260.02 565.192 262.032 563.414 263.833L557.797 256.301Z" fill="black"/>
<path d="M526.815 199.566L534.296 204.958L514.848 231.94C512.716 234.897 510.142 236.995 507.126 238.232C504.123 239.479 500.909 239.828 497.484 239.28C494.069 238.718 490.681 237.226 487.32 234.804C483.946 232.371 481.452 229.624 479.839 226.562C478.236 223.486 477.551 220.327 477.785 217.083C478.019 213.84 479.201 210.74 481.333 207.782L500.781 180.801L508.262 186.193L489.265 212.55C488.025 214.27 487.297 216.074 487.08 217.961C486.878 219.858 487.192 221.689 488.025 223.453C488.867 225.204 490.236 226.762 492.131 228.129C494.027 229.495 495.938 230.301 497.866 230.546C499.816 230.788 501.652 230.507 503.374 229.706C505.096 228.904 506.577 227.643 507.817 225.922L526.815 199.566Z" fill="black"/>
<path d="M477.304 191.577C475.793 196.85 473.511 201.083 470.458 204.277C467.426 207.459 463.928 209.559 459.964 210.578C456.016 211.602 451.899 211.499 447.614 210.271C443.329 209.043 439.775 206.947 436.952 203.983C434.15 201.008 432.298 197.366 431.395 193.056C430.513 188.735 430.825 183.945 432.332 178.688C433.843 173.415 436.115 169.188 439.147 166.005C442.2 162.812 445.701 160.703 449.649 159.68C453.613 158.661 457.737 158.766 462.023 159.994C466.308 161.222 469.854 163.316 472.661 166.275C475.483 169.239 477.335 172.881 478.217 177.202C479.12 181.512 478.816 186.304 477.304 191.577ZM468.391 189.022C469.455 185.31 469.771 182.013 469.338 179.131C468.926 176.238 467.888 173.846 466.223 171.955C464.563 170.048 462.403 168.714 459.742 167.951C457.082 167.189 454.542 167.176 452.124 167.914C449.711 168.636 447.555 170.113 445.657 172.345C443.78 174.565 442.309 177.531 441.245 181.243C440.182 184.954 439.856 188.257 440.268 191.151C440.7 194.033 441.746 196.427 443.407 198.334C445.071 200.225 447.234 201.551 449.894 202.314C452.555 203.076 455.092 203.096 457.505 202.374C459.923 201.637 462.071 200.158 463.949 197.937C465.847 195.706 467.327 192.734 468.391 189.022Z" fill="black"/>
<path d="M274.897 195.94C278.146 200.36 280.1 204.754 280.761 209.123C281.425 213.468 280.948 217.52 279.33 221.28C277.726 225.029 275.128 228.224 271.536 230.865C267.944 233.505 264.113 235.035 260.042 235.457C255.974 235.855 251.959 235.093 247.997 233.172C244.039 231.228 240.44 228.053 237.201 223.646C233.953 219.226 231.996 214.844 231.332 210.499C230.672 206.13 231.144 202.071 232.748 198.321C234.365 194.562 236.97 191.362 240.562 188.722C244.154 186.082 247.979 184.556 252.037 184.145C256.108 183.723 260.122 184.485 264.081 186.429C268.043 188.35 271.649 191.52 274.897 195.94ZM267.426 201.431C265.139 198.32 262.723 196.054 260.178 194.634C257.637 193.191 255.109 192.55 252.595 192.711C250.071 192.859 247.694 193.753 245.464 195.392C243.234 197.031 241.672 199.033 240.777 201.397C239.873 203.748 239.723 206.357 240.329 209.223C240.938 212.067 242.386 215.044 244.672 218.155C246.959 221.266 249.373 223.544 251.915 224.987C254.46 226.407 256.994 227.043 259.518 226.895C262.032 226.734 264.404 225.834 266.634 224.195C268.864 222.556 270.431 220.56 271.336 218.209C272.23 215.845 272.373 213.241 271.764 210.398C271.159 207.531 269.713 204.543 267.426 201.431Z" fill="black"/>
<path d="M370.471 565.626L362.028 615.83L353.938 614.469L336.034 576.294L335.617 576.224L329.866 610.421L320.771 608.891L329.215 558.687L337.353 560.056L355.229 598.251L355.67 598.325L361.426 564.104L370.471 565.626Z" fill="black"/>
<path d="M415.934 581.472L406.644 581.814C406.323 580.301 405.784 578.969 405.029 577.819C404.273 576.653 403.35 575.675 402.259 574.886C401.169 574.097 399.937 573.521 398.564 573.157C397.207 572.776 395.75 572.614 394.193 572.671C391.427 572.773 389.002 573.559 386.917 575.028C384.831 576.481 383.233 578.563 382.122 581.274C381.011 583.968 380.525 587.228 380.666 591.054C380.809 594.946 381.535 598.202 382.842 600.824C384.165 603.429 385.911 605.371 388.081 606.651C390.267 607.914 392.734 608.495 395.483 608.393C397.007 608.337 398.424 608.086 399.734 607.64C401.06 607.177 402.238 606.528 403.269 605.694C404.316 604.859 405.183 603.849 405.869 602.663C406.571 601.476 407.036 600.133 407.263 598.632L416.555 598.34C416.296 600.77 415.626 603.067 414.545 605.229C413.48 607.391 412.051 609.318 410.255 611.009C408.46 612.683 406.337 614.022 403.886 615.024C401.435 616.01 398.694 616.559 395.663 616.67C391.192 616.835 387.163 615.947 383.576 614.006C379.989 612.065 377.113 609.177 374.949 605.343C372.784 601.509 371.602 596.86 371.4 591.395C371.199 585.913 372.045 581.189 373.938 577.222C375.832 573.239 378.495 570.148 381.93 567.948C385.365 565.749 389.301 564.568 393.74 564.404C396.571 564.3 399.219 564.601 401.683 565.306C404.147 566.011 406.359 567.099 408.32 568.569C410.281 570.023 411.915 571.836 413.222 574.01C414.545 576.167 415.449 578.655 415.934 581.472ZM393.028 616.021L397.896 615.842L397.577 617.968C399.142 618.142 400.48 618.69 401.592 619.611C402.721 620.548 403.319 621.927 403.386 623.749C403.489 626.1 402.507 628.026 400.44 629.529C398.373 631.031 395.376 631.854 391.452 631.999L391.189 627.581C393.094 627.511 394.6 627.198 395.707 626.643C396.815 626.105 397.357 625.289 397.333 624.195C397.327 623.134 396.901 622.371 396.055 621.904C395.226 621.454 393.922 621.17 392.143 621.053L393.028 616.021Z" fill="black"/>
</svg>
