<svg width="983" height="991" viewBox="0 0 983 991" fill="none" xmlns="http://www.w3.org/2000/svg">
<rect width="983" height="991" rx="15" fill="white"/>
<path d="M351.731 489.231L356.68 494.181M351.731 494.181L356.68 489.231" stroke="white" stroke-width="2" stroke-linecap="round"/>
<path d="M0 15C0 6.71573 6.71573 0 15 0H968C976.284 0 983 6.71573 983 15V34H0V15Z" fill="#D9D9D9"/>
<path d="M332 328L666 158.5L196 128.5L332 328ZM332 328L605 569.5M605 569.5L792.5 305L668.5 160.5L605 569.5Z" stroke="#252C2F" stroke-width="2" stroke-linecap="round" stroke-linejoin="round"/>
<circle cx="195" cy="128" r="30" fill="#55CE61"/>
<circle cx="329" cy="331" r="30" fill="#353982"/>
<circle cx="668" cy="159" r="30" fill="#FF3718"/>
<circle cx="608" cy="569" r="30" fill="#FF3718"/>
<circle cx="788" cy="309" r="30" fill="#353982"/>
<path d="M956.539 13.5355L963.617 20.6066M956.539 20.6066L963.617 13.5355" stroke="black" stroke-width="2" stroke-linecap="round"/>
</svg>
