<svg width="757" height="757" viewBox="0 0 757 757" fill="none" xmlns="http://www.w3.org/2000/svg">
<path d="M757 378.5C757 587.54 587.54 757 378.5 757C169.46 757 0 587.54 0 378.5C0 169.46 169.46 0 378.5 0C587.54 0 757 169.46 757 378.5Z" fill="white"/>
<path d="M415.258 115.824C410.637 115.824 406.762 119.699 406.762 124.32V327.041C406.762 331.662 410.637 335.538 415.258 335.538C419.879 335.538 423.755 331.662 423.755 327.041V124.32C423.755 119.699 420.028 115.824 415.258 115.824Z" fill="#FFCD00"/>
<path d="M452.67 130.581C448.049 130.581 444.174 134.456 444.174 139.077V312.135C444.174 316.756 447.9 320.632 452.67 320.632C457.44 320.632 461.167 316.756 461.167 312.135V139.077C461.167 134.456 457.44 130.581 452.67 130.581Z" fill="#FFCD00"/>
<path d="M490.084 163.224C485.463 163.224 481.588 167.1 481.588 171.721V279.491C481.588 284.112 485.463 287.988 490.084 287.988C494.705 287.988 498.581 284.261 498.581 279.491V171.721C498.581 166.951 494.705 163.224 490.084 163.224Z" fill="#FFCD00"/>
<path d="M541.403 225.586C541.413 218.177 535.415 212.162 528.006 212.151C520.597 212.141 514.582 218.138 514.572 225.548C514.561 232.957 520.559 238.971 527.968 238.982C535.377 238.993 541.392 232.995 541.403 225.586Z" fill="#FFCD00"/>
<path d="M400.053 93.1665C401.693 90.9306 402.587 88.2475 402.587 85.4154C402.587 77.9624 396.625 72 389.172 72C381.719 72 375.756 77.9624 375.756 85.4154C375.756 88.8437 377.098 91.974 379.185 94.359C367.707 108.371 352.503 116.718 346.69 119.699C344.603 114.929 339.833 111.65 334.467 111.65C327.014 111.65 321.051 117.612 321.051 125.065C321.051 132.518 327.014 138.481 334.467 138.481C337.448 138.481 340.28 137.437 342.516 135.798C357.273 158.604 361.447 185.434 362.639 198.999C349.075 197.806 322.244 193.633 299.438 178.876C301.077 176.64 301.972 173.957 301.972 170.976C301.972 163.523 296.009 157.56 288.556 157.56C281.104 157.56 275.141 163.523 275.141 170.976C275.141 176.491 278.569 181.261 283.339 183.348C280.06 190.055 270.371 207.495 256.956 216.588C254.571 213.905 250.993 212.414 247.267 212.414C239.814 212.414 233.852 218.377 233.852 225.83C233.852 233.283 239.814 239.245 247.267 239.245C251.142 239.245 254.571 237.605 256.956 234.922C270.371 244.015 279.911 261.455 283.339 268.163C278.569 270.249 275.141 275.019 275.141 280.535C275.141 287.988 281.104 293.95 288.556 293.95C296.009 293.95 301.972 287.988 301.972 280.535C301.972 277.553 301.077 274.87 299.438 272.634C322.244 257.877 349.224 253.704 362.639 252.511C361.447 265.927 357.273 292.757 342.516 315.713C340.28 314.073 337.448 313.03 334.467 313.03C327.014 313.03 321.051 318.992 321.051 326.445C321.051 333.898 327.014 339.86 334.467 339.86C339.982 339.86 344.752 336.581 346.69 331.811C352.503 334.792 367.558 343.14 379.185 357.151C377.098 359.536 375.756 362.666 375.756 366.095C375.756 373.548 381.719 379.51 389.172 379.51C396.625 379.51 402.587 373.548 402.587 366.095C402.587 363.114 401.693 360.431 400.053 358.344C388.576 338.668 370.092 325.998 359.36 319.886C379.632 285.155 379.632 245.804 379.632 244.015V235.966L371.583 235.817C369.794 235.817 330.442 235.668 295.711 255.94C291.24 247.741 283.19 235.22 272.309 225.979C283.19 216.588 291.24 204.216 295.711 196.018C330.442 216.29 369.794 216.141 371.583 216.141L379.632 215.992V207.942C379.632 206.154 379.632 166.802 359.36 132.071C370.092 125.512 388.576 112.842 400.053 93.1665Z" fill="#FFCD00"/>
<path d="M169.01 559.723C147.695 559.723 131 543.774 131 523.353C131 502.783 147.397 487.131 169.01 487.131C190.326 487.131 207.02 503.081 207.02 523.353C207.02 543.625 190.326 559.723 169.01 559.723ZM169.01 497.416C154.402 497.416 142.478 509.043 142.478 523.353C142.478 537.812 154.402 549.438 169.01 549.438C183.469 549.438 195.096 537.663 195.096 523.353C195.245 508.745 183.767 497.416 169.01 497.416Z" fill="black"/>
<path d="M244.136 559.574C228.038 559.574 216.709 548.246 216.709 532.147C216.709 515.9 227.888 504.422 244.136 504.422C253.676 504.422 261.278 507.403 266.346 513.068L260.383 520.223C256.359 516.347 251.142 514.111 245.03 514.111H244.583C234.745 514.111 227.888 521.564 227.888 532.147C227.888 542.731 234.745 550.184 244.583 550.184C251.44 550.184 257.104 547.948 260.831 543.774L266.942 549.885C262.023 556.146 254.123 559.574 244.136 559.574Z" fill="black"/>
<path d="M302.269 559.574C286.17 559.574 274.842 548.246 274.842 532.147C274.842 515.9 286.021 504.422 302.269 504.422C311.809 504.422 319.411 507.403 324.479 513.068L318.516 520.223C314.492 516.347 309.275 514.111 303.163 514.111H302.716C292.878 514.111 286.021 521.564 286.021 532.147C286.021 542.731 292.878 550.184 302.716 550.184C309.573 550.184 315.237 547.948 318.963 543.774L325.075 549.885C320.156 556.146 312.256 559.574 302.269 559.574Z" fill="black"/>
<path d="M338.491 559.127V504.869H349.521V559.127H338.491ZM344.006 495.479C340.279 495.479 337.447 492.647 337.447 488.771C337.447 484.896 340.279 481.914 344.006 481.914C347.732 481.914 350.565 484.896 350.565 488.771C350.565 492.647 347.732 495.479 344.006 495.479Z" fill="black"/>
<path d="M386.937 559.723C383.36 559.723 371.882 558.531 371.882 544.072V515.155H364.131V506.956H371.882V491.901H382.912V506.956H399.16V515.155H382.912V541.985C382.912 547.351 384.85 549.736 389.173 549.736C391.409 549.736 393.943 548.991 397.222 547.501L400.054 555.848C395.732 558.382 391.26 559.723 386.937 559.723Z" fill="black"/>
<path d="M428.224 559.724C417.044 559.724 409.293 552.867 409.293 543.029C409.293 533.191 417.044 526.93 429.714 526.781H446.707V524.694C446.707 517.391 441.937 513.217 433.143 513.217C427.925 513.217 422.41 515.006 417.044 518.583L412.572 510.981C420.323 506.509 425.69 504.273 435.677 504.273C449.539 504.273 457.439 511.13 457.588 523.204L457.737 558.978H446.856V552.121L444.471 554.357C440.595 557.786 434.931 559.724 428.224 559.724ZM431.354 534.681C423.156 534.681 419.578 537.066 419.578 542.433C419.578 547.65 423.901 550.929 430.608 550.929C439.254 550.929 445.962 546.457 446.558 540.197V534.681H431.354Z" fill="black"/>
<path d="M517.064 559.127V528.57C517.064 520.073 511.847 514.856 503.5 514.856C494.556 515.005 488.445 520.819 487.551 530.21V559.127H476.371V504.869H487.551V515.602L490.234 512.173C494.109 507.105 500.221 504.422 508.27 504.422C520.642 504.422 528.393 512.471 528.393 525.291V559.127H517.064Z" fill="black"/>
<path d="M546.877 559.127V504.869H557.908V559.127H546.877ZM552.393 495.479C548.666 495.479 545.834 492.647 545.834 488.771C545.834 484.896 548.666 481.914 552.393 481.914C556.119 481.914 558.951 484.896 558.951 488.771C558.951 492.647 556.119 495.479 552.393 495.479Z" fill="black"/>
<path d="M600.688 559.574C583.993 559.574 572.963 548.544 572.963 532.147C572.963 515.9 584.291 504.571 600.39 504.422C608.737 504.422 614.998 506.807 619.47 511.428C624.538 516.794 626.624 525.142 625.879 536.172H584.142L584.739 537.961C586.975 545.712 593.533 550.631 601.881 550.631C607.843 550.631 613.358 548.395 617.383 544.37L623.196 550.482C617.532 556.444 609.781 559.574 600.688 559.574ZM600.539 513.217C592.043 513.217 586.08 518.136 584.291 526.483L583.993 528.272H616.488L616.339 526.632C615.296 518.136 609.483 513.217 600.539 513.217Z" fill="black"/>
<path d="M131 466.412L131.149 426.762L138.453 426.911L138.304 459.704L155.297 459.853L155.148 466.412H131Z" fill="black"/>
<path d="M169.16 466.71C162.9 466.71 158.428 462.835 158.428 457.171C158.428 451.506 162.75 448.078 169.905 447.929H178.402L178.551 447.333C178.551 443.606 176.166 441.668 171.843 441.668C169.011 441.668 166.179 442.712 163.347 444.649L163.049 444.948L160.216 439.88H160.515C164.837 437.346 167.818 436.153 173.334 436.153C181.085 436.153 185.557 440.029 185.557 446.885V466.71L178.551 466.561L178.7 463.729V463.431L178.551 463.58C176.315 465.667 173.185 466.71 169.16 466.71ZM170.949 453.295C166.775 453.295 165.135 454.338 165.135 456.872C165.135 459.406 167.222 461.046 170.502 461.046C174.824 461.046 178.253 458.81 178.551 455.68V453.444L170.949 453.295Z" fill="black"/>
<path d="M208.062 466.412L208.212 426.762L224.31 426.911C234.446 426.911 240.259 431.83 240.259 440.476C240.259 446.587 237.427 451.059 232.508 453.146L241.154 466.412H232.955L225.95 454.785C225.353 454.785 224.757 454.785 224.31 454.785H215.515L215.366 466.71L208.062 466.412ZM215.366 448.078L224.31 448.227C230.421 448.227 233.403 445.693 233.403 440.625C233.403 435.855 230.272 433.321 224.31 433.321H215.366V448.078Z" fill="black"/>
<path d="M260.681 466.71C251.44 466.71 245.328 460.599 245.328 451.506C245.328 442.563 251.589 436.153 260.532 436.153C265.153 436.153 268.73 437.494 271.115 440.029C273.948 443.01 275.14 447.78 274.693 453.891V454.338L252.632 454.189C253.675 458.363 256.955 461.046 261.277 461.046C264.408 461.046 267.24 459.853 269.476 457.767L269.774 457.469L273.5 461.642L273.202 461.791C270.072 464.921 265.749 466.71 260.681 466.71ZM260.532 441.817C256.209 441.817 253.079 444.5 252.185 448.674L268.283 448.823C268.134 444.351 265.153 441.817 260.532 441.817ZM255.911 432.725L262.321 423.781L269.625 427.06L262.172 432.874H255.911V432.725Z" fill="black"/>
<path d="M293.324 477.443C288.852 477.443 284.679 476.101 280.803 473.567L280.505 473.418L283.635 468.201L283.784 468.499C286.765 470.735 289.598 471.629 292.877 471.629C298.392 471.629 301.82 468.499 301.82 463.58V460.748L301.671 461.046C299.585 463.729 296.305 465.071 292.43 465.071C284.231 465.071 278.865 459.257 278.865 450.463C278.865 441.966 284.231 436.153 292.281 436.153C296.454 436.153 299.585 437.495 301.82 440.178L301.969 440.476V436.153L308.975 436.302L308.826 463.282C308.975 471.927 302.864 477.443 293.324 477.443ZM293.92 441.817C289.15 441.817 285.722 445.395 285.573 450.612C285.573 455.829 289.001 459.406 293.92 459.406C298.69 459.406 302.119 455.829 302.119 450.612C302.119 445.395 298.69 441.817 293.92 441.817Z" fill="black"/>
<path d="M317.176 466.412L317.325 436.153L324.331 436.302L324.182 466.412H317.176ZM320.753 432.277C318.517 432.277 316.729 430.489 316.729 428.104C316.729 425.719 318.517 423.93 320.753 423.93C322.989 423.93 324.778 425.719 324.778 428.104C324.778 430.489 323.138 432.277 320.753 432.277Z" fill="black"/>
<path d="M346.091 466.71C336.85 466.71 330.291 460.45 330.291 451.357C330.291 442.264 336.551 436.004 346.091 436.004C355.333 436.004 361.743 442.264 361.743 451.357C361.743 460.45 355.333 466.71 346.091 466.71ZM346.091 442.115C340.874 442.115 337.297 445.991 337.297 451.357C337.297 456.872 340.874 460.599 346.091 460.599C351.159 460.599 354.737 456.723 354.737 451.357C354.737 445.991 351.159 442.115 346.091 442.115Z" fill="black"/>
<path d="M367.709 466.412L367.858 436.153L375.013 436.302L374.864 440.774V441.221L375.162 440.923C377.398 437.793 380.826 436.153 385.596 436.153C392.602 436.153 396.925 440.625 396.925 447.78V466.412H389.621L389.77 449.568C389.77 445.246 387.236 442.712 382.913 442.712C378.441 442.712 375.311 445.693 374.864 450.463V466.561L367.709 466.412Z" fill="black"/>
<path d="M143.373 578.803C150.677 578.803 154.85 582.381 154.85 588.641C154.85 595.2 150.677 598.926 143.373 598.926H136.665V607.721H131.746V578.803H143.373ZM136.665 594.603H143.075C147.546 594.603 150.08 592.666 150.08 588.79C150.08 584.915 147.546 583.126 143.075 583.126H136.665V594.603Z" fill="black"/>
<path d="M169.009 610.702C167.667 614.13 165.133 615.919 161.854 615.919C159.916 615.919 158.276 615.323 156.786 614.13L158.873 610.404C159.916 611.149 160.661 611.447 161.705 611.447C163.195 611.447 164.388 610.702 164.984 609.062L165.729 607.423L156.637 585.66H161.556L168.114 602.355L174.226 585.66H178.996L169.009 610.702Z" fill="black"/>
<path d="M187.344 590.132C188.835 587.151 191.518 585.66 194.946 585.66V590.132C190.474 589.834 187.642 592.517 187.344 596.243V607.721H182.574V585.66H187.344V590.132Z" fill="black"/>
<path d="M218.351 598.479H201.656C202.401 601.907 204.935 603.994 208.513 603.994C210.898 603.994 213.134 603.1 214.773 601.46L217.307 604.143C215.22 606.528 211.941 607.87 208.215 607.87C201.358 607.87 197.035 603.398 197.035 596.69C197.035 589.983 201.656 585.511 208.215 585.511C215.817 585.511 218.947 590.579 218.351 598.479ZM214.177 595.051C214.028 591.473 211.643 589.386 208.066 589.386C204.637 589.386 202.103 591.622 201.656 595.051H214.177ZM204.935 582.53L209.258 576.418L214.177 578.505L209.109 582.53H204.935Z" fill="black"/>
<path d="M244.436 594.007V607.721H239.666V595.349C239.666 592.07 237.728 589.983 234.3 589.983C230.723 589.983 228.338 592.517 228.039 595.945V607.721H223.27V585.66H228.039V589.834C229.679 586.703 232.362 585.511 236.089 585.511C241.306 585.511 244.436 588.79 244.436 594.007Z" fill="black"/>
<path d="M270.073 598.479H253.379C254.124 601.907 256.658 603.994 260.235 603.994C262.62 603.994 264.856 603.1 266.496 601.46L269.03 604.143C266.943 606.528 263.664 607.87 259.937 607.87C253.081 607.87 248.758 603.398 248.758 596.69C248.758 589.983 253.379 585.511 259.937 585.511C267.539 585.511 270.67 590.579 270.073 598.479ZM265.9 595.051C265.751 591.473 263.366 589.386 259.788 589.386C256.36 589.386 253.826 591.622 253.379 595.051H265.9ZM256.807 582.53L261.13 576.418L266.049 578.505L260.981 582.53H256.807Z" fill="black"/>
<path d="M294.519 598.479H277.824C278.569 601.907 281.103 603.994 284.681 603.994C287.066 603.994 289.302 603.1 290.941 601.46L293.475 604.143C291.388 606.528 288.109 607.87 284.383 607.87C277.526 607.87 273.203 603.398 273.203 596.69C273.203 589.983 277.824 585.511 284.383 585.511C291.836 585.511 294.966 590.579 294.519 598.479ZM290.345 595.051C290.196 591.473 287.811 589.386 284.234 589.386C280.805 589.386 278.271 591.622 277.824 595.051H290.345Z" fill="black"/>
<path d="M313.747 587.747L311.958 591.324C310.02 590.132 307.635 589.386 305.697 589.386C303.909 589.386 302.418 589.983 302.418 591.622C302.418 595.647 314.194 593.411 314.045 601.46C314.045 605.932 310.02 608.019 305.548 608.019C302.269 608.019 298.841 606.975 296.754 604.889L298.394 601.46C300.331 603.1 303.313 604.143 305.697 604.143C307.784 604.143 309.275 603.398 309.275 601.758C309.275 597.287 297.648 599.821 297.648 591.771C297.648 587.3 301.524 585.362 305.697 585.362C308.828 585.511 311.66 586.256 313.747 587.747Z" fill="black"/>
<path d="M328.504 596.69V593.411H338.64V596.69H328.504Z" fill="black"/>
<path d="M381.868 607.721V586.107L372.775 604.739H369.645L360.553 586.107V607.721H355.932V578.803H361.745L371.285 598.032L380.825 578.803H386.638V607.721H381.868Z" fill="black"/>
<path d="M413.171 598.479H396.476C397.222 601.907 399.756 603.994 403.333 603.994C405.718 603.994 407.954 603.1 409.594 601.46L412.128 604.143C410.041 606.528 406.761 607.87 403.035 607.87C396.178 607.87 391.855 603.398 391.855 596.69C391.855 589.983 396.476 585.511 403.035 585.511C410.488 585.511 413.767 590.579 413.171 598.479ZM408.997 595.051C408.848 591.473 406.463 589.386 402.886 589.386C399.458 589.386 396.923 591.622 396.476 595.051H408.997ZM399.756 582.53L404.078 576.418L408.997 578.505L403.929 582.53H399.756Z" fill="black"/>
<path d="M439.106 607.721H434.336V603.994C432.697 606.528 430.163 608.019 426.585 608.019C420.325 608.019 416.002 603.398 416.002 596.69C416.002 590.132 420.325 585.511 426.436 585.511C430.014 585.511 432.697 587.002 434.187 589.536V577.015H438.957L439.106 607.721ZM434.336 596.839C434.336 592.517 431.504 589.536 427.629 589.536C423.604 589.536 420.921 592.517 420.772 596.839C420.772 601.013 423.604 603.994 427.629 603.994C431.504 603.994 434.336 601.013 434.336 596.839Z" fill="black"/>
<path d="M451.477 579.399C451.477 581.039 450.284 582.232 448.645 582.232C447.005 582.232 445.812 581.039 445.812 579.399C445.812 577.76 447.005 576.567 448.645 576.567C450.284 576.567 451.477 577.76 451.477 579.399ZM446.26 607.721V585.66H451.03V607.721H446.26Z" fill="black"/>
<path d="M470.559 606.23C468.77 607.274 466.982 607.87 465.193 607.87C461.914 607.87 459.081 605.932 459.081 601.46V589.983H455.951V586.405H459.081V580.294H463.851V586.405H470.41V589.983H463.851V600.566C463.851 602.802 464.746 603.547 466.236 603.547C467.28 603.547 468.323 603.249 469.516 602.653L470.559 606.23Z" fill="black"/>
<path d="M494.11 598.479H477.416C478.161 601.907 480.695 603.994 484.273 603.994C486.657 603.994 488.893 603.1 490.533 601.46L493.067 604.143C490.98 606.528 487.701 607.87 483.974 607.87C477.118 607.87 472.795 603.398 472.795 596.69C472.795 589.983 477.416 585.511 483.974 585.511C491.427 585.511 494.558 590.579 494.11 598.479ZM489.937 595.051C489.788 591.473 487.403 589.386 483.825 589.386C480.397 589.386 477.863 591.622 477.416 595.051H489.937Z" fill="black"/>
<path d="M503.799 590.132C505.29 587.151 507.973 585.66 511.401 585.66V590.132C506.929 589.834 504.097 592.517 503.799 596.243V607.721H499.029V585.66H503.799V590.132Z" fill="black"/>
<path d="M520.047 590.132C521.538 587.151 524.221 585.66 527.649 585.66V590.132C523.177 589.834 520.345 592.517 520.047 596.243V607.721H515.277V585.66H520.047V590.132Z" fill="black"/>
<path d="M543.897 605.038C542.406 606.975 539.723 607.87 536.593 607.87C531.823 607.87 528.842 604.889 528.842 601.013C528.842 596.988 531.823 594.454 537.189 594.454H543.897V593.858C543.897 591.026 542.108 589.386 538.68 589.386C536.593 589.386 534.357 590.132 532.121 591.622L530.183 588.343C533.164 586.554 535.549 585.511 539.723 585.511C545.387 585.511 548.518 588.343 548.667 593.262V607.721H544.046L543.897 605.038ZM543.897 599.97V597.883H537.934C534.804 597.883 533.463 598.777 533.463 600.864C533.463 602.802 535.102 604.143 537.785 604.143C541.065 604.143 543.748 602.355 543.897 599.97Z" fill="black"/>
<path d="M576.092 594.007V607.721H571.322V595.349C571.322 592.07 569.384 589.983 565.956 589.983C562.378 589.983 559.993 592.517 559.695 595.945V607.721H555.074V585.66H559.844V589.834C561.484 586.703 564.167 585.511 567.893 585.511C572.961 585.511 576.092 588.79 576.092 594.007Z" fill="black"/>
<path d="M601.88 598.479H585.185C585.931 601.907 588.465 603.994 592.042 603.994C594.427 603.994 596.663 603.1 598.303 601.46L600.837 604.143C598.75 606.528 595.47 607.87 591.744 607.87C584.887 607.87 580.564 603.398 580.564 596.69C580.564 589.983 585.185 585.511 591.744 585.511C599.197 585.511 602.476 590.579 601.88 598.479ZM597.706 595.051C597.557 591.473 595.172 589.386 591.595 589.386C588.167 589.386 585.633 591.622 585.185 595.051H597.706ZM588.465 582.53L592.787 576.418L597.706 578.505L592.638 582.53H588.465Z" fill="black"/>
<path d="M626.177 598.479H609.482C610.227 601.907 612.761 603.994 616.339 603.994C618.724 603.994 620.96 603.1 622.599 601.46L625.133 604.143C623.047 606.528 619.767 607.87 616.041 607.87C609.184 607.87 604.861 603.398 604.861 596.69C604.861 589.983 609.482 585.511 616.041 585.511C623.643 585.511 626.773 590.579 626.177 598.479ZM622.003 595.051C621.854 591.473 619.469 589.386 615.892 589.386C612.463 589.386 609.929 591.622 609.482 595.051H622.003Z" fill="black"/>
</svg>
