<svg width="1261" height="732" viewBox="0 0 1261 732" fill="none" xmlns="http://www.w3.org/2000/svg">
<rect width="1261" height="732" rx="15" fill="white"/>
<mask id="path-2-inside-1_217_742" fill="white">
<rect x="390" y="206" width="482" height="327" rx="15"/>
</mask>
<rect x="390" y="206" width="482" height="327" rx="15" stroke="#353982" stroke-width="96" mask="url(#path-2-inside-1_217_742)"/>
<rect x="438" y="315" width="138" height="15" fill="#353982"/>
<rect x="438" y="408" width="138" height="15" fill="#353982"/>
<rect x="592" y="393" width="78" height="15" fill="#353982"/>
<rect x="592" y="408" width="78" height="15" transform="rotate(-90 592 408)" fill="#353982"/>
<rect x="655" y="408" width="78" height="15" transform="rotate(-90 655 408)" fill="#353982"/>
<rect x="452" y="439" width="93" height="31" fill="#353982"/>
<rect x="452" y="268" width="93" height="31" fill="#353982"/>
<rect x="452" y="362" width="93" height="14" fill="#353982"/>
<rect x="561" y="299" width="31" height="16" fill="#353982"/>
<rect x="639" y="330" width="31" height="16" fill="#353982"/>
<rect x="592" y="330" width="31" height="16" fill="#353982"/>
<rect x="608" y="283" width="46" height="32" fill="#353982"/>
<rect x="608" y="423" width="46" height="32" fill="#353982"/>
<rect x="561" y="423" width="31" height="16" fill="#353982"/>
<rect x="561" y="501" width="31" height="16" transform="rotate(-90 561 501)" fill="#353982"/>
<rect x="561" y="268" width="31" height="16" transform="rotate(-90 561 268)" fill="#353982"/>
<rect x="484" y="250" width="29" height="20" fill="#353982"/>
<rect x="484" y="467" width="29" height="20" fill="#353982"/>
<rect x="468" y="347" width="61" height="45" fill="#353982"/>
<rect x="824.045" y="422.956" width="138" height="15" transform="rotate(179.98 824.045 422.956)" fill="#353982"/>
<rect x="824.011" y="329.956" width="138" height="15" transform="rotate(179.98 824.011 329.956)" fill="#353982"/>
<rect x="810" y="298.961" width="93" height="31" transform="rotate(179.98 810 298.961)" fill="#353982"/>
<rect x="810.062" y="469.961" width="93" height="31" transform="rotate(179.98 810.062 469.961)" fill="#353982"/>
<rect x="810.028" y="375.961" width="93" height="14" transform="rotate(179.98 810.028 375.961)" fill="#353982"/>
<rect x="701.05" y="439" width="31" height="16" transform="rotate(179.98 701.05 439)" fill="#353982"/>
<rect x="701.006" y="315" width="31" height="16" transform="rotate(179.98 701.006 315)" fill="#353982"/>
<rect x="700.978" y="237" width="31" height="16" transform="rotate(89.9795 700.978 237)" fill="#353982"/>
<rect x="701.062" y="470" width="31" height="16" transform="rotate(89.9795 701.062 470)" fill="#353982"/>
<rect x="778.068" y="487.973" width="29" height="20" transform="rotate(179.98 778.068 487.973)" fill="#353982"/>
<rect x="777.99" y="270.973" width="29" height="20" transform="rotate(179.98 777.99 270.973)" fill="#353982"/>
<rect x="794.033" y="390.967" width="61" height="45" transform="rotate(179.98 794.033 390.967)" fill="#353982"/>
</svg>
