<svg width="539" height="1171" viewBox="0 0 539 1171" fill="none" xmlns="http://www.w3.org/2000/svg">
<rect width="539" height="1171" rx="15" fill="white"/>
<rect x="32" y="610" width="475" height="203" rx="32" fill="#8EC9FF"/>
<rect x="32" y="138" width="475" height="446" rx="32" fill="#8EC9FF"/>
<path d="M394.5 346.211C410.357 346.211 423.211 333.357 423.211 317.5C423.211 301.643 410.357 288.789 394.5 288.789C378.643 288.789 365.789 301.643 365.789 317.5C365.789 333.357 378.643 346.211 394.5 346.211Z" fill="url(#paint0_linear_402_5)" stroke="#F8AF18" stroke-width="3" stroke-miterlimit="10"/>
<path d="M394.5 272.964V255.977M394.5 379.023V362.036M426.014 285.986L437.977 274.023M351.023 360.977L363.021 348.979M363.021 285.952L351.058 273.989M438.045 360.977L426.048 348.979M349.964 317.5H332.977M456.023 317.5H439.036" stroke="#FBBF24" stroke-width="13" stroke-miterlimit="10" stroke-linecap="round"/>
<path d="M409.5 740.211C425.357 740.211 438.211 727.357 438.211 711.5C438.211 695.643 425.357 682.789 409.5 682.789C393.643 682.789 380.789 695.643 380.789 711.5C380.789 727.357 393.643 740.211 409.5 740.211Z" fill="url(#paint1_linear_402_5)" stroke="#F8AF18" stroke-width="3" stroke-miterlimit="10"/>
<path d="M409.5 666.964V649.977M409.5 773.023V756.036M441.014 679.986L452.977 668.023M366.023 754.977L378.021 742.979M378.021 679.952L366.058 667.989M453.045 754.977L441.048 742.979M364.964 711.5H347.977M471.023 711.5H454.036" stroke="#FBBF24" stroke-width="13" stroke-miterlimit="10" stroke-linecap="round"/>
<path d="M45.8569 89L50.1426 93.2857" stroke="#BDBDBD" stroke-width="5" stroke-linecap="round" stroke-linejoin="round"/>
<path d="M47.9999 82.9286C47.9999 87.4653 44.3222 91.1429 39.7856 91.1429C35.2489 91.1429 31.5713 87.4653 31.5713 82.9286C31.5713 78.392 35.2489 74.7144 39.7856 74.7144C44.3222 74.7144 47.9999 78.392 47.9999 82.9286Z" stroke="#BDBDBD" stroke-width="5"/>
<path d="M92.1577 338.497C89.7192 338.497 87.5412 338.077 85.6236 337.237C83.7178 336.396 82.2086 335.23 81.0959 333.739C79.995 332.235 79.4032 330.495 79.3203 328.518H84.8956C84.9666 329.596 85.3277 330.531 85.9787 331.324C86.6416 332.105 87.5057 332.709 88.571 333.135C89.6364 333.561 90.8201 333.774 92.1222 333.774C93.5545 333.774 94.821 333.526 95.9219 333.028C97.0346 332.531 97.9046 331.839 98.532 330.951C99.1593 330.051 99.473 329.016 99.473 327.844C99.473 326.625 99.1593 325.553 98.532 324.63C97.9164 323.695 97.0109 322.961 95.8153 322.428C94.6316 321.896 93.1993 321.629 91.5185 321.629H88.4467V317.155H91.5185C92.8679 317.155 94.0516 316.912 95.0696 316.427C96.0994 315.942 96.9044 315.267 97.4844 314.403C98.0644 313.527 98.3544 312.503 98.3544 311.331C98.3544 310.206 98.0999 309.23 97.5909 308.401C97.0938 307.561 96.3835 306.904 95.4602 306.43C94.5488 305.957 93.4716 305.72 92.2287 305.72C91.045 305.72 89.9382 305.939 88.9084 306.377C87.8904 306.803 87.0618 307.419 86.4226 308.224C85.7834 309.017 85.4401 309.97 85.3928 311.082H80.0838C80.143 309.117 80.723 307.389 81.8239 305.898C82.9366 304.406 84.4044 303.24 86.2273 302.4C88.0502 301.559 90.0743 301.139 92.2997 301.139C94.6316 301.139 96.6439 301.595 98.3366 302.506C100.041 303.406 101.355 304.607 102.278 306.111C103.214 307.614 103.675 309.259 103.663 311.047C103.675 313.083 103.107 314.811 101.959 316.232C100.822 317.652 99.3073 318.605 97.4134 319.09V319.374C99.8281 319.741 101.698 320.7 103.024 322.251C104.362 323.801 105.025 325.725 105.013 328.021C105.025 330.022 104.468 331.815 103.344 333.401C102.231 334.987 100.71 336.236 98.7805 337.148C96.8511 338.047 94.6435 338.497 92.1577 338.497ZM110.961 330.898V326.459L126.675 301.636H130.173V308.17H127.953L116.714 325.962V326.246H138.251V330.898H110.961ZM128.202 338V329.548L128.237 327.524V301.636H133.44V338H128.202ZM146.641 338.337C145.67 338.337 144.836 337.994 144.137 337.308C143.439 336.609 143.09 335.769 143.09 334.786C143.09 333.816 143.439 332.987 144.137 332.3C144.836 331.602 145.67 331.253 146.641 331.253C147.612 331.253 148.446 331.602 149.145 332.3C149.843 332.987 150.192 333.816 150.192 334.786C150.192 335.437 150.026 336.035 149.695 336.58C149.375 337.112 148.949 337.538 148.417 337.858C147.884 338.178 147.292 338.337 146.641 338.337ZM168.884 301.139C170.506 301.151 172.104 301.447 173.678 302.027C175.253 302.607 176.673 303.554 177.94 304.868C179.218 306.182 180.236 307.957 180.994 310.195C181.763 312.42 182.154 315.19 182.166 318.504C182.166 321.688 181.846 324.523 181.207 327.009C180.568 329.483 179.65 331.572 178.455 333.277C177.271 334.982 175.833 336.278 174.14 337.165C172.447 338.053 170.542 338.497 168.423 338.497C166.257 338.497 164.333 338.071 162.652 337.219C160.971 336.366 159.604 335.189 158.551 333.685C157.497 332.17 156.84 330.43 156.58 328.465H161.995C162.35 330.028 163.072 331.294 164.161 332.265C165.262 333.224 166.683 333.703 168.423 333.703C171.086 333.703 173.164 332.543 174.655 330.223C176.146 327.891 176.898 324.636 176.91 320.457H176.626C176.01 321.475 175.241 322.351 174.318 323.085C173.406 323.819 172.382 324.387 171.246 324.79C170.11 325.192 168.896 325.393 167.606 325.393C165.511 325.393 163.605 324.879 161.889 323.849C160.172 322.819 158.805 321.404 157.787 319.605C156.769 317.806 156.26 315.752 156.26 313.444C156.26 311.147 156.781 309.064 157.823 307.194C158.876 305.324 160.344 303.844 162.226 302.755C164.12 301.654 166.339 301.116 168.884 301.139ZM168.902 305.756C167.517 305.756 166.268 306.099 165.156 306.786C164.055 307.46 163.185 308.378 162.546 309.538C161.906 310.686 161.587 311.964 161.587 313.373C161.587 314.781 161.895 316.06 162.51 317.208C163.137 318.344 163.99 319.25 165.067 319.925C166.156 320.588 167.399 320.919 168.796 320.919C169.837 320.919 170.808 320.718 171.708 320.315C172.607 319.913 173.394 319.357 174.069 318.646C174.744 317.924 175.271 317.107 175.649 316.196C176.028 315.285 176.218 314.326 176.218 313.32C176.218 311.982 175.898 310.739 175.259 309.591C174.631 308.443 173.767 307.519 172.666 306.821C171.566 306.111 170.311 305.756 168.902 305.756ZM209.714 318.078C208.175 318.078 206.772 317.705 205.506 316.96C204.251 316.202 203.245 315.19 202.487 313.923C201.741 312.657 201.368 311.254 201.368 309.715C201.368 308.176 201.741 306.78 202.487 305.525C203.245 304.258 204.251 303.252 205.506 302.506C206.772 301.749 208.175 301.37 209.714 301.37C211.252 301.37 212.655 301.749 213.922 302.506C215.188 303.252 216.194 304.258 216.94 305.525C217.698 306.78 218.077 308.176 218.077 309.715C218.077 311.254 217.698 312.657 216.94 313.923C216.194 315.19 215.188 316.202 213.922 316.96C212.655 317.705 211.252 318.078 209.714 318.078ZM209.714 314.03C210.519 314.03 211.247 313.835 211.898 313.444C212.549 313.053 213.064 312.532 213.442 311.881C213.833 311.23 214.028 310.508 214.028 309.715C214.028 308.922 213.833 308.2 213.442 307.549C213.064 306.898 212.549 306.383 211.898 306.004C211.247 305.614 210.519 305.418 209.714 305.418C208.921 305.418 208.198 305.614 207.547 306.004C206.896 306.383 206.376 306.898 205.985 307.549C205.606 308.2 205.417 308.922 205.417 309.715C205.417 310.508 205.606 311.23 205.985 311.881C206.376 312.532 206.896 313.053 207.547 313.444C208.198 313.835 208.921 314.03 209.714 314.03ZM254.631 313.462H249.091C248.878 312.278 248.482 311.236 247.902 310.337C247.322 309.437 246.611 308.674 245.771 308.046C244.931 307.419 243.989 306.945 242.948 306.626C241.918 306.306 240.823 306.146 239.663 306.146C237.568 306.146 235.692 306.673 234.034 307.727C232.389 308.78 231.087 310.325 230.128 312.361C229.181 314.397 228.708 316.883 228.708 319.818C228.708 322.777 229.181 325.275 230.128 327.311C231.087 329.347 232.395 330.886 234.052 331.928C235.709 332.969 237.574 333.49 239.645 333.49C240.793 333.49 241.882 333.336 242.912 333.028C243.954 332.709 244.895 332.241 245.735 331.626C246.576 331.01 247.286 330.259 247.866 329.371C248.458 328.471 248.866 327.441 249.091 326.281L254.631 326.299C254.335 328.086 253.761 329.732 252.909 331.235C252.068 332.727 250.985 334.017 249.659 335.106C248.346 336.183 246.842 337.018 245.15 337.609C243.457 338.201 241.61 338.497 239.61 338.497C236.461 338.497 233.656 337.751 231.194 336.26C228.731 334.757 226.79 332.608 225.37 329.815C223.961 327.021 223.257 323.689 223.257 319.818C223.257 315.936 223.967 312.603 225.387 309.822C226.808 307.028 228.749 304.886 231.211 303.394C233.673 301.891 236.473 301.139 239.61 301.139C241.539 301.139 243.338 301.417 245.007 301.974C246.688 302.518 248.198 303.323 249.535 304.388C250.873 305.442 251.98 306.732 252.855 308.259C253.731 309.774 254.323 311.509 254.631 313.462Z" fill="white"/>
<path d="M99.1577 739.497C96.7192 739.497 94.5412 739.077 92.6236 738.237C90.7178 737.396 89.2086 736.23 88.0959 734.739C86.995 733.235 86.4032 731.495 86.3203 729.518H91.8956C91.9666 730.596 92.3277 731.531 92.9787 732.324C93.6416 733.105 94.5057 733.709 95.571 734.135C96.6364 734.561 97.8201 734.774 99.1222 734.774C100.554 734.774 101.821 734.526 102.922 734.028C104.035 733.531 104.905 732.839 105.532 731.951C106.159 731.051 106.473 730.016 106.473 728.844C106.473 727.625 106.159 726.553 105.532 725.63C104.916 724.695 104.011 723.961 102.815 723.428C101.632 722.896 100.199 722.629 98.5185 722.629H95.4467V718.155H98.5185C99.8679 718.155 101.052 717.912 102.07 717.427C103.099 716.942 103.904 716.267 104.484 715.403C105.064 714.527 105.354 713.503 105.354 712.331C105.354 711.206 105.1 710.23 104.591 709.401C104.094 708.561 103.384 707.904 102.46 707.43C101.549 706.957 100.472 706.72 99.2287 706.72C98.045 706.72 96.9382 706.939 95.9084 707.377C94.8904 707.803 94.0618 708.419 93.4226 709.224C92.7834 710.017 92.4401 710.97 92.3928 712.082H87.0838C87.143 710.117 87.723 708.389 88.8239 706.898C89.9366 705.406 91.4044 704.24 93.2273 703.4C95.0502 702.559 97.0743 702.139 99.2997 702.139C101.632 702.139 103.644 702.595 105.337 703.506C107.041 704.406 108.355 705.607 109.278 707.111C110.214 708.614 110.675 710.259 110.663 712.047C110.675 714.083 110.107 715.811 108.959 717.232C107.822 718.652 106.307 719.605 104.413 720.09V720.374C106.828 720.741 108.698 721.7 110.024 723.251C111.362 724.801 112.025 726.725 112.013 729.021C112.025 731.022 111.468 732.815 110.344 734.401C109.231 735.987 107.71 737.236 105.781 738.148C103.851 739.047 101.643 739.497 99.1577 739.497ZM131.42 739.497C129.798 739.473 128.2 739.178 126.626 738.609C125.063 738.041 123.643 737.094 122.364 735.768C121.086 734.443 120.062 732.661 119.293 730.424C118.535 728.187 118.156 725.393 118.156 722.043C118.156 718.871 118.47 716.054 119.097 713.592C119.737 711.129 120.654 709.052 121.849 707.359C123.045 705.655 124.489 704.359 126.182 703.471C127.875 702.583 129.774 702.139 131.881 702.139C134.048 702.139 135.971 702.565 137.652 703.418C139.333 704.27 140.694 705.448 141.736 706.951C142.789 708.454 143.458 710.165 143.742 712.082H138.327C137.96 710.567 137.232 709.33 136.143 708.371C135.054 707.413 133.633 706.933 131.881 706.933C129.218 706.933 127.141 708.093 125.649 710.413C124.17 712.733 123.424 715.959 123.412 720.09H123.678C124.306 719.06 125.075 718.184 125.987 717.462C126.91 716.728 127.94 716.166 129.076 715.776C130.224 715.373 131.432 715.172 132.698 715.172C134.805 715.172 136.711 715.687 138.415 716.717C140.132 717.735 141.499 719.143 142.517 720.942C143.535 722.742 144.044 724.801 144.044 727.121C144.044 729.442 143.517 731.543 142.464 733.425C141.422 735.307 139.954 736.798 138.06 737.899C136.166 738.988 133.953 739.521 131.42 739.497ZM131.402 734.881C132.799 734.881 134.048 734.537 135.148 733.851C136.249 733.164 137.119 732.241 137.759 731.081C138.398 729.921 138.717 728.625 138.717 727.192C138.717 725.796 138.404 724.523 137.776 723.375C137.161 722.227 136.308 721.315 135.219 720.641C134.142 719.966 132.911 719.629 131.526 719.629C130.473 719.629 129.496 719.83 128.597 720.232C127.709 720.635 126.928 721.191 126.253 721.901C125.578 722.612 125.045 723.428 124.655 724.352C124.276 725.263 124.087 726.228 124.087 727.246C124.087 728.607 124.4 729.868 125.028 731.028C125.667 732.188 126.537 733.123 127.638 733.833C128.75 734.531 130.005 734.881 131.402 734.881ZM152.42 739.337C151.45 739.337 150.615 738.994 149.917 738.308C149.218 737.609 148.869 736.769 148.869 735.786C148.869 734.816 149.218 733.987 149.917 733.3C150.615 732.602 151.45 732.253 152.42 732.253C153.391 732.253 154.225 732.602 154.924 733.3C155.622 733.987 155.971 734.816 155.971 735.786C155.971 736.437 155.806 737.035 155.474 737.58C155.155 738.112 154.729 738.538 154.196 738.858C153.663 739.178 153.071 739.337 152.42 739.337ZM163.012 739V735.023L175.316 722.274C176.63 720.889 177.713 719.676 178.566 718.634C179.43 717.581 180.075 716.58 180.501 715.634C180.927 714.687 181.14 713.68 181.14 712.615C181.14 711.408 180.856 710.366 180.288 709.49C179.72 708.602 178.944 707.922 177.962 707.448C176.979 706.963 175.873 706.72 174.642 706.72C173.339 706.72 172.203 706.987 171.232 707.519C170.262 708.052 169.516 708.804 168.995 709.774C168.474 710.745 168.214 711.881 168.214 713.183H162.976C162.976 710.97 163.485 709.034 164.503 707.377C165.521 705.72 166.918 704.436 168.693 703.524C170.469 702.601 172.487 702.139 174.748 702.139C177.033 702.139 179.045 702.595 180.785 703.506C182.537 704.406 183.904 705.637 184.887 707.2C185.869 708.75 186.36 710.502 186.36 712.455C186.36 713.805 186.106 715.125 185.597 716.415C185.1 717.705 184.23 719.143 182.987 720.729C181.744 722.304 180.016 724.215 177.802 726.464L170.575 734.028V734.295H186.946V739H163.012ZM214.809 719.078C213.27 719.078 211.868 718.705 210.601 717.96C209.346 717.202 208.34 716.19 207.583 714.923C206.837 713.657 206.464 712.254 206.464 710.715C206.464 709.176 206.837 707.78 207.583 706.525C208.34 705.258 209.346 704.252 210.601 703.506C211.868 702.749 213.27 702.37 214.809 702.37C216.348 702.37 217.751 702.749 219.017 703.506C220.284 704.252 221.29 705.258 222.036 706.525C222.793 707.78 223.172 709.176 223.172 710.715C223.172 712.254 222.793 713.657 222.036 714.923C221.29 716.19 220.284 717.202 219.017 717.96C217.751 718.705 216.348 719.078 214.809 719.078ZM214.809 715.03C215.614 715.03 216.342 714.835 216.993 714.444C217.644 714.053 218.159 713.532 218.538 712.881C218.929 712.23 219.124 711.508 219.124 710.715C219.124 709.922 218.929 709.2 218.538 708.549C218.159 707.898 217.644 707.383 216.993 707.004C216.342 706.614 215.614 706.418 214.809 706.418C214.016 706.418 213.294 706.614 212.643 707.004C211.992 707.383 211.471 707.898 211.081 708.549C210.702 709.2 210.512 709.922 210.512 710.715C210.512 711.508 210.702 712.23 211.081 712.881C211.471 713.532 211.992 714.053 212.643 714.444C213.294 714.835 214.016 715.03 214.809 715.03ZM259.727 714.462H254.187C253.974 713.278 253.577 712.236 252.997 711.337C252.417 710.437 251.707 709.674 250.867 709.046C250.026 708.419 249.085 707.945 248.044 707.626C247.014 707.306 245.919 707.146 244.759 707.146C242.664 707.146 240.787 707.673 239.13 708.727C237.485 709.78 236.183 711.325 235.224 713.361C234.277 715.397 233.803 717.883 233.803 720.818C233.803 723.777 234.277 726.275 235.224 728.311C236.183 730.347 237.491 731.886 239.148 732.928C240.805 733.969 242.669 734.49 244.741 734.49C245.889 734.49 246.978 734.336 248.008 734.028C249.05 733.709 249.991 733.241 250.831 732.626C251.672 732.01 252.382 731.259 252.962 730.371C253.554 729.471 253.962 728.441 254.187 727.281L259.727 727.299C259.431 729.086 258.857 730.732 258.004 732.235C257.164 733.727 256.081 735.017 254.755 736.106C253.441 737.183 251.938 738.018 250.245 738.609C248.552 739.201 246.706 739.497 244.705 739.497C241.557 739.497 238.751 738.751 236.289 737.26C233.827 735.757 231.886 733.608 230.465 730.815C229.057 728.021 228.352 724.689 228.352 720.818C228.352 716.936 229.063 713.603 230.483 710.822C231.904 708.028 233.845 705.886 236.307 704.394C238.769 702.891 241.569 702.139 244.705 702.139C246.635 702.139 248.434 702.417 250.103 702.974C251.784 703.518 253.293 704.323 254.631 705.388C255.968 706.442 257.075 707.732 257.951 709.259C258.827 710.774 259.419 712.509 259.727 714.462Z" fill="white"/>
<path d="M114.432 82.1818C114.261 80.7424 113.57 79.625 112.358 78.8295C111.146 78.0341 109.659 77.6364 107.898 77.6364C106.61 77.6364 105.483 77.8447 104.517 78.2614C103.561 78.678 102.813 79.2509 102.273 79.9801C101.742 80.7093 101.477 81.5379 101.477 82.4659C101.477 83.2424 101.662 83.91 102.031 84.4688C102.41 85.018 102.893 85.4773 103.48 85.8466C104.067 86.2064 104.683 86.5047 105.327 86.7415C105.971 86.9687 106.562 87.1534 107.102 87.2955L110.057 88.0909C110.814 88.2898 111.657 88.5644 112.585 88.9148C113.523 89.2652 114.418 89.7434 115.27 90.3494C116.132 90.946 116.842 91.7131 117.401 92.6506C117.959 93.5881 118.239 94.7386 118.239 96.1023C118.239 97.6742 117.827 99.0947 117.003 100.364C116.188 101.633 114.995 102.641 113.423 103.389C111.861 104.137 109.962 104.511 107.727 104.511C105.644 104.511 103.84 104.175 102.315 103.503C100.8 102.83 99.607 101.893 98.7358 100.69C97.8741 99.4877 97.3864 98.0909 97.2727 96.5H100.909C101.004 97.5985 101.373 98.5076 102.017 99.2273C102.67 99.9375 103.494 100.468 104.489 100.818C105.492 101.159 106.572 101.33 107.727 101.33C109.072 101.33 110.279 101.112 111.349 100.676C112.42 100.231 113.267 99.6155 113.892 98.8295C114.517 98.0341 114.83 97.1061 114.83 96.0455C114.83 95.0795 114.56 94.2936 114.02 93.6875C113.48 93.0814 112.77 92.589 111.889 92.2102C111.009 91.8314 110.057 91.5 109.034 91.2159L105.455 90.1932C103.182 89.5398 101.383 88.607 100.057 87.3949C98.7311 86.1828 98.0682 84.5966 98.0682 82.6364C98.0682 81.0076 98.5085 79.5871 99.3892 78.375C100.279 77.1534 101.473 76.2064 102.969 75.5341C104.474 74.8523 106.155 74.5114 108.011 74.5114C109.886 74.5114 111.553 74.8475 113.011 75.5199C114.47 76.1828 115.625 77.0919 116.477 78.2472C117.339 79.4025 117.794 80.714 117.841 82.1818H114.432ZM132.724 104.455C130.621 104.455 128.808 103.991 127.283 103.062C125.768 102.125 124.599 100.818 123.775 99.142C122.96 97.4564 122.553 95.4962 122.553 93.2614C122.553 91.0265 122.96 89.0568 123.775 87.3523C124.599 85.6383 125.745 84.303 127.212 83.3466C128.69 82.3807 130.413 81.8977 132.383 81.8977C133.519 81.8977 134.641 82.0871 135.749 82.4659C136.857 82.8447 137.866 83.4602 138.775 84.3125C139.684 85.1553 140.408 86.2727 140.948 87.6648C141.488 89.0568 141.758 90.7708 141.758 92.8068V94.2273H124.94V91.3295H138.349C138.349 90.0985 138.103 89 137.61 88.0341C137.127 87.0682 136.436 86.3059 135.536 85.7472C134.646 85.1884 133.595 84.9091 132.383 84.9091C131.048 84.9091 129.892 85.2405 128.917 85.9034C127.951 86.5568 127.208 87.4091 126.687 88.4602C126.166 89.5114 125.906 90.6383 125.906 91.8409V93.7727C125.906 95.4205 126.19 96.8172 126.758 97.9631C127.335 99.0994 128.136 99.9659 129.158 100.562C130.181 101.15 131.37 101.443 132.724 101.443C133.604 101.443 134.4 101.32 135.11 101.074C135.83 100.818 136.45 100.439 136.971 99.9375C137.492 99.4261 137.894 98.7917 138.178 98.0341L141.417 98.9432C141.076 100.042 140.503 101.008 139.698 101.841C138.893 102.665 137.899 103.309 136.715 103.773C135.531 104.227 134.201 104.455 132.724 104.455ZM153.278 104.511C151.895 104.511 150.64 104.251 149.513 103.73C148.387 103.2 147.492 102.438 146.829 101.443C146.166 100.439 145.835 99.2273 145.835 97.8068C145.835 96.5568 146.081 95.5436 146.573 94.767C147.066 93.9811 147.724 93.3655 148.548 92.9205C149.371 92.4754 150.281 92.1439 151.275 91.9261C152.279 91.6989 153.287 91.5189 154.3 91.3864C155.626 91.2159 156.701 91.0881 157.525 91.0028C158.358 90.9081 158.964 90.7519 159.343 90.5341C159.731 90.3163 159.925 89.9375 159.925 89.3977V89.2841C159.925 87.8826 159.542 86.7936 158.775 86.017C158.017 85.2405 156.867 84.8523 155.323 84.8523C153.723 84.8523 152.468 85.2027 151.559 85.9034C150.65 86.6042 150.011 87.3523 149.641 88.1477L146.46 87.0114C147.028 85.6856 147.785 84.6534 148.732 83.9148C149.689 83.1667 150.73 82.6458 151.857 82.3523C152.994 82.0492 154.111 81.8977 155.21 81.8977C155.91 81.8977 156.715 81.983 157.624 82.1534C158.543 82.3144 159.428 82.6506 160.281 83.1619C161.142 83.6733 161.857 84.4451 162.425 85.4773C162.994 86.5095 163.278 87.892 163.278 89.625V104H159.925V101.045H159.755C159.528 101.519 159.149 102.026 158.619 102.565C158.088 103.105 157.383 103.564 156.502 103.943C155.621 104.322 154.547 104.511 153.278 104.511ZM153.789 101.5C155.115 101.5 156.232 101.24 157.141 100.719C158.06 100.198 158.751 99.5256 159.215 98.7017C159.689 97.8778 159.925 97.0114 159.925 96.1023V93.0341C159.783 93.2045 159.471 93.3608 158.988 93.5028C158.514 93.6354 157.965 93.7538 157.34 93.858C156.725 93.9527 156.123 94.0379 155.536 94.1136C154.959 94.1799 154.49 94.2367 154.13 94.2841C153.259 94.3977 152.444 94.5824 151.687 94.8381C150.939 95.0843 150.333 95.4583 149.869 95.9602C149.414 96.4527 149.187 97.125 149.187 97.9773C149.187 99.142 149.618 100.023 150.479 100.619C151.351 101.206 152.454 101.5 153.789 101.5ZM169.396 104V82.1818H172.635V85.4773H172.862C173.26 84.3977 173.98 83.5218 175.021 82.8494C176.063 82.1771 177.237 81.8409 178.544 81.8409C178.79 81.8409 179.098 81.8456 179.467 81.8551C179.837 81.8646 180.116 81.8788 180.305 81.8977V85.3068C180.192 85.2784 179.931 85.2358 179.524 85.179C179.126 85.1127 178.705 85.0795 178.26 85.0795C177.199 85.0795 176.252 85.3021 175.419 85.7472C174.595 86.1828 173.942 86.7888 173.459 87.5653C172.985 88.3324 172.749 89.2083 172.749 90.1932V104H169.396ZM192.479 104.455C190.433 104.455 188.672 103.972 187.195 103.006C185.717 102.04 184.581 100.709 183.786 99.0142C182.99 97.3191 182.592 95.3826 182.592 93.2045C182.592 90.9886 183 89.0331 183.814 87.3381C184.638 85.6335 185.784 84.303 187.251 83.3466C188.729 82.3807 190.452 81.8977 192.422 81.8977C193.956 81.8977 195.339 82.1818 196.57 82.75C197.801 83.3182 198.809 84.1136 199.595 85.1364C200.381 86.1591 200.869 87.3523 201.058 88.7159H197.706C197.45 87.7216 196.882 86.8409 196.001 86.0739C195.13 85.2973 193.956 84.9091 192.479 84.9091C191.172 84.9091 190.026 85.25 189.041 85.9318C188.066 86.6042 187.304 87.5559 186.754 88.7869C186.214 90.0085 185.945 91.4432 185.945 93.0909C185.945 94.7765 186.21 96.2443 186.74 97.4943C187.28 98.7443 188.037 99.715 189.013 100.406C189.998 101.098 191.153 101.443 192.479 101.443C193.35 101.443 194.141 101.292 194.851 100.989C195.561 100.686 196.162 100.25 196.655 99.6818C197.147 99.1136 197.498 98.4318 197.706 97.6364H201.058C200.869 98.9242 200.4 100.084 199.652 101.116C198.913 102.139 197.933 102.954 196.712 103.56C195.5 104.156 194.089 104.455 192.479 104.455ZM209.311 90.875V104H205.959V74.9091H209.311V85.5909H209.595C210.107 84.464 210.874 83.5691 211.896 82.9062C212.929 82.2339 214.302 81.8977 216.016 81.8977C217.502 81.8977 218.804 82.196 219.922 82.7926C221.039 83.3797 221.906 84.2841 222.521 85.5057C223.146 86.7178 223.459 88.2614 223.459 90.1364V104H220.107V90.3636C220.107 88.6307 219.657 87.2907 218.757 86.3438C217.867 85.3873 216.631 84.9091 215.05 84.9091C213.951 84.9091 212.966 85.1411 212.095 85.6051C211.233 86.0691 210.552 86.7462 210.05 87.6364C209.557 88.5265 209.311 89.6061 209.311 90.875Z" fill="#BDBDBD"/>
<path d="M108.523 169.909H112.727L122.614 194.057H122.955L132.841 169.909H137.045V199H133.75V176.898H133.466L124.375 199H121.193L112.102 176.898H111.818V199H108.523V169.909ZM152.518 199.455C150.548 199.455 148.82 198.986 147.333 198.048C145.856 197.111 144.701 195.799 143.867 194.114C143.043 192.428 142.631 190.458 142.631 188.205C142.631 185.932 143.043 183.948 143.867 182.253C144.701 180.558 145.856 179.241 147.333 178.304C148.82 177.366 150.548 176.898 152.518 176.898C154.487 176.898 156.211 177.366 157.688 178.304C159.175 179.241 160.33 180.558 161.154 182.253C161.987 183.948 162.404 185.932 162.404 188.205C162.404 190.458 161.987 192.428 161.154 194.114C160.33 195.799 159.175 197.111 157.688 198.048C156.211 198.986 154.487 199.455 152.518 199.455ZM152.518 196.443C154.014 196.443 155.245 196.06 156.211 195.293C157.177 194.526 157.892 193.517 158.356 192.267C158.82 191.017 159.052 189.663 159.052 188.205C159.052 186.746 158.82 185.387 158.356 184.128C157.892 182.868 157.177 181.85 156.211 181.074C155.245 180.297 154.014 179.909 152.518 179.909C151.022 179.909 149.79 180.297 148.825 181.074C147.859 181.85 147.144 182.868 146.68 184.128C146.216 185.387 145.984 186.746 145.984 188.205C145.984 189.663 146.216 191.017 146.68 192.267C147.144 193.517 147.859 194.526 148.825 195.293C149.79 196.06 151.022 196.443 152.518 196.443ZM170.874 185.875V199H167.521V177.182H170.76V180.591H171.044C171.555 179.483 172.332 178.593 173.374 177.92C174.415 177.239 175.76 176.898 177.408 176.898C178.885 176.898 180.178 177.201 181.286 177.807C182.393 178.403 183.255 179.312 183.871 180.534C184.486 181.746 184.794 183.28 184.794 185.136V199H181.442V185.364C181.442 183.65 180.997 182.314 180.107 181.358C179.216 180.392 177.995 179.909 176.442 179.909C175.372 179.909 174.415 180.141 173.572 180.605C172.739 181.069 172.081 181.746 171.598 182.636C171.115 183.527 170.874 184.606 170.874 185.875ZM200.408 177.182V180.023H189.102V177.182H200.408ZM192.397 171.955H195.749V192.75C195.749 193.697 195.887 194.407 196.161 194.881C196.445 195.345 196.805 195.657 197.241 195.818C197.686 195.97 198.155 196.045 198.647 196.045C199.016 196.045 199.319 196.027 199.556 195.989C199.793 195.941 199.982 195.903 200.124 195.875L200.806 198.886C200.579 198.972 200.262 199.057 199.854 199.142C199.447 199.237 198.931 199.284 198.306 199.284C197.359 199.284 196.431 199.08 195.522 198.673C194.622 198.266 193.874 197.646 193.278 196.812C192.691 195.979 192.397 194.928 192.397 193.659V171.955ZM205.451 207.182V177.182H208.69V180.648H209.087C209.334 180.269 209.674 179.786 210.11 179.199C210.555 178.602 211.19 178.072 212.013 177.608C212.847 177.134 213.974 176.898 215.394 176.898C217.231 176.898 218.851 177.357 220.252 178.276C221.654 179.194 222.747 180.496 223.533 182.182C224.319 183.867 224.712 185.856 224.712 188.148C224.712 190.458 224.319 192.461 223.533 194.156C222.747 195.842 221.658 197.149 220.266 198.077C218.874 198.995 217.269 199.455 215.451 199.455C214.049 199.455 212.927 199.223 212.085 198.759C211.242 198.285 210.593 197.75 210.138 197.153C209.684 196.547 209.334 196.045 209.087 195.648H208.803V207.182H205.451ZM208.746 188.091C208.746 189.739 208.988 191.192 209.471 192.452C209.954 193.702 210.659 194.682 211.587 195.392C212.515 196.093 213.652 196.443 214.996 196.443C216.398 196.443 217.567 196.074 218.505 195.335C219.452 194.587 220.162 193.583 220.636 192.324C221.119 191.055 221.36 189.644 221.36 188.091C221.36 186.557 221.123 185.174 220.65 183.943C220.186 182.703 219.48 181.723 218.533 181.003C217.596 180.274 216.417 179.909 214.996 179.909C213.633 179.909 212.487 180.255 211.559 180.946C210.631 181.628 209.93 182.584 209.457 183.815C208.983 185.037 208.746 186.462 208.746 188.091ZM238.974 199.455C236.871 199.455 235.058 198.991 233.533 198.062C232.018 197.125 230.849 195.818 230.025 194.142C229.21 192.456 228.803 190.496 228.803 188.261C228.803 186.027 229.21 184.057 230.025 182.352C230.849 180.638 231.995 179.303 233.462 178.347C234.94 177.381 236.663 176.898 238.633 176.898C239.769 176.898 240.891 177.087 241.999 177.466C243.107 177.845 244.116 178.46 245.025 179.312C245.934 180.155 246.658 181.273 247.198 182.665C247.738 184.057 248.008 185.771 248.008 187.807V189.227H231.19V186.33H244.599C244.599 185.098 244.353 184 243.86 183.034C243.377 182.068 242.686 181.306 241.786 180.747C240.896 180.188 239.845 179.909 238.633 179.909C237.298 179.909 236.142 180.241 235.167 180.903C234.201 181.557 233.458 182.409 232.937 183.46C232.416 184.511 232.156 185.638 232.156 186.841V188.773C232.156 190.42 232.44 191.817 233.008 192.963C233.585 194.099 234.386 194.966 235.408 195.562C236.431 196.15 237.62 196.443 238.974 196.443C239.854 196.443 240.65 196.32 241.36 196.074C242.08 195.818 242.7 195.439 243.221 194.938C243.742 194.426 244.144 193.792 244.428 193.034L247.667 193.943C247.326 195.042 246.753 196.008 245.948 196.841C245.143 197.665 244.149 198.309 242.965 198.773C241.781 199.227 240.451 199.455 238.974 199.455ZM256.46 169.909V199H253.107V169.909H256.46ZM265.952 169.909V199H262.599V169.909H265.952ZM272.092 199V177.182H275.444V199H272.092ZM273.796 173.545C273.143 173.545 272.579 173.323 272.106 172.878C271.642 172.433 271.41 171.898 271.41 171.273C271.41 170.648 271.642 170.113 272.106 169.668C272.579 169.223 273.143 169 273.796 169C274.45 169 275.008 169.223 275.472 169.668C275.946 170.113 276.183 170.648 276.183 171.273C276.183 171.898 275.946 172.433 275.472 172.878C275.008 173.323 274.45 173.545 273.796 173.545ZM290.732 199.455C288.629 199.455 286.816 198.991 285.291 198.062C283.776 197.125 282.607 195.818 281.783 194.142C280.968 192.456 280.561 190.496 280.561 188.261C280.561 186.027 280.968 184.057 281.783 182.352C282.607 180.638 283.752 179.303 285.22 178.347C286.697 177.381 288.421 176.898 290.391 176.898C291.527 176.898 292.649 177.087 293.757 177.466C294.865 177.845 295.874 178.46 296.783 179.312C297.692 180.155 298.416 181.273 298.956 182.665C299.496 184.057 299.766 185.771 299.766 187.807V189.227H282.947V186.33H296.357C296.357 185.098 296.11 184 295.618 183.034C295.135 182.068 294.444 181.306 293.544 180.747C292.654 180.188 291.603 179.909 290.391 179.909C289.055 179.909 287.9 180.241 286.925 180.903C285.959 181.557 285.215 182.409 284.695 183.46C284.174 184.511 283.913 185.638 283.913 186.841V188.773C283.913 190.42 284.197 191.817 284.766 192.963C285.343 194.099 286.143 194.966 287.166 195.562C288.189 196.15 289.377 196.443 290.732 196.443C291.612 196.443 292.408 196.32 293.118 196.074C293.838 195.818 294.458 195.439 294.979 194.938C295.5 194.426 295.902 193.792 296.186 193.034L299.425 193.943C299.084 195.042 298.511 196.008 297.706 196.841C296.901 197.665 295.907 198.309 294.723 198.773C293.539 199.227 292.209 199.455 290.732 199.455ZM304.865 199V177.182H308.104V180.477H308.331C308.729 179.398 309.448 178.522 310.49 177.849C311.532 177.177 312.706 176.841 314.013 176.841C314.259 176.841 314.567 176.846 314.936 176.855C315.305 176.865 315.585 176.879 315.774 176.898V180.307C315.661 180.278 315.4 180.236 314.993 180.179C314.595 180.113 314.174 180.08 313.729 180.08C312.668 180.08 311.721 180.302 310.888 180.747C310.064 181.183 309.411 181.789 308.928 182.565C308.454 183.332 308.217 184.208 308.217 185.193V199H304.865Z" fill="white"/>
<path d="M66.5227 649.909H70.7273L80.6136 674.057H80.9545L90.8409 649.909H95.0455V679H91.75V656.898H91.4659L82.375 679H79.1932L70.1023 656.898H69.8182V679H66.5227V649.909ZM108.075 679.511C106.692 679.511 105.437 679.251 104.31 678.73C103.183 678.2 102.289 677.438 101.626 676.443C100.963 675.439 100.631 674.227 100.631 672.807C100.631 671.557 100.878 670.544 101.37 669.767C101.862 668.981 102.521 668.366 103.344 667.92C104.168 667.475 105.077 667.144 106.072 666.926C107.076 666.699 108.084 666.519 109.097 666.386C110.423 666.216 111.498 666.088 112.322 666.003C113.155 665.908 113.761 665.752 114.14 665.534C114.528 665.316 114.722 664.937 114.722 664.398V664.284C114.722 662.883 114.339 661.794 113.572 661.017C112.814 660.241 111.664 659.852 110.12 659.852C108.52 659.852 107.265 660.203 106.356 660.903C105.447 661.604 104.808 662.352 104.438 663.148L101.256 662.011C101.825 660.686 102.582 659.653 103.529 658.915C104.486 658.167 105.527 657.646 106.654 657.352C107.79 657.049 108.908 656.898 110.006 656.898C110.707 656.898 111.512 656.983 112.421 657.153C113.34 657.314 114.225 657.651 115.077 658.162C115.939 658.673 116.654 659.445 117.222 660.477C117.79 661.509 118.075 662.892 118.075 664.625V679H114.722V676.045H114.552C114.325 676.519 113.946 677.026 113.415 677.565C112.885 678.105 112.18 678.564 111.299 678.943C110.418 679.322 109.344 679.511 108.075 679.511ZM108.586 676.5C109.912 676.5 111.029 676.24 111.938 675.719C112.857 675.198 113.548 674.526 114.012 673.702C114.486 672.878 114.722 672.011 114.722 671.102V668.034C114.58 668.205 114.268 668.361 113.785 668.503C113.311 668.635 112.762 668.754 112.137 668.858C111.522 668.953 110.92 669.038 110.333 669.114C109.755 669.18 109.287 669.237 108.927 669.284C108.056 669.398 107.241 669.582 106.484 669.838C105.736 670.084 105.129 670.458 104.665 670.96C104.211 671.453 103.984 672.125 103.984 672.977C103.984 674.142 104.415 675.023 105.276 675.619C106.147 676.206 107.251 676.5 108.586 676.5ZM124.193 679V657.182H127.432V660.477H127.659C128.057 659.398 128.777 658.522 129.818 657.849C130.86 657.177 132.034 656.841 133.341 656.841C133.587 656.841 133.895 656.846 134.264 656.855C134.634 656.865 134.913 656.879 135.102 656.898V660.307C134.989 660.278 134.728 660.236 134.321 660.179C133.923 660.113 133.502 660.08 133.057 660.08C131.996 660.08 131.049 660.302 130.216 660.747C129.392 661.183 128.739 661.789 128.256 662.565C127.782 663.332 127.545 664.208 127.545 665.193V679H124.193ZM154.531 662.068L151.519 662.92C151.33 662.419 151.05 661.931 150.681 661.457C150.321 660.974 149.829 660.577 149.204 660.264C148.579 659.952 147.779 659.795 146.803 659.795C145.468 659.795 144.355 660.103 143.465 660.719C142.585 661.325 142.144 662.097 142.144 663.034C142.144 663.867 142.447 664.526 143.053 665.009C143.659 665.491 144.606 665.894 145.894 666.216L149.133 667.011C151.084 667.485 152.537 668.209 153.494 669.185C154.45 670.151 154.928 671.396 154.928 672.92C154.928 674.17 154.568 675.288 153.849 676.273C153.138 677.258 152.144 678.034 150.866 678.602C149.587 679.17 148.101 679.455 146.406 679.455C144.18 679.455 142.338 678.972 140.88 678.006C139.422 677.04 138.498 675.629 138.11 673.773L141.292 672.977C141.595 674.152 142.168 675.032 143.011 675.619C143.863 676.206 144.976 676.5 146.349 676.5C147.911 676.5 149.152 676.169 150.07 675.506C150.998 674.833 151.462 674.028 151.462 673.091C151.462 672.333 151.197 671.699 150.667 671.188C150.137 670.667 149.322 670.278 148.224 670.023L144.587 669.17C142.589 668.697 141.121 667.963 140.184 666.969C139.256 665.965 138.792 664.71 138.792 663.205C138.792 661.973 139.138 660.884 139.829 659.938C140.53 658.991 141.481 658.247 142.684 657.707C143.896 657.168 145.269 656.898 146.803 656.898C148.962 656.898 150.657 657.371 151.888 658.318C153.129 659.265 154.01 660.515 154.531 662.068ZM169.122 679.455C167.02 679.455 165.206 678.991 163.682 678.062C162.167 677.125 160.997 675.818 160.173 674.142C159.359 672.456 158.952 670.496 158.952 668.261C158.952 666.027 159.359 664.057 160.173 662.352C160.997 660.638 162.143 659.303 163.611 658.347C165.088 657.381 166.812 656.898 168.781 656.898C169.918 656.898 171.04 657.087 172.148 657.466C173.256 657.845 174.264 658.46 175.173 659.312C176.082 660.155 176.807 661.273 177.347 662.665C177.886 664.057 178.156 665.771 178.156 667.807V669.227H161.338V666.33H174.747C174.747 665.098 174.501 664 174.009 663.034C173.526 662.068 172.834 661.306 171.935 660.747C171.045 660.188 169.993 659.909 168.781 659.909C167.446 659.909 166.291 660.241 165.315 660.903C164.349 661.557 163.606 662.409 163.085 663.46C162.564 664.511 162.304 665.638 162.304 666.841V668.773C162.304 670.42 162.588 671.817 163.156 672.963C163.734 674.099 164.534 674.966 165.557 675.562C166.58 676.15 167.768 676.443 169.122 676.443C170.003 676.443 170.798 676.32 171.509 676.074C172.228 675.818 172.848 675.439 173.369 674.938C173.89 674.426 174.293 673.792 174.577 673.034L177.815 673.943C177.474 675.042 176.902 676.008 176.097 676.841C175.292 677.665 174.297 678.309 173.114 678.773C171.93 679.227 170.599 679.455 169.122 679.455ZM183.256 679V657.182H186.608V679H183.256ZM184.96 653.545C184.307 653.545 183.743 653.323 183.27 652.878C182.806 652.433 182.574 651.898 182.574 651.273C182.574 650.648 182.806 650.113 183.27 649.668C183.743 649.223 184.307 649 184.96 649C185.614 649 186.172 649.223 186.636 649.668C187.11 650.113 187.347 650.648 187.347 651.273C187.347 651.898 187.11 652.433 186.636 652.878C186.172 653.323 185.614 653.545 184.96 653.545ZM196.1 649.909V679H192.748V649.909H196.1ZM205.592 649.909V679H202.24V649.909H205.592ZM220.88 679.455C218.778 679.455 216.964 678.991 215.44 678.062C213.924 677.125 212.755 675.818 211.931 674.142C211.117 672.456 210.71 670.496 210.71 668.261C210.71 666.027 211.117 664.057 211.931 662.352C212.755 660.638 213.901 659.303 215.369 658.347C216.846 657.381 218.569 656.898 220.539 656.898C221.675 656.898 222.798 657.087 223.906 657.466C225.013 657.845 226.022 658.46 226.931 659.312C227.84 660.155 228.565 661.273 229.104 662.665C229.644 664.057 229.914 665.771 229.914 667.807V669.227H213.096V666.33H226.505C226.505 665.098 226.259 664 225.766 663.034C225.283 662.068 224.592 661.306 223.692 660.747C222.802 660.188 221.751 659.909 220.539 659.909C219.204 659.909 218.049 660.241 217.073 660.903C216.107 661.557 215.364 662.409 214.843 663.46C214.322 664.511 214.062 665.638 214.062 666.841V668.773C214.062 670.42 214.346 671.817 214.914 672.963C215.492 674.099 216.292 674.966 217.315 675.562C218.337 676.15 219.526 676.443 220.88 676.443C221.761 676.443 222.556 676.32 223.266 676.074C223.986 675.818 224.606 675.439 225.127 674.938C225.648 674.426 226.05 673.792 226.335 673.034L229.573 673.943C229.232 675.042 228.659 676.008 227.854 676.841C227.049 677.665 226.055 678.309 224.871 678.773C223.688 679.227 222.357 679.455 220.88 679.455Z" fill="white"/>
<path d="M52.9318 439.034V435.909H74.75V439.034H65.6023V465H62.0795V439.034H52.9318ZM85.755 448.75C84.5523 448.75 83.4538 448.456 82.4595 447.869C81.4747 447.282 80.6887 446.496 80.1016 445.511C79.5144 444.517 79.2209 443.419 79.2209 442.216C79.2209 441.013 79.5144 439.92 80.1016 438.935C80.6887 437.94 81.4747 437.15 82.4595 436.562C83.4538 435.975 84.5523 435.682 85.755 435.682C86.9576 435.682 88.0514 435.975 89.0362 436.562C90.0305 437.15 90.8213 437.94 91.4084 438.935C91.9955 439.92 92.2891 441.013 92.2891 442.216C92.2891 443.419 91.9955 444.517 91.4084 445.511C90.8213 446.496 90.0305 447.282 89.0362 447.869C88.0514 448.456 86.9576 448.75 85.755 448.75ZM85.755 445.909C86.4368 445.909 87.0571 445.743 87.6158 445.412C88.1745 445.08 88.6196 444.635 88.951 444.077C89.2824 443.518 89.4482 442.898 89.4482 442.216C89.4482 441.534 89.2824 440.914 88.951 440.355C88.6196 439.796 88.1745 439.351 87.6158 439.02C87.0571 438.688 86.4368 438.523 85.755 438.523C85.0732 438.523 84.4529 438.688 83.8942 439.02C83.3355 439.351 82.8904 439.796 82.5589 440.355C82.2275 440.914 82.0618 441.534 82.0618 442.216C82.0618 442.898 82.2275 443.518 82.5589 444.077C82.8904 444.635 83.3355 445.08 83.8942 445.412C84.4529 445.743 85.0732 445.909 85.755 445.909ZM109.146 465V443.182H112.385V446.591H112.669C113.124 445.426 113.857 444.522 114.871 443.878C115.884 443.224 117.101 442.898 118.521 442.898C119.961 442.898 121.159 443.224 122.115 443.878C123.081 444.522 123.834 445.426 124.374 446.591H124.601C125.16 445.464 125.998 444.569 127.115 443.906C128.232 443.234 129.572 442.898 131.135 442.898C133.086 442.898 134.681 443.509 135.922 444.73C137.162 445.942 137.783 447.831 137.783 450.398V465H134.43V450.398C134.43 448.788 133.99 447.637 133.109 446.946C132.229 446.255 131.192 445.909 129.999 445.909C128.464 445.909 127.276 446.373 126.433 447.301C125.59 448.22 125.169 449.384 125.169 450.795V465H121.76V450.057C121.76 448.816 121.357 447.817 120.553 447.06C119.748 446.293 118.711 445.909 117.442 445.909C116.571 445.909 115.756 446.141 114.999 446.605C114.25 447.069 113.644 447.713 113.18 448.537C112.726 449.351 112.499 450.294 112.499 451.364V465H109.146ZM150.332 465.511C148.95 465.511 147.695 465.251 146.568 464.73C145.441 464.2 144.546 463.438 143.884 462.443C143.221 461.439 142.889 460.227 142.889 458.807C142.889 457.557 143.135 456.544 143.628 455.767C144.12 454.981 144.778 454.366 145.602 453.92C146.426 453.475 147.335 453.144 148.33 452.926C149.333 452.699 150.342 452.519 151.355 452.386C152.681 452.216 153.756 452.088 154.58 452.003C155.413 451.908 156.019 451.752 156.398 451.534C156.786 451.316 156.98 450.937 156.98 450.398V450.284C156.98 448.883 156.597 447.794 155.83 447.017C155.072 446.241 153.921 445.852 152.378 445.852C150.777 445.852 149.523 446.203 148.614 446.903C147.705 447.604 147.065 448.352 146.696 449.148L143.514 448.011C144.082 446.686 144.84 445.653 145.787 444.915C146.743 444.167 147.785 443.646 148.912 443.352C150.048 443.049 151.166 442.898 152.264 442.898C152.965 442.898 153.77 442.983 154.679 443.153C155.598 443.314 156.483 443.651 157.335 444.162C158.197 444.673 158.912 445.445 159.48 446.477C160.048 447.509 160.332 448.892 160.332 450.625V465H156.98V462.045H156.81C156.582 462.519 156.204 463.026 155.673 463.565C155.143 464.105 154.438 464.564 153.557 464.943C152.676 465.322 151.601 465.511 150.332 465.511ZM150.844 462.5C152.17 462.5 153.287 462.24 154.196 461.719C155.115 461.198 155.806 460.526 156.27 459.702C156.743 458.878 156.98 458.011 156.98 457.102V454.034C156.838 454.205 156.526 454.361 156.043 454.503C155.569 454.635 155.02 454.754 154.395 454.858C153.779 454.953 153.178 455.038 152.591 455.114C152.013 455.18 151.545 455.237 151.185 455.284C150.313 455.398 149.499 455.582 148.741 455.838C147.993 456.084 147.387 456.458 146.923 456.96C146.469 457.453 146.241 458.125 146.241 458.977C146.241 460.142 146.672 461.023 147.534 461.619C148.405 462.206 149.509 462.5 150.844 462.5ZM168.951 443.182L174.178 452.102L179.406 443.182H183.269L176.224 454.091L183.269 465H179.406L174.178 456.534L168.951 465H165.087L172.019 454.091L165.087 443.182H168.951ZM201.746 461.278C201.045 461.278 200.444 461.027 199.942 460.526C199.44 460.024 199.189 459.422 199.189 458.722C199.189 458.021 199.44 457.42 199.942 456.918C200.444 456.416 201.045 456.165 201.746 456.165C202.446 456.165 203.048 456.416 203.55 456.918C204.052 457.42 204.303 458.021 204.303 458.722C204.303 459.186 204.184 459.612 203.947 460C203.72 460.388 203.412 460.701 203.024 460.938C202.645 461.165 202.219 461.278 201.746 461.278ZM201.746 446.562C201.045 446.562 200.444 446.312 199.942 445.81C199.44 445.308 199.189 444.706 199.189 444.006C199.189 443.305 199.44 442.704 199.942 442.202C200.444 441.7 201.045 441.449 201.746 441.449C202.446 441.449 203.048 441.7 203.55 442.202C204.052 442.704 204.303 443.305 204.303 444.006C204.303 444.47 204.184 444.896 203.947 445.284C203.72 445.672 203.412 445.985 203.024 446.222C202.645 446.449 202.219 446.562 201.746 446.562ZM231.341 465.398C229.466 465.398 227.795 465.076 226.327 464.432C224.868 463.788 223.708 462.893 222.847 461.747C221.994 460.592 221.53 459.252 221.455 457.727H225.034C225.11 458.665 225.432 459.474 226 460.156C226.568 460.829 227.312 461.349 228.23 461.719C229.149 462.088 230.167 462.273 231.284 462.273C232.534 462.273 233.642 462.055 234.608 461.619C235.574 461.184 236.331 460.578 236.881 459.801C237.43 459.025 237.705 458.125 237.705 457.102C237.705 456.032 237.439 455.09 236.909 454.276C236.379 453.452 235.602 452.808 234.58 452.344C233.557 451.88 232.307 451.648 230.83 451.648H228.5V448.523H230.83C231.985 448.523 232.998 448.314 233.869 447.898C234.75 447.481 235.437 446.894 235.929 446.136C236.431 445.379 236.682 444.489 236.682 443.466C236.682 442.481 236.464 441.624 236.028 440.895C235.593 440.166 234.977 439.598 234.182 439.19C233.396 438.783 232.468 438.58 231.398 438.58C230.394 438.58 229.447 438.764 228.557 439.134C227.676 439.493 226.956 440.019 226.398 440.71C225.839 441.392 225.536 442.216 225.489 443.182H222.08C222.136 441.657 222.596 440.322 223.457 439.176C224.319 438.021 225.446 437.121 226.838 436.477C228.24 435.833 229.778 435.511 231.455 435.511C233.254 435.511 234.797 435.876 236.085 436.605C237.373 437.325 238.363 438.277 239.054 439.46C239.745 440.644 240.091 441.922 240.091 443.295C240.091 444.934 239.66 446.33 238.798 447.486C237.946 448.641 236.786 449.441 235.318 449.886V450.114C237.155 450.417 238.59 451.198 239.622 452.457C240.654 453.707 241.17 455.256 241.17 457.102C241.17 458.684 240.74 460.104 239.878 461.364C239.026 462.614 237.861 463.598 236.384 464.318C234.906 465.038 233.225 465.398 231.341 465.398ZM247.889 465L260.901 439.261V439.034H245.901V435.909H264.537V439.205L251.582 465H247.889ZM267.332 465.227C266.631 465.227 266.03 464.976 265.528 464.474C265.026 463.973 264.775 463.371 264.775 462.67C264.775 461.97 265.026 461.368 265.528 460.866C266.03 460.365 266.631 460.114 267.332 460.114C268.032 460.114 268.634 460.365 269.136 460.866C269.638 461.368 269.888 461.97 269.888 462.67C269.888 463.134 269.77 463.561 269.533 463.949C269.306 464.337 268.998 464.65 268.61 464.886C268.231 465.114 267.805 465.227 267.332 465.227ZM276.17 465L289.182 439.261V439.034H274.182V435.909H292.818V439.205L279.864 465H276.17ZM304.192 448.75C302.99 448.75 301.891 448.456 300.897 447.869C299.912 447.282 299.126 446.496 298.539 445.511C297.952 444.517 297.658 443.419 297.658 442.216C297.658 441.013 297.952 439.92 298.539 438.935C299.126 437.94 299.912 437.15 300.897 436.562C301.891 435.975 302.99 435.682 304.192 435.682C305.395 435.682 306.489 435.975 307.474 436.562C308.468 437.15 309.259 437.94 309.846 438.935C310.433 439.92 310.727 441.013 310.727 442.216C310.727 443.419 310.433 444.517 309.846 445.511C309.259 446.496 308.468 447.282 307.474 447.869C306.489 448.456 305.395 448.75 304.192 448.75ZM304.192 445.909C304.874 445.909 305.495 445.743 306.053 445.412C306.612 445.08 307.057 444.635 307.388 444.077C307.72 443.518 307.886 442.898 307.886 442.216C307.886 441.534 307.72 440.914 307.388 440.355C307.057 439.796 306.612 439.351 306.053 439.02C305.495 438.688 304.874 438.523 304.192 438.523C303.511 438.523 302.89 438.688 302.332 439.02C301.773 439.351 301.328 439.796 300.996 440.355C300.665 440.914 300.499 441.534 300.499 442.216C300.499 442.898 300.665 443.518 300.996 444.077C301.328 444.635 301.773 445.08 302.332 445.412C302.89 445.743 303.511 445.909 304.192 445.909ZM339.729 445H336.206C335.998 443.987 335.633 443.097 335.112 442.33C334.601 441.562 333.976 440.919 333.237 440.398C332.508 439.867 331.698 439.47 330.808 439.205C329.918 438.939 328.99 438.807 328.024 438.807C326.263 438.807 324.667 439.252 323.237 440.142C321.817 441.032 320.685 442.344 319.842 444.077C319.009 445.81 318.592 447.936 318.592 450.455C318.592 452.973 319.009 455.099 319.842 456.832C320.685 458.565 321.817 459.877 323.237 460.767C324.667 461.657 326.263 462.102 328.024 462.102C328.99 462.102 329.918 461.97 330.808 461.705C331.698 461.439 332.508 461.046 333.237 460.526C333.976 459.995 334.601 459.347 335.112 458.58C335.633 457.803 335.998 456.913 336.206 455.909H339.729C339.464 457.396 338.981 458.726 338.28 459.901C337.579 461.075 336.708 462.074 335.666 462.898C334.625 463.712 333.455 464.332 332.158 464.759C330.87 465.185 329.492 465.398 328.024 465.398C325.543 465.398 323.337 464.792 321.405 463.58C319.473 462.367 317.953 460.644 316.845 458.409C315.737 456.174 315.183 453.523 315.183 450.455C315.183 447.386 315.737 444.735 316.845 442.5C317.953 440.265 319.473 438.542 321.405 437.33C323.337 436.117 325.543 435.511 328.024 435.511C329.492 435.511 330.87 435.724 332.158 436.151C333.455 436.577 334.625 437.202 335.666 438.026C336.708 438.84 337.579 439.834 338.28 441.009C338.981 442.173 339.464 443.504 339.729 445Z" fill="white"/>
<path d="M52.9318 489.034V485.909H74.75V489.034H65.6023V515H62.0795V489.034H52.9318ZM85.755 498.75C84.5523 498.75 83.4538 498.456 82.4595 497.869C81.4747 497.282 80.6887 496.496 80.1016 495.511C79.5144 494.517 79.2209 493.419 79.2209 492.216C79.2209 491.013 79.5144 489.92 80.1016 488.935C80.6887 487.94 81.4747 487.15 82.4595 486.562C83.4538 485.975 84.5523 485.682 85.755 485.682C86.9576 485.682 88.0514 485.975 89.0362 486.562C90.0305 487.15 90.8213 487.94 91.4084 488.935C91.9955 489.92 92.2891 491.013 92.2891 492.216C92.2891 493.419 91.9955 494.517 91.4084 495.511C90.8213 496.496 90.0305 497.282 89.0362 497.869C88.0514 498.456 86.9576 498.75 85.755 498.75ZM85.755 495.909C86.4368 495.909 87.0571 495.743 87.6158 495.412C88.1745 495.08 88.6196 494.635 88.951 494.077C89.2824 493.518 89.4482 492.898 89.4482 492.216C89.4482 491.534 89.2824 490.914 88.951 490.355C88.6196 489.796 88.1745 489.351 87.6158 489.02C87.0571 488.688 86.4368 488.523 85.755 488.523C85.0732 488.523 84.4529 488.688 83.8942 489.02C83.3355 489.351 82.8904 489.796 82.5589 490.355C82.2275 490.914 82.0618 491.534 82.0618 492.216C82.0618 492.898 82.2275 493.518 82.5589 494.077C82.8904 494.635 83.3355 495.08 83.8942 495.412C84.4529 495.743 85.0732 495.909 85.755 495.909ZM109.146 515V493.182H112.385V496.591H112.669C113.124 495.426 113.857 494.522 114.871 493.878C115.884 493.224 117.101 492.898 118.521 492.898C119.961 492.898 121.159 493.224 122.115 493.878C123.081 494.522 123.834 495.426 124.374 496.591H124.601C125.16 495.464 125.998 494.569 127.115 493.906C128.232 493.234 129.572 492.898 131.135 492.898C133.086 492.898 134.681 493.509 135.922 494.73C137.162 495.942 137.783 497.831 137.783 500.398V515H134.43V500.398C134.43 498.788 133.99 497.637 133.109 496.946C132.229 496.255 131.192 495.909 129.999 495.909C128.464 495.909 127.276 496.373 126.433 497.301C125.59 498.22 125.169 499.384 125.169 500.795V515H121.76V500.057C121.76 498.816 121.357 497.817 120.553 497.06C119.748 496.293 118.711 495.909 117.442 495.909C116.571 495.909 115.756 496.141 114.999 496.605C114.25 497.069 113.644 497.713 113.18 498.537C112.726 499.351 112.499 500.294 112.499 501.364V515H109.146ZM143.912 515V493.182H147.264V515H143.912ZM145.616 489.545C144.963 489.545 144.4 489.323 143.926 488.878C143.462 488.433 143.23 487.898 143.23 487.273C143.23 486.648 143.462 486.113 143.926 485.668C144.4 485.223 144.963 485 145.616 485C146.27 485 146.829 485.223 147.293 485.668C147.766 486.113 148.003 486.648 148.003 487.273C148.003 487.898 147.766 488.433 147.293 488.878C146.829 489.323 146.27 489.545 145.616 489.545ZM156.756 501.875V515H153.404V493.182H156.643V496.591H156.927C157.438 495.483 158.215 494.593 159.256 493.92C160.298 493.239 161.643 492.898 163.29 492.898C164.768 492.898 166.06 493.201 167.168 493.807C168.276 494.403 169.138 495.312 169.754 496.534C170.369 497.746 170.677 499.28 170.677 501.136V515H167.325V501.364C167.325 499.65 166.879 498.314 165.989 497.358C165.099 496.392 163.878 495.909 162.325 495.909C161.254 495.909 160.298 496.141 159.455 496.605C158.622 497.069 157.964 497.746 157.481 498.636C156.998 499.527 156.756 500.606 156.756 501.875ZM190.496 511.278C189.795 511.278 189.194 511.027 188.692 510.526C188.19 510.024 187.939 509.422 187.939 508.722C187.939 508.021 188.19 507.42 188.692 506.918C189.194 506.416 189.795 506.165 190.496 506.165C191.196 506.165 191.798 506.416 192.3 506.918C192.802 507.42 193.053 508.021 193.053 508.722C193.053 509.186 192.934 509.612 192.697 510C192.47 510.388 192.162 510.701 191.774 510.938C191.395 511.165 190.969 511.278 190.496 511.278ZM190.496 496.562C189.795 496.562 189.194 496.312 188.692 495.81C188.19 495.308 187.939 494.706 187.939 494.006C187.939 493.305 188.19 492.704 188.692 492.202C189.194 491.7 189.795 491.449 190.496 491.449C191.196 491.449 191.798 491.7 192.3 492.202C192.802 492.704 193.053 493.305 193.053 494.006C193.053 494.47 192.934 494.896 192.697 495.284C192.47 495.672 192.162 495.985 191.774 496.222C191.395 496.449 190.969 496.562 190.496 496.562ZM220.489 485.909V515H216.966V489.602H216.795L209.693 494.318V490.739L216.966 485.909H220.489ZM238.685 515.398C236.81 515.398 235.138 515.076 233.67 514.432C232.212 513.788 231.052 512.893 230.19 511.747C229.338 510.592 228.874 509.252 228.798 507.727H232.378C232.454 508.665 232.776 509.474 233.344 510.156C233.912 510.829 234.655 511.349 235.574 511.719C236.492 512.088 237.51 512.273 238.628 512.273C239.878 512.273 240.986 512.055 241.952 511.619C242.918 511.184 243.675 510.578 244.224 509.801C244.774 509.025 245.048 508.125 245.048 507.102C245.048 506.032 244.783 505.09 244.253 504.276C243.723 503.452 242.946 502.808 241.923 502.344C240.901 501.88 239.651 501.648 238.173 501.648H235.844V498.523H238.173C239.329 498.523 240.342 498.314 241.213 497.898C242.094 497.481 242.78 496.894 243.273 496.136C243.775 495.379 244.026 494.489 244.026 493.466C244.026 492.481 243.808 491.624 243.372 490.895C242.937 490.166 242.321 489.598 241.526 489.19C240.74 488.783 239.812 488.58 238.741 488.58C237.738 488.58 236.791 488.764 235.901 489.134C235.02 489.493 234.3 490.019 233.741 490.71C233.183 491.392 232.88 492.216 232.832 493.182H229.423C229.48 491.657 229.939 490.322 230.801 489.176C231.663 488.021 232.79 487.121 234.182 486.477C235.583 485.833 237.122 485.511 238.798 485.511C240.598 485.511 242.141 485.876 243.429 486.605C244.717 487.325 245.706 488.277 246.398 489.46C247.089 490.644 247.435 491.922 247.435 493.295C247.435 494.934 247.004 496.33 246.142 497.486C245.29 498.641 244.13 499.441 242.662 499.886V500.114C244.499 500.417 245.934 501.198 246.966 502.457C247.998 503.707 248.514 505.256 248.514 507.102C248.514 508.684 248.083 510.104 247.222 511.364C246.369 512.614 245.205 513.598 243.727 514.318C242.25 515.038 240.569 515.398 238.685 515.398ZM255.925 515.227C255.225 515.227 254.623 514.976 254.121 514.474C253.62 513.973 253.369 513.371 253.369 512.67C253.369 511.97 253.62 511.368 254.121 510.866C254.623 510.365 255.225 510.114 255.925 510.114C256.626 510.114 257.228 510.365 257.729 510.866C258.231 511.368 258.482 511.97 258.482 512.67C258.482 513.134 258.364 513.561 258.127 513.949C257.9 514.337 257.592 514.65 257.204 514.886C256.825 515.114 256.399 515.227 255.925 515.227ZM264.764 515L277.776 489.261V489.034H262.776V485.909H281.412V489.205L268.457 515H264.764ZM292.786 498.75C291.584 498.75 290.485 498.456 289.491 497.869C288.506 497.282 287.72 496.496 287.133 495.511C286.546 494.517 286.252 493.419 286.252 492.216C286.252 491.013 286.546 489.92 287.133 488.935C287.72 487.94 288.506 487.15 289.491 486.562C290.485 485.975 291.584 485.682 292.786 485.682C293.989 485.682 295.083 485.975 296.067 486.562C297.062 487.15 297.853 487.94 298.44 488.935C299.027 489.92 299.32 491.013 299.32 492.216C299.32 493.419 299.027 494.517 298.44 495.511C297.853 496.496 297.062 497.282 296.067 497.869C295.083 498.456 293.989 498.75 292.786 498.75ZM292.786 495.909C293.468 495.909 294.088 495.743 294.647 495.412C295.206 495.08 295.651 494.635 295.982 494.077C296.314 493.518 296.479 492.898 296.479 492.216C296.479 491.534 296.314 490.914 295.982 490.355C295.651 489.796 295.206 489.351 294.647 489.02C294.088 488.688 293.468 488.523 292.786 488.523C292.104 488.523 291.484 488.688 290.925 489.02C290.367 489.351 289.922 489.796 289.59 490.355C289.259 490.914 289.093 491.534 289.093 492.216C289.093 492.898 289.259 493.518 289.59 494.077C289.922 494.635 290.367 495.08 290.925 495.412C291.484 495.743 292.104 495.909 292.786 495.909ZM328.322 495H324.8C324.591 493.987 324.227 493.097 323.706 492.33C323.195 491.562 322.57 490.919 321.831 490.398C321.102 489.867 320.292 489.47 319.402 489.205C318.512 488.939 317.584 488.807 316.618 488.807C314.857 488.807 313.261 489.252 311.831 490.142C310.411 491.032 309.279 492.344 308.436 494.077C307.603 495.81 307.186 497.936 307.186 500.455C307.186 502.973 307.603 505.099 308.436 506.832C309.279 508.565 310.411 509.877 311.831 510.767C313.261 511.657 314.857 512.102 316.618 512.102C317.584 512.102 318.512 511.97 319.402 511.705C320.292 511.439 321.102 511.046 321.831 510.526C322.57 509.995 323.195 509.347 323.706 508.58C324.227 507.803 324.591 506.913 324.8 505.909H328.322C328.057 507.396 327.574 508.726 326.874 509.901C326.173 511.075 325.302 512.074 324.26 512.898C323.218 513.712 322.049 514.332 320.751 514.759C319.464 515.185 318.086 515.398 316.618 515.398C314.137 515.398 311.93 514.792 309.999 513.58C308.067 512.367 306.547 510.644 305.439 508.409C304.331 506.174 303.777 503.523 303.777 500.455C303.777 497.386 304.331 494.735 305.439 492.5C306.547 490.265 308.067 488.542 309.999 487.33C311.93 486.117 314.137 485.511 316.618 485.511C318.086 485.511 319.464 485.724 320.751 486.151C322.049 486.577 323.218 487.202 324.26 488.026C325.302 488.84 326.173 489.834 326.874 491.009C327.574 492.173 328.057 493.504 328.322 495Z" fill="white"/>
<path d="M72.1458 204.54L72.1426 204.536C71.9139 204.273 71.6808 204.006 71.4442 203.735C68.8088 200.713 65.7265 197.178 63.2241 193.387C60.4934 189.249 58.5 184.872 58.5 180.592C58.5 172.411 65.3791 165.5 73.4831 165.5C78.1783 165.5 81.8391 167.231 84.3296 169.962C86.8258 172.699 88.1748 176.472 88.1748 180.592C88.1748 184.686 86.333 189.168 83.8028 193.406C81.2789 197.633 78.1057 201.561 75.5164 204.536L75.5164 204.536L75.5127 204.541C75.5136 204.54 75.513 204.54 75.5111 204.542C75.4895 204.566 75.3004 204.769 75.0078 204.972C74.684 205.197 74.2869 205.383 73.8806 205.383H73.7835C73.3777 205.383 72.9791 205.197 72.6535 204.972C72.362 204.771 72.1725 204.568 72.1484 204.543C72.1468 204.541 72.1459 204.54 72.1458 204.54Z" fill="white" stroke="white"/>
<ellipse cx="73" cy="181.5" rx="10" ry="10.5" fill="#8EC9FF"/>
<line x1="193" y1="782" x2="345" y2="782" stroke="white" stroke-width="6"/>
<ellipse cx="240.5" cy="798" rx="6.5" ry="6" fill="white" fill-opacity="0.51"/>
<ellipse cx="269.5" cy="798" rx="6.5" ry="6" fill="white" fill-opacity="0.51"/>
<ellipse cx="298.5" cy="798" rx="6.5" ry="6" fill="white" fill-opacity="0.51"/>
<defs>
<linearGradient id="paint0_linear_402_5" x1="380.145" y1="292.617" x2="408.855" y2="342.383" gradientUnits="userSpaceOnUse">
<stop stop-color="#FBBF24"/>
<stop offset="0.5" stop-color="#FBBF24"/>
<stop offset="1" stop-color="#F59E0B"/>
</linearGradient>
<linearGradient id="paint1_linear_402_5" x1="395.145" y1="686.617" x2="423.855" y2="736.383" gradientUnits="userSpaceOnUse">
<stop stop-color="#FBBF24"/>
<stop offset="0.5" stop-color="#FBBF24"/>
<stop offset="1" stop-color="#F59E0B"/>
</linearGradient>
</defs>
</svg>
