<svg width="539" height="1171" viewBox="0 0 539 1171" fill="none" xmlns="http://www.w3.org/2000/svg">
<g clip-path="url(#clip0_808_17)">
<rect width="539" height="1171" rx="15" fill="white"/>
<path d="M45.8569 89L50.1426 93.2857" stroke="#BDBDBD" stroke-width="5" stroke-linecap="round" stroke-linejoin="round"/>
<path d="M47.9999 82.9286C47.9999 87.4653 44.3222 91.1429 39.7856 91.1429C35.2489 91.1429 31.5713 87.4653 31.5713 82.9286C31.5713 78.392 35.2489 74.7144 39.7856 74.7144C44.3222 74.7144 47.9999 78.392 47.9999 82.9286Z" stroke="#BDBDBD" stroke-width="5"/>
<path d="M114.432 82.1818C114.261 80.7424 113.57 79.625 112.358 78.8295C111.146 78.0341 109.659 77.6364 107.898 77.6364C106.61 77.6364 105.483 77.8447 104.517 78.2614C103.561 78.678 102.813 79.2509 102.273 79.9801C101.742 80.7093 101.477 81.5379 101.477 82.4659C101.477 83.2424 101.662 83.91 102.031 84.4688C102.41 85.018 102.893 85.4773 103.48 85.8466C104.067 86.2064 104.683 86.5047 105.327 86.7415C105.971 86.9687 106.562 87.1534 107.102 87.2955L110.057 88.0909C110.814 88.2898 111.657 88.5644 112.585 88.9148C113.523 89.2652 114.418 89.7434 115.27 90.3494C116.132 90.946 116.842 91.7131 117.401 92.6506C117.959 93.5881 118.239 94.7386 118.239 96.1023C118.239 97.6742 117.827 99.0947 117.003 100.364C116.188 101.633 114.995 102.641 113.423 103.389C111.861 104.137 109.962 104.511 107.727 104.511C105.644 104.511 103.84 104.175 102.315 103.503C100.8 102.83 99.607 101.893 98.7358 100.69C97.8741 99.4877 97.3864 98.0909 97.2727 96.5H100.909C101.004 97.5985 101.373 98.5076 102.017 99.2273C102.67 99.9375 103.494 100.468 104.489 100.818C105.492 101.159 106.572 101.33 107.727 101.33C109.072 101.33 110.279 101.112 111.349 100.676C112.42 100.231 113.267 99.6155 113.892 98.8295C114.517 98.0341 114.83 97.1061 114.83 96.0455C114.83 95.0795 114.56 94.2936 114.02 93.6875C113.48 93.0814 112.77 92.589 111.889 92.2102C111.009 91.8314 110.057 91.5 109.034 91.2159L105.455 90.1932C103.182 89.5398 101.383 88.607 100.057 87.3949C98.7311 86.1828 98.0682 84.5966 98.0682 82.6364C98.0682 81.0076 98.5085 79.5871 99.3892 78.375C100.279 77.1534 101.473 76.2064 102.969 75.5341C104.474 74.8523 106.155 74.5114 108.011 74.5114C109.886 74.5114 111.553 74.8475 113.011 75.5199C114.47 76.1828 115.625 77.0919 116.477 78.2472C117.339 79.4025 117.794 80.714 117.841 82.1818H114.432ZM132.724 104.455C130.621 104.455 128.808 103.991 127.283 103.062C125.768 102.125 124.599 100.818 123.775 99.142C122.96 97.4564 122.553 95.4962 122.553 93.2614C122.553 91.0265 122.96 89.0568 123.775 87.3523C124.599 85.6383 125.745 84.303 127.212 83.3466C128.69 82.3807 130.413 81.8977 132.383 81.8977C133.519 81.8977 134.641 82.0871 135.749 82.4659C136.857 82.8447 137.866 83.4602 138.775 84.3125C139.684 85.1553 140.408 86.2727 140.948 87.6648C141.488 89.0568 141.758 90.7708 141.758 92.8068V94.2273H124.94V91.3295H138.349C138.349 90.0985 138.103 89 137.61 88.0341C137.127 87.0682 136.436 86.3059 135.536 85.7472C134.646 85.1884 133.595 84.9091 132.383 84.9091C131.048 84.9091 129.892 85.2405 128.917 85.9034C127.951 86.5568 127.208 87.4091 126.687 88.4602C126.166 89.5114 125.906 90.6383 125.906 91.8409V93.7727C125.906 95.4205 126.19 96.8172 126.758 97.9631C127.335 99.0994 128.136 99.9659 129.158 100.562C130.181 101.15 131.37 101.443 132.724 101.443C133.604 101.443 134.4 101.32 135.11 101.074C135.83 100.818 136.45 100.439 136.971 99.9375C137.492 99.4261 137.894 98.7917 138.178 98.0341L141.417 98.9432C141.076 100.042 140.503 101.008 139.698 101.841C138.893 102.665 137.899 103.309 136.715 103.773C135.531 104.227 134.201 104.455 132.724 104.455ZM153.278 104.511C151.895 104.511 150.64 104.251 149.513 103.73C148.387 103.2 147.492 102.438 146.829 101.443C146.166 100.439 145.835 99.2273 145.835 97.8068C145.835 96.5568 146.081 95.5436 146.573 94.767C147.066 93.9811 147.724 93.3655 148.548 92.9205C149.371 92.4754 150.281 92.1439 151.275 91.9261C152.279 91.6989 153.287 91.5189 154.3 91.3864C155.626 91.2159 156.701 91.0881 157.525 91.0028C158.358 90.9081 158.964 90.7519 159.343 90.5341C159.731 90.3163 159.925 89.9375 159.925 89.3977V89.2841C159.925 87.8826 159.542 86.7936 158.775 86.017C158.017 85.2405 156.867 84.8523 155.323 84.8523C153.723 84.8523 152.468 85.2027 151.559 85.9034C150.65 86.6042 150.011 87.3523 149.641 88.1477L146.46 87.0114C147.028 85.6856 147.785 84.6534 148.732 83.9148C149.689 83.1667 150.73 82.6458 151.857 82.3523C152.994 82.0492 154.111 81.8977 155.21 81.8977C155.91 81.8977 156.715 81.983 157.624 82.1534C158.543 82.3144 159.428 82.6506 160.281 83.1619C161.142 83.6733 161.857 84.4451 162.425 85.4773C162.994 86.5095 163.278 87.892 163.278 89.625V104H159.925V101.045H159.755C159.528 101.519 159.149 102.026 158.619 102.565C158.088 103.105 157.383 103.564 156.502 103.943C155.621 104.322 154.547 104.511 153.278 104.511ZM153.789 101.5C155.115 101.5 156.232 101.24 157.141 100.719C158.06 100.198 158.751 99.5256 159.215 98.7017C159.689 97.8778 159.925 97.0114 159.925 96.1023V93.0341C159.783 93.2045 159.471 93.3608 158.988 93.5028C158.514 93.6354 157.965 93.7538 157.34 93.858C156.725 93.9527 156.123 94.0379 155.536 94.1136C154.959 94.1799 154.49 94.2367 154.13 94.2841C153.259 94.3977 152.444 94.5824 151.687 94.8381C150.939 95.0843 150.333 95.4583 149.869 95.9602C149.414 96.4527 149.187 97.125 149.187 97.9773C149.187 99.142 149.618 100.023 150.479 100.619C151.351 101.206 152.454 101.5 153.789 101.5ZM169.396 104V82.1818H172.635V85.4773H172.862C173.26 84.3977 173.98 83.5218 175.021 82.8494C176.063 82.1771 177.237 81.8409 178.544 81.8409C178.79 81.8409 179.098 81.8456 179.467 81.8551C179.837 81.8646 180.116 81.8788 180.305 81.8977V85.3068C180.192 85.2784 179.931 85.2358 179.524 85.179C179.126 85.1127 178.705 85.0795 178.26 85.0795C177.199 85.0795 176.252 85.3021 175.419 85.7472C174.595 86.1828 173.942 86.7888 173.459 87.5653C172.985 88.3324 172.749 89.2083 172.749 90.1932V104H169.396ZM192.479 104.455C190.433 104.455 188.672 103.972 187.195 103.006C185.717 102.04 184.581 100.709 183.786 99.0142C182.99 97.3191 182.592 95.3826 182.592 93.2045C182.592 90.9886 183 89.0331 183.814 87.3381C184.638 85.6335 185.784 84.303 187.251 83.3466C188.729 82.3807 190.452 81.8977 192.422 81.8977C193.956 81.8977 195.339 82.1818 196.57 82.75C197.801 83.3182 198.809 84.1136 199.595 85.1364C200.381 86.1591 200.869 87.3523 201.058 88.7159H197.706C197.45 87.7216 196.882 86.8409 196.001 86.0739C195.13 85.2973 193.956 84.9091 192.479 84.9091C191.172 84.9091 190.026 85.25 189.041 85.9318C188.066 86.6042 187.304 87.5559 186.754 88.7869C186.214 90.0085 185.945 91.4432 185.945 93.0909C185.945 94.7765 186.21 96.2443 186.74 97.4943C187.28 98.7443 188.037 99.715 189.013 100.406C189.998 101.098 191.153 101.443 192.479 101.443C193.35 101.443 194.141 101.292 194.851 100.989C195.561 100.686 196.162 100.25 196.655 99.6818C197.147 99.1136 197.498 98.4318 197.706 97.6364H201.058C200.869 98.9242 200.4 100.084 199.652 101.116C198.913 102.139 197.933 102.954 196.712 103.56C195.5 104.156 194.089 104.455 192.479 104.455ZM209.311 90.875V104H205.959V74.9091H209.311V85.5909H209.595C210.107 84.464 210.874 83.5691 211.896 82.9062C212.929 82.2339 214.302 81.8977 216.016 81.8977C217.502 81.8977 218.804 82.196 219.922 82.7926C221.039 83.3797 221.906 84.2841 222.521 85.5057C223.146 86.7178 223.459 88.2614 223.459 90.1364V104H220.107V90.3636C220.107 88.6307 219.657 87.2907 218.757 86.3438C217.867 85.3873 216.631 84.9091 215.05 84.9091C213.951 84.9091 212.966 85.1411 212.095 85.6051C211.233 86.0691 210.552 86.7462 210.05 87.6364C209.557 88.5265 209.311 89.6061 209.311 90.875Z" fill="#BDBDBD"/>
<path d="M56.066 146.966L49.631 170H44.186L39.863 153.599L35.342 170L29.93 170.033L23.726 146.966H28.676L32.735 164.852L37.421 146.966H42.569L46.991 164.753L51.083 146.966H56.066ZM76.0777 160.463C76.0777 161.123 76.0337 161.717 75.9457 162.245H62.5807C62.6907 163.565 63.1527 164.599 63.9667 165.347C64.7807 166.095 65.7817 166.469 66.9697 166.469C68.6857 166.469 69.9067 165.732 70.6327 164.258H75.6157C75.0877 166.018 74.0757 167.47 72.5797 168.614C71.0837 169.736 69.2467 170.297 67.0687 170.297C65.3087 170.297 63.7247 169.912 62.3167 169.142C60.9307 168.35 59.8417 167.239 59.0497 165.809C58.2797 164.379 57.8947 162.729 57.8947 160.859C57.8947 158.967 58.2797 157.306 59.0497 155.876C59.8197 154.446 60.8977 153.346 62.2837 152.576C63.6697 151.806 65.2647 151.421 67.0687 151.421C68.8067 151.421 70.3577 151.795 71.7217 152.543C73.1077 153.291 74.1747 154.358 74.9227 155.744C75.6927 157.108 76.0777 158.681 76.0777 160.463ZM71.2927 159.143C71.2707 157.955 70.8417 157.009 70.0057 156.305C69.1697 155.579 68.1467 155.216 66.9367 155.216C65.7927 155.216 64.8247 155.568 64.0327 156.272C63.2627 156.954 62.7897 157.911 62.6137 159.143H71.2927ZM84.0699 145.58V170H79.4499V145.58H84.0699ZM87.4464 160.859C87.4464 158.967 87.8314 157.317 88.6014 155.909C89.3714 154.479 90.4384 153.379 91.8024 152.609C93.1664 151.817 94.7284 151.421 96.4884 151.421C98.7544 151.421 100.624 151.993 102.098 153.137C103.594 154.259 104.595 155.843 105.101 157.889H100.118C99.8544 157.097 99.4034 156.481 98.7654 156.041C98.1494 155.579 97.3794 155.348 96.4554 155.348C95.1354 155.348 94.0904 155.832 93.3204 156.8C92.5504 157.746 92.1654 159.099 92.1654 160.859C92.1654 162.597 92.5504 163.95 93.3204 164.918C94.0904 165.864 95.1354 166.337 96.4554 166.337C98.3254 166.337 99.5464 165.501 100.118 163.829H105.101C104.595 165.809 103.594 167.382 102.098 168.548C100.602 169.714 98.7324 170.297 96.4884 170.297C94.7284 170.297 93.1664 169.912 91.8024 169.142C90.4384 168.35 89.3714 167.25 88.6014 165.842C87.8314 164.412 87.4464 162.751 87.4464 160.859ZM116.604 170.297C114.844 170.297 113.26 169.912 111.852 169.142C110.444 168.35 109.333 167.239 108.519 165.809C107.727 164.379 107.331 162.729 107.331 160.859C107.331 158.989 107.738 157.339 108.552 155.909C109.388 154.479 110.521 153.379 111.951 152.609C113.381 151.817 114.976 151.421 116.736 151.421C118.496 151.421 120.091 151.817 121.521 152.609C122.951 153.379 124.073 154.479 124.887 155.909C125.723 157.339 126.141 158.989 126.141 160.859C126.141 162.729 125.712 164.379 124.854 165.809C124.018 167.239 122.874 168.35 121.422 169.142C119.992 169.912 118.386 170.297 116.604 170.297ZM116.604 166.271C117.44 166.271 118.221 166.073 118.947 165.677C119.695 165.259 120.289 164.643 120.729 163.829C121.169 163.015 121.389 162.025 121.389 160.859C121.389 159.121 120.927 157.79 120.003 156.866C119.101 155.92 117.99 155.447 116.67 155.447C115.35 155.447 114.239 155.92 113.337 156.866C112.457 157.79 112.017 159.121 112.017 160.859C112.017 162.597 112.446 163.939 113.304 164.885C114.184 165.809 115.284 166.271 116.604 166.271ZM152.234 151.454C154.478 151.454 156.282 152.147 157.646 153.533C159.032 154.897 159.725 156.811 159.725 159.275V170H155.105V159.902C155.105 158.472 154.742 157.383 154.016 156.635C153.29 155.865 152.3 155.48 151.046 155.48C149.792 155.48 148.791 155.865 148.043 156.635C147.317 157.383 146.954 158.472 146.954 159.902V170H142.334V159.902C142.334 158.472 141.971 157.383 141.245 156.635C140.519 155.865 139.529 155.48 138.275 155.48C136.999 155.48 135.987 155.865 135.239 156.635C134.513 157.383 134.15 158.472 134.15 159.902V170H129.53V151.718H134.15V153.929C134.744 153.159 135.503 152.554 136.427 152.114C137.373 151.674 138.407 151.454 139.529 151.454C140.959 151.454 142.235 151.762 143.357 152.378C144.479 152.972 145.348 153.83 145.964 154.952C146.558 153.896 147.416 153.049 148.538 152.411C149.682 151.773 150.914 151.454 152.234 151.454ZM181.104 160.463C181.104 161.123 181.06 161.717 180.972 162.245H167.607C167.717 163.565 168.179 164.599 168.993 165.347C169.807 166.095 170.808 166.469 171.996 166.469C173.712 166.469 174.933 165.732 175.659 164.258H180.642C180.114 166.018 179.102 167.47 177.606 168.614C176.11 169.736 174.273 170.297 172.095 170.297C170.335 170.297 168.751 169.912 167.343 169.142C165.957 168.35 164.868 167.239 164.076 165.809C163.306 164.379 162.921 162.729 162.921 160.859C162.921 158.967 163.306 157.306 164.076 155.876C164.846 154.446 165.924 153.346 167.31 152.576C168.696 151.806 170.291 151.421 172.095 151.421C173.833 151.421 175.384 151.795 176.748 152.543C178.134 153.291 179.201 154.358 179.949 155.744C180.719 157.108 181.104 158.681 181.104 160.463ZM176.319 159.143C176.297 157.955 175.868 157.009 175.032 156.305C174.196 155.579 173.173 155.216 171.963 155.216C170.819 155.216 169.851 155.568 169.059 156.272C168.289 156.954 167.816 157.911 167.64 159.143H176.319ZM196.96 154.391C197.554 153.511 198.368 152.796 199.402 152.246C200.458 151.696 201.657 151.421 202.999 151.421C204.561 151.421 205.969 151.806 207.223 152.576C208.499 153.346 209.5 154.446 210.226 155.876C210.974 157.284 211.348 158.923 211.348 160.793C211.348 162.663 210.974 164.324 210.226 165.776C209.5 167.206 208.499 168.317 207.223 169.109C205.969 169.901 204.561 170.297 202.999 170.297C201.635 170.297 200.436 170.033 199.402 169.505C198.39 168.955 197.576 168.251 196.96 167.393V170H192.34V145.58H196.96V154.391ZM206.629 160.793C206.629 159.693 206.398 158.747 205.936 157.955C205.496 157.141 204.902 156.525 204.154 156.107C203.428 155.689 202.636 155.48 201.778 155.48C200.942 155.48 200.15 155.7 199.402 156.14C198.676 156.558 198.082 157.174 197.62 157.988C197.18 158.802 196.96 159.759 196.96 160.859C196.96 161.959 197.18 162.916 197.62 163.73C198.082 164.544 198.676 165.171 199.402 165.611C200.15 166.029 200.942 166.238 201.778 166.238C202.636 166.238 203.428 166.018 204.154 165.578C204.902 165.138 205.496 164.511 205.936 163.697C206.398 162.883 206.629 161.915 206.629 160.793ZM213.517 160.793C213.517 158.945 213.88 157.306 214.606 155.876C215.354 154.446 216.355 153.346 217.609 152.576C218.885 151.806 220.304 151.421 221.866 151.421C223.23 151.421 224.418 151.696 225.43 152.246C226.464 152.796 227.289 153.489 227.905 154.325V151.718H232.558V170H227.905V167.327C227.311 168.185 226.486 168.9 225.43 169.472C224.396 170.022 223.197 170.297 221.833 170.297C220.293 170.297 218.885 169.901 217.609 169.109C216.355 168.317 215.354 167.206 214.606 165.776C213.88 164.324 213.517 162.663 213.517 160.793ZM227.905 160.859C227.905 159.737 227.685 158.78 227.245 157.988C226.805 157.174 226.211 156.558 225.463 156.14C224.715 155.7 223.912 155.48 223.054 155.48C222.196 155.48 221.404 155.689 220.678 156.107C219.952 156.525 219.358 157.141 218.896 157.955C218.456 158.747 218.236 159.693 218.236 160.793C218.236 161.893 218.456 162.861 218.896 163.697C219.358 164.511 219.952 165.138 220.678 165.578C221.426 166.018 222.218 166.238 223.054 166.238C223.912 166.238 224.715 166.029 225.463 165.611C226.211 165.171 226.805 164.555 227.245 163.763C227.685 162.949 227.905 161.981 227.905 160.859ZM235.882 160.859C235.882 158.967 236.267 157.317 237.037 155.909C237.807 154.479 238.874 153.379 240.238 152.609C241.602 151.817 243.164 151.421 244.924 151.421C247.19 151.421 249.06 151.993 250.534 153.137C252.03 154.259 253.031 155.843 253.537 157.889H248.554C248.29 157.097 247.839 156.481 247.201 156.041C246.585 155.579 245.815 155.348 244.891 155.348C243.571 155.348 242.526 155.832 241.756 156.8C240.986 157.746 240.601 159.099 240.601 160.859C240.601 162.597 240.986 163.95 241.756 164.918C242.526 165.864 243.571 166.337 244.891 166.337C246.761 166.337 247.982 165.501 248.554 163.829H253.537C253.031 165.809 252.03 167.382 250.534 168.548C249.038 169.714 247.168 170.297 244.924 170.297C243.164 170.297 241.602 169.912 240.238 169.142C238.874 168.35 237.807 167.25 237.037 165.842C236.267 164.412 235.882 162.751 235.882 160.859ZM267.746 170L261.542 162.212V170H256.922V145.58H261.542V159.473L267.68 151.718H273.686L265.634 160.892L273.752 170H267.746ZM294.88 170L288.676 162.212V170H284.056V145.58H288.676V159.473L294.814 151.718H300.82L292.768 160.892L300.886 170H294.88ZM320.323 160.463C320.323 161.123 320.279 161.717 320.191 162.245H306.826C306.936 163.565 307.398 164.599 308.212 165.347C309.026 166.095 310.027 166.469 311.215 166.469C312.931 166.469 314.152 165.732 314.878 164.258H319.861C319.333 166.018 318.321 167.47 316.825 168.614C315.329 169.736 313.492 170.297 311.314 170.297C309.554 170.297 307.97 169.912 306.562 169.142C305.176 168.35 304.087 167.239 303.295 165.809C302.525 164.379 302.14 162.729 302.14 160.859C302.14 158.967 302.525 157.306 303.295 155.876C304.065 154.446 305.143 153.346 306.529 152.576C307.915 151.806 309.51 151.421 311.314 151.421C313.052 151.421 314.603 151.795 315.967 152.543C317.353 153.291 318.42 154.358 319.168 155.744C319.938 157.108 320.323 158.681 320.323 160.463ZM315.538 159.143C315.516 157.955 315.087 157.009 314.251 156.305C313.415 155.579 312.392 155.216 311.182 155.216C310.038 155.216 309.07 155.568 308.278 156.272C307.508 156.954 307.035 157.911 306.859 159.143H315.538ZM340.69 160.463C340.69 161.123 340.646 161.717 340.558 162.245H327.193C327.303 163.565 327.765 164.599 328.579 165.347C329.393 166.095 330.394 166.469 331.582 166.469C333.298 166.469 334.519 165.732 335.245 164.258H340.228C339.7 166.018 338.688 167.47 337.192 168.614C335.696 169.736 333.859 170.297 331.681 170.297C329.921 170.297 328.337 169.912 326.929 169.142C325.543 168.35 324.454 167.239 323.662 165.809C322.892 164.379 322.507 162.729 322.507 160.859C322.507 158.967 322.892 157.306 323.662 155.876C324.432 154.446 325.51 153.346 326.896 152.576C328.282 151.806 329.877 151.421 331.681 151.421C333.419 151.421 334.97 151.795 336.334 152.543C337.72 153.291 338.787 154.358 339.535 155.744C340.305 157.108 340.69 158.681 340.69 160.463ZM335.905 159.143C335.883 157.955 335.454 157.009 334.618 156.305C333.782 155.579 332.759 155.216 331.549 155.216C330.405 155.216 329.437 155.568 328.645 156.272C327.875 156.954 327.402 157.911 327.226 159.143H335.905ZM348.682 154.358C349.276 153.522 350.09 152.829 351.124 152.279C352.18 151.707 353.379 151.421 354.721 151.421C356.283 151.421 357.691 151.806 358.945 152.576C360.221 153.346 361.222 154.446 361.948 155.876C362.696 157.284 363.07 158.923 363.07 160.793C363.07 162.663 362.696 164.324 361.948 165.776C361.222 167.206 360.221 168.317 358.945 169.109C357.691 169.901 356.283 170.297 354.721 170.297C353.379 170.297 352.191 170.022 351.157 169.472C350.145 168.922 349.32 168.229 348.682 167.393V178.712H344.062V151.718H348.682V154.358ZM358.351 160.793C358.351 159.693 358.12 158.747 357.658 157.955C357.218 157.141 356.624 156.525 355.876 156.107C355.15 155.689 354.358 155.48 353.5 155.48C352.664 155.48 351.872 155.7 351.124 156.14C350.398 156.558 349.804 157.174 349.342 157.988C348.902 158.802 348.682 159.759 348.682 160.859C348.682 161.959 348.902 162.916 349.342 163.73C349.804 164.544 350.398 165.171 351.124 165.611C351.872 166.029 352.664 166.238 353.5 166.238C354.358 166.238 355.15 166.018 355.876 165.578C356.624 165.138 357.218 164.511 357.658 163.697C358.12 162.883 358.351 161.915 358.351 160.793ZM383.422 160.463C383.422 161.123 383.378 161.717 383.29 162.245H369.925C370.035 163.565 370.497 164.599 371.311 165.347C372.125 166.095 373.126 166.469 374.314 166.469C376.03 166.469 377.251 165.732 377.977 164.258H382.96C382.432 166.018 381.42 167.47 379.924 168.614C378.428 169.736 376.591 170.297 374.413 170.297C372.653 170.297 371.069 169.912 369.661 169.142C368.275 168.35 367.186 167.239 366.394 165.809C365.624 164.379 365.239 162.729 365.239 160.859C365.239 158.967 365.624 157.306 366.394 155.876C367.164 154.446 368.242 153.346 369.628 152.576C371.014 151.806 372.609 151.421 374.413 151.421C376.151 151.421 377.702 151.795 379.066 152.543C380.452 153.291 381.519 154.358 382.267 155.744C383.037 157.108 383.422 158.681 383.422 160.463ZM378.637 159.143C378.615 157.955 378.186 157.009 377.35 156.305C376.514 155.579 375.491 155.216 374.281 155.216C373.137 155.216 372.169 155.568 371.377 156.272C370.607 156.954 370.134 157.911 369.958 159.143H378.637ZM391.415 154.556C392.009 153.588 392.779 152.829 393.725 152.279C394.693 151.729 395.793 151.454 397.025 151.454V156.305H395.804C394.352 156.305 393.252 156.646 392.504 157.328C391.778 158.01 391.415 159.198 391.415 160.892V170H386.795V151.718H391.415V154.556ZM413.973 146.57L413.445 162.509H409.551L408.99 146.57H413.973ZM411.597 170.231C410.761 170.231 410.068 169.978 409.518 169.472C408.99 168.944 408.726 168.295 408.726 167.525C408.726 166.755 408.99 166.117 409.518 165.611C410.068 165.083 410.761 164.819 411.597 164.819C412.411 164.819 413.082 165.083 413.61 165.611C414.138 166.117 414.402 166.755 414.402 167.525C414.402 168.295 414.138 168.944 413.61 169.472C413.082 169.978 412.411 170.231 411.597 170.231Z" fill="#ED6C31"/>
<path d="M29.897 573.337H37.487V577H25.277V553.966H29.897V573.337ZM39.2355 567.793C39.2355 565.945 39.5985 564.306 40.3245 562.876C41.0725 561.446 42.0735 560.346 43.3275 559.576C44.6035 558.806 46.0225 558.421 47.5845 558.421C48.9485 558.421 50.1365 558.696 51.1485 559.246C52.1825 559.796 53.0075 560.489 53.6235 561.325V558.718H58.2765V577H53.6235V574.327C53.0295 575.185 52.2045 575.9 51.1485 576.472C50.1145 577.022 48.9155 577.297 47.5515 577.297C46.0115 577.297 44.6035 576.901 43.3275 576.109C42.0735 575.317 41.0725 574.206 40.3245 572.776C39.5985 571.324 39.2355 569.663 39.2355 567.793ZM53.6235 567.859C53.6235 566.737 53.4035 565.78 52.9635 564.988C52.5235 564.174 51.9295 563.558 51.1815 563.14C50.4335 562.7 49.6305 562.48 48.7725 562.48C47.9145 562.48 47.1225 562.689 46.3965 563.107C45.6705 563.525 45.0765 564.141 44.6145 564.955C44.1745 565.747 43.9545 566.693 43.9545 567.793C43.9545 568.893 44.1745 569.861 44.6145 570.697C45.0765 571.511 45.6705 572.138 46.3965 572.578C47.1445 573.018 47.9365 573.238 48.7725 573.238C49.6305 573.238 50.4335 573.029 51.1815 572.611C51.9295 572.171 52.5235 571.555 52.9635 570.763C53.4035 569.949 53.6235 568.981 53.6235 567.859ZM69.7847 577.297C68.2887 577.297 66.9467 577.033 65.7587 576.505C64.5707 575.955 63.6247 575.218 62.9207 574.294C62.2387 573.37 61.8647 572.347 61.7987 571.225H66.4517C66.5397 571.929 66.8807 572.512 67.4747 572.974C68.0907 573.436 68.8497 573.667 69.7517 573.667C70.6317 573.667 71.3137 573.491 71.7977 573.139C72.3037 572.787 72.5567 572.336 72.5567 571.786C72.5567 571.192 72.2487 570.752 71.6327 570.466C71.0387 570.158 70.0817 569.828 68.7617 569.476C67.3977 569.146 66.2757 568.805 65.3957 568.453C64.5377 568.101 63.7897 567.562 63.1517 566.836C62.5357 566.11 62.2277 565.131 62.2277 563.899C62.2277 562.887 62.5137 561.963 63.0857 561.127C63.6797 560.291 64.5157 559.631 65.5937 559.147C66.6937 558.663 67.9807 558.421 69.4547 558.421C71.6327 558.421 73.3707 558.971 74.6687 560.071C75.9667 561.149 76.6817 562.612 76.8137 564.46H72.3917C72.3257 563.734 72.0177 563.162 71.4677 562.744C70.9397 562.304 70.2247 562.084 69.3227 562.084C68.4867 562.084 67.8377 562.238 67.3757 562.546C66.9357 562.854 66.7157 563.283 66.7157 563.833C66.7157 564.449 67.0237 564.922 67.6397 565.252C68.2557 565.56 69.2127 565.879 70.5107 566.209C71.8307 566.539 72.9197 566.88 73.7777 567.232C74.6357 567.584 75.3727 568.134 75.9887 568.882C76.6267 569.608 76.9567 570.576 76.9787 571.786C76.9787 572.842 76.6817 573.788 76.0877 574.624C75.5157 575.46 74.6797 576.12 73.5797 576.604C72.5017 577.066 71.2367 577.297 69.7847 577.297ZM86.1501 562.513V571.357C86.1501 571.973 86.2931 572.424 86.5791 572.71C86.8871 572.974 87.3931 573.106 88.0971 573.106H90.2421V577H87.3381C83.4441 577 81.4971 575.108 81.4971 571.324V562.513H79.3191V558.718H81.4971V554.197H86.1501V558.718H90.2421V562.513H86.1501ZM118.423 567.463C118.423 568.123 118.379 568.717 118.291 569.245H104.926C105.036 570.565 105.498 571.599 106.312 572.347C107.126 573.095 108.127 573.469 109.315 573.469C111.031 573.469 112.252 572.732 112.978 571.258H117.961C117.433 573.018 116.421 574.47 114.925 575.614C113.429 576.736 111.592 577.297 109.414 577.297C107.654 577.297 106.07 576.912 104.662 576.142C103.276 575.35 102.187 574.239 101.395 572.809C100.625 571.379 100.24 569.729 100.24 567.859C100.24 565.967 100.625 564.306 101.395 562.876C102.165 561.446 103.243 560.346 104.629 559.576C106.015 558.806 107.61 558.421 109.414 558.421C111.152 558.421 112.703 558.795 114.067 559.543C115.453 560.291 116.52 561.358 117.268 562.744C118.038 564.108 118.423 565.681 118.423 567.463ZM113.638 566.143C113.616 564.955 113.187 564.009 112.351 563.305C111.515 562.579 110.492 562.216 109.282 562.216C108.138 562.216 107.17 562.568 106.378 563.272C105.608 563.954 105.135 564.911 104.959 566.143H113.638ZM131.894 577L128.132 571.324L124.799 577H119.849L125.822 567.826L119.783 558.718H124.997L128.726 564.361L132.092 558.718H137.042L131.036 567.826L137.108 577H131.894ZM144.237 561.358C144.831 560.522 145.645 559.829 146.679 559.279C147.735 558.707 148.934 558.421 150.276 558.421C151.838 558.421 153.246 558.806 154.5 559.576C155.776 560.346 156.777 561.446 157.503 562.876C158.251 564.284 158.625 565.923 158.625 567.793C158.625 569.663 158.251 571.324 157.503 572.776C156.777 574.206 155.776 575.317 154.5 576.109C153.246 576.901 151.838 577.297 150.276 577.297C148.934 577.297 147.746 577.022 146.712 576.472C145.7 575.922 144.875 575.229 144.237 574.393V585.712H139.617V558.718H144.237V561.358ZM153.906 567.793C153.906 566.693 153.675 565.747 153.213 564.955C152.773 564.141 152.179 563.525 151.431 563.107C150.705 562.689 149.913 562.48 149.055 562.48C148.219 562.48 147.427 562.7 146.679 563.14C145.953 563.558 145.359 564.174 144.897 564.988C144.457 565.802 144.237 566.759 144.237 567.859C144.237 568.959 144.457 569.916 144.897 570.73C145.359 571.544 145.953 572.171 146.679 572.611C147.427 573.029 148.219 573.238 149.055 573.238C149.913 573.238 150.705 573.018 151.431 572.578C152.179 572.138 152.773 571.511 153.213 570.697C153.675 569.883 153.906 568.915 153.906 567.793ZM178.977 567.463C178.977 568.123 178.933 568.717 178.845 569.245H165.48C165.59 570.565 166.052 571.599 166.866 572.347C167.68 573.095 168.681 573.469 169.869 573.469C171.585 573.469 172.806 572.732 173.532 571.258H178.515C177.987 573.018 176.975 574.47 175.479 575.614C173.983 576.736 172.146 577.297 169.968 577.297C168.208 577.297 166.624 576.912 165.216 576.142C163.83 575.35 162.741 574.239 161.949 572.809C161.179 571.379 160.794 569.729 160.794 567.859C160.794 565.967 161.179 564.306 161.949 562.876C162.719 561.446 163.797 560.346 165.183 559.576C166.569 558.806 168.164 558.421 169.968 558.421C171.706 558.421 173.257 558.795 174.621 559.543C176.007 560.291 177.074 561.358 177.822 562.744C178.592 564.108 178.977 565.681 178.977 567.463ZM174.192 566.143C174.17 564.955 173.741 564.009 172.905 563.305C172.069 562.579 171.046 562.216 169.836 562.216C168.692 562.216 167.724 562.568 166.932 563.272C166.162 563.954 165.689 564.911 165.513 566.143H174.192ZM192.48 558.454C194.658 558.454 196.418 559.147 197.76 560.533C199.102 561.897 199.773 563.811 199.773 566.275V577H195.153V566.902C195.153 565.45 194.79 564.339 194.064 563.569C193.338 562.777 192.348 562.381 191.094 562.381C189.818 562.381 188.806 562.777 188.058 563.569C187.332 564.339 186.969 565.45 186.969 566.902V577H182.349V558.718H186.969V560.995C187.585 560.203 188.366 559.587 189.312 559.147C190.28 558.685 191.336 558.454 192.48 558.454ZM211.163 577.297C209.667 577.297 208.325 577.033 207.137 576.505C205.949 575.955 205.003 575.218 204.299 574.294C203.617 573.37 203.243 572.347 203.177 571.225H207.83C207.918 571.929 208.259 572.512 208.853 572.974C209.469 573.436 210.228 573.667 211.13 573.667C212.01 573.667 212.692 573.491 213.176 573.139C213.682 572.787 213.935 572.336 213.935 571.786C213.935 571.192 213.627 570.752 213.011 570.466C212.417 570.158 211.46 569.828 210.14 569.476C208.776 569.146 207.654 568.805 206.774 568.453C205.916 568.101 205.168 567.562 204.53 566.836C203.914 566.11 203.606 565.131 203.606 563.899C203.606 562.887 203.892 561.963 204.464 561.127C205.058 560.291 205.894 559.631 206.972 559.147C208.072 558.663 209.359 558.421 210.833 558.421C213.011 558.421 214.749 558.971 216.047 560.071C217.345 561.149 218.06 562.612 218.192 564.46H213.77C213.704 563.734 213.396 563.162 212.846 562.744C212.318 562.304 211.603 562.084 210.701 562.084C209.865 562.084 209.216 562.238 208.754 562.546C208.314 562.854 208.094 563.283 208.094 563.833C208.094 564.449 208.402 564.922 209.018 565.252C209.634 565.56 210.591 565.879 211.889 566.209C213.209 566.539 214.298 566.88 215.156 567.232C216.014 567.584 216.751 568.134 217.367 568.882C218.005 569.608 218.335 570.576 218.357 571.786C218.357 572.842 218.06 573.788 217.466 574.624C216.894 575.46 216.058 576.12 214.958 576.604C213.88 577.066 212.615 577.297 211.163 577.297ZM239.144 567.463C239.144 568.123 239.1 568.717 239.012 569.245H225.647C225.757 570.565 226.219 571.599 227.033 572.347C227.847 573.095 228.848 573.469 230.036 573.469C231.752 573.469 232.973 572.732 233.699 571.258H238.682C238.154 573.018 237.142 574.47 235.646 575.614C234.15 576.736 232.313 577.297 230.135 577.297C228.375 577.297 226.791 576.912 225.383 576.142C223.997 575.35 222.908 574.239 222.116 572.809C221.346 571.379 220.961 569.729 220.961 567.859C220.961 565.967 221.346 564.306 222.116 562.876C222.886 561.446 223.964 560.346 225.35 559.576C226.736 558.806 228.331 558.421 230.135 558.421C231.873 558.421 233.424 558.795 234.788 559.543C236.174 560.291 237.241 561.358 237.989 562.744C238.759 564.108 239.144 565.681 239.144 567.463ZM234.359 566.143C234.337 564.955 233.908 564.009 233.072 563.305C232.236 562.579 231.213 562.216 230.003 562.216C228.859 562.216 227.891 562.568 227.099 563.272C226.329 563.954 225.856 564.911 225.68 566.143H234.359ZM249.512 577.297C248.016 577.297 246.674 577.033 245.486 576.505C244.298 575.955 243.352 575.218 242.648 574.294C241.966 573.37 241.592 572.347 241.526 571.225H246.179C246.267 571.929 246.608 572.512 247.202 572.974C247.818 573.436 248.577 573.667 249.479 573.667C250.359 573.667 251.041 573.491 251.525 573.139C252.031 572.787 252.284 572.336 252.284 571.786C252.284 571.192 251.976 570.752 251.36 570.466C250.766 570.158 249.809 569.828 248.489 569.476C247.125 569.146 246.003 568.805 245.123 568.453C244.265 568.101 243.517 567.562 242.879 566.836C242.263 566.11 241.955 565.131 241.955 563.899C241.955 562.887 242.241 561.963 242.813 561.127C243.407 560.291 244.243 559.631 245.321 559.147C246.421 558.663 247.708 558.421 249.182 558.421C251.36 558.421 253.098 558.971 254.396 560.071C255.694 561.149 256.409 562.612 256.541 564.46H252.119C252.053 563.734 251.745 563.162 251.195 562.744C250.667 562.304 249.952 562.084 249.05 562.084C248.214 562.084 247.565 562.238 247.103 562.546C246.663 562.854 246.443 563.283 246.443 563.833C246.443 564.449 246.751 564.922 247.367 565.252C247.983 565.56 248.94 565.879 250.238 566.209C251.558 566.539 252.647 566.88 253.505 567.232C254.363 567.584 255.1 568.134 255.716 568.882C256.354 569.608 256.684 570.576 256.706 571.786C256.706 572.842 256.409 573.788 255.815 574.624C255.243 575.46 254.407 576.12 253.307 576.604C252.229 577.066 250.964 577.297 249.512 577.297Z" fill="#ED6C31"/>
<path d="M37.125 193.575L31.45 204.425V211H29.175V204.425L23.475 193.575H26L30.3 202.4L34.6 193.575H37.125ZM45.4996 211.225C44.2163 211.225 43.0496 210.933 41.9996 210.35C40.9663 209.767 40.1496 208.942 39.5496 207.875C38.9663 206.792 38.6746 205.542 38.6746 204.125C38.6746 202.725 38.9746 201.492 39.5746 200.425C40.1913 199.342 41.0246 198.517 42.0746 197.95C43.1246 197.367 44.2996 197.075 45.5996 197.075C46.8996 197.075 48.0746 197.367 49.1246 197.95C50.1746 198.517 50.9996 199.333 51.5996 200.4C52.2163 201.467 52.5246 202.708 52.5246 204.125C52.5246 205.542 52.2079 206.792 51.5746 207.875C50.9579 208.942 50.1163 209.767 49.0496 210.35C47.9829 210.933 46.7996 211.225 45.4996 211.225ZM45.4996 209.225C46.3163 209.225 47.0829 209.033 47.7996 208.65C48.5163 208.267 49.0913 207.692 49.5246 206.925C49.9746 206.158 50.1996 205.225 50.1996 204.125C50.1996 203.025 49.9829 202.092 49.5496 201.325C49.1163 200.558 48.5496 199.992 47.8496 199.625C47.1496 199.242 46.3913 199.05 45.5746 199.05C44.7413 199.05 43.9746 199.242 43.2746 199.625C42.5913 199.992 42.0413 200.558 41.6246 201.325C41.2079 202.092 40.9996 203.025 40.9996 204.125C40.9996 205.242 41.1996 206.183 41.5996 206.95C42.0163 207.717 42.5663 208.292 43.2496 208.675C43.9329 209.042 44.6829 209.225 45.4996 209.225ZM67.6658 197.3V211H65.3908V208.975C64.9575 209.675 64.3492 210.225 63.5658 210.625C62.7992 211.008 61.9492 211.2 61.0158 211.2C59.9492 211.2 58.9908 210.983 58.1408 210.55C57.2908 210.1 56.6158 209.433 56.1158 208.55C55.6325 207.667 55.3908 206.592 55.3908 205.325V197.3H57.6408V205.025C57.6408 206.375 57.9825 207.417 58.6658 208.15C59.3492 208.867 60.2825 209.225 61.4658 209.225C62.6825 209.225 63.6408 208.85 64.3408 208.1C65.0408 207.35 65.3908 206.258 65.3908 204.825V197.3H67.6658ZM73.782 199.525C74.182 198.742 74.7487 198.133 75.482 197.7C76.232 197.267 77.1404 197.05 78.207 197.05V199.4H77.607C75.057 199.4 73.782 200.783 73.782 203.55V211H71.507V197.3H73.782V199.525ZM89.7732 199.525C90.1732 198.742 90.7399 198.133 91.4732 197.7C92.2232 197.267 93.1316 197.05 94.1982 197.05V199.4H93.5982C91.0482 199.4 89.7732 200.783 89.7732 203.55V211H87.4982V197.3H89.7732V199.525ZM109.324 203.625C109.324 204.058 109.299 204.517 109.249 205H98.2994C98.3827 206.35 98.8411 207.408 99.6744 208.175C100.524 208.925 101.549 209.3 102.749 209.3C103.733 209.3 104.549 209.075 105.199 208.625C105.866 208.158 106.333 207.542 106.599 206.775H109.049C108.683 208.092 107.949 209.167 106.849 210C105.749 210.817 104.383 211.225 102.749 211.225C101.449 211.225 100.283 210.933 99.2494 210.35C98.2327 209.767 97.4327 208.942 96.8494 207.875C96.2661 206.792 95.9744 205.542 95.9744 204.125C95.9744 202.708 96.2577 201.467 96.8244 200.4C97.3911 199.333 98.1827 198.517 99.1994 197.95C100.233 197.367 101.416 197.075 102.749 197.075C104.049 197.075 105.199 197.358 106.199 197.925C107.199 198.492 107.966 199.275 108.499 200.275C109.049 201.258 109.324 202.375 109.324 203.625ZM106.974 203.15C106.974 202.283 106.783 201.542 106.399 200.925C106.016 200.292 105.491 199.817 104.824 199.5C104.174 199.167 103.449 199 102.649 199C101.499 199 100.516 199.367 99.6994 200.1C98.8994 200.833 98.4411 201.85 98.3244 203.15H106.974ZM117.177 211.225C116.127 211.225 115.186 211.05 114.352 210.7C113.519 210.333 112.861 209.833 112.377 209.2C111.894 208.55 111.627 207.808 111.577 206.975H113.927C113.994 207.658 114.311 208.217 114.877 208.65C115.461 209.083 116.219 209.3 117.152 209.3C118.019 209.3 118.702 209.108 119.202 208.725C119.702 208.342 119.952 207.858 119.952 207.275C119.952 206.675 119.686 206.233 119.152 205.95C118.619 205.65 117.794 205.358 116.677 205.075C115.661 204.808 114.827 204.542 114.177 204.275C113.544 203.992 112.994 203.583 112.527 203.05C112.077 202.5 111.852 201.783 111.852 200.9C111.852 200.2 112.061 199.558 112.477 198.975C112.894 198.392 113.486 197.933 114.252 197.6C115.019 197.25 115.894 197.075 116.877 197.075C118.394 197.075 119.619 197.458 120.552 198.225C121.486 198.992 121.986 200.042 122.052 201.375H119.777C119.727 200.658 119.436 200.083 118.902 199.65C118.386 199.217 117.686 199 116.802 199C115.986 199 115.336 199.175 114.852 199.525C114.369 199.875 114.127 200.333 114.127 200.9C114.127 201.35 114.269 201.725 114.552 202.025C114.852 202.308 115.219 202.542 115.652 202.725C116.102 202.892 116.719 203.083 117.502 203.3C118.486 203.567 119.286 203.833 119.902 204.1C120.519 204.35 121.044 204.733 121.477 205.25C121.927 205.767 122.161 206.442 122.177 207.275C122.177 208.025 121.969 208.7 121.552 209.3C121.136 209.9 120.544 210.375 119.777 210.725C119.027 211.058 118.161 211.225 117.177 211.225ZM126.564 195.075C126.131 195.075 125.764 194.925 125.464 194.625C125.164 194.325 125.014 193.958 125.014 193.525C125.014 193.092 125.164 192.725 125.464 192.425C125.764 192.125 126.131 191.975 126.564 191.975C126.981 191.975 127.331 192.125 127.614 192.425C127.914 192.725 128.064 193.092 128.064 193.525C128.064 193.958 127.914 194.325 127.614 194.625C127.331 194.925 126.981 195.075 126.564 195.075ZM127.664 197.3V211H125.389V197.3H127.664ZM130.691 204.1C130.691 202.7 130.975 201.475 131.541 200.425C132.108 199.358 132.883 198.533 133.866 197.95C134.866 197.367 135.983 197.075 137.216 197.075C138.283 197.075 139.275 197.325 140.191 197.825C141.108 198.308 141.808 198.95 142.291 199.75V192.5H144.591V211H142.291V208.425C141.841 209.242 141.175 209.917 140.291 210.45C139.408 210.967 138.375 211.225 137.191 211.225C135.975 211.225 134.866 210.925 133.866 210.325C132.883 209.725 132.108 208.883 131.541 207.8C130.975 206.717 130.691 205.483 130.691 204.1ZM142.291 204.125C142.291 203.092 142.083 202.192 141.666 201.425C141.25 200.658 140.683 200.075 139.966 199.675C139.266 199.258 138.491 199.05 137.641 199.05C136.791 199.05 136.016 199.25 135.316 199.65C134.616 200.05 134.058 200.633 133.641 201.4C133.225 202.167 133.016 203.067 133.016 204.1C133.016 205.15 133.225 206.067 133.641 206.85C134.058 207.617 134.616 208.208 135.316 208.625C136.016 209.025 136.791 209.225 137.641 209.225C138.491 209.225 139.266 209.025 139.966 208.625C140.683 208.208 141.25 207.617 141.666 206.85C142.083 206.067 142.291 205.158 142.291 204.125ZM160.936 203.625C160.936 204.058 160.911 204.517 160.861 205H149.911C149.994 206.35 150.452 207.408 151.286 208.175C152.136 208.925 153.161 209.3 154.361 209.3C155.344 209.3 156.161 209.075 156.811 208.625C157.477 208.158 157.944 207.542 158.211 206.775H160.661C160.294 208.092 159.561 209.167 158.461 210C157.361 210.817 155.994 211.225 154.361 211.225C153.061 211.225 151.894 210.933 150.861 210.35C149.844 209.767 149.044 208.942 148.461 207.875C147.877 206.792 147.586 205.542 147.586 204.125C147.586 202.708 147.869 201.467 148.436 200.4C149.002 199.333 149.794 198.517 150.811 197.95C151.844 197.367 153.027 197.075 154.361 197.075C155.661 197.075 156.811 197.358 157.811 197.925C158.811 198.492 159.577 199.275 160.111 200.275C160.661 201.258 160.936 202.375 160.936 203.625ZM158.586 203.15C158.586 202.283 158.394 201.542 158.011 200.925C157.627 200.292 157.102 199.817 156.436 199.5C155.786 199.167 155.061 199 154.261 199C153.111 199 152.127 199.367 151.311 200.1C150.511 200.833 150.052 201.85 149.936 203.15H158.586ZM170.614 197.05C172.28 197.05 173.63 197.558 174.664 198.575C175.697 199.575 176.214 201.025 176.214 202.925V211H173.964V203.25C173.964 201.883 173.622 200.842 172.939 200.125C172.255 199.392 171.322 199.025 170.139 199.025C168.939 199.025 167.98 199.4 167.264 200.15C166.564 200.9 166.214 201.992 166.214 203.425V211H163.939V197.3H166.214V199.25C166.664 198.55 167.272 198.008 168.039 197.625C168.822 197.242 169.68 197.05 170.614 197.05ZM179.08 204.125C179.08 202.708 179.363 201.475 179.93 200.425C180.497 199.358 181.28 198.533 182.28 197.95C183.297 197.367 184.455 197.075 185.755 197.075C187.438 197.075 188.822 197.483 189.905 198.3C191.005 199.117 191.73 200.25 192.08 201.7H189.63C189.397 200.867 188.938 200.208 188.255 199.725C187.588 199.242 186.755 199 185.755 199C184.455 199 183.405 199.45 182.605 200.35C181.805 201.233 181.405 202.492 181.405 204.125C181.405 205.775 181.805 207.05 182.605 207.95C183.405 208.85 184.455 209.3 185.755 209.3C186.755 209.3 187.588 209.067 188.255 208.6C188.922 208.133 189.38 207.467 189.63 206.6H192.08C191.713 208 190.98 209.125 189.88 209.975C188.78 210.808 187.405 211.225 185.755 211.225C184.455 211.225 183.297 210.933 182.28 210.35C181.28 209.767 180.497 208.942 179.93 207.875C179.363 206.808 179.08 205.558 179.08 204.125ZM207.615 203.625C207.615 204.058 207.59 204.517 207.54 205H196.59C196.674 206.35 197.132 207.408 197.965 208.175C198.815 208.925 199.84 209.3 201.04 209.3C202.024 209.3 202.84 209.075 203.49 208.625C204.157 208.158 204.624 207.542 204.89 206.775H207.34C206.974 208.092 206.24 209.167 205.14 210C204.04 210.817 202.674 211.225 201.04 211.225C199.74 211.225 198.574 210.933 197.54 210.35C196.524 209.767 195.724 208.942 195.14 207.875C194.557 206.792 194.265 205.542 194.265 204.125C194.265 202.708 194.549 201.467 195.115 200.4C195.682 199.333 196.474 198.517 197.49 197.95C198.524 197.367 199.707 197.075 201.04 197.075C202.34 197.075 203.49 197.358 204.49 197.925C205.49 198.492 206.257 199.275 206.79 200.275C207.34 201.258 207.615 202.375 207.615 203.625ZM205.265 203.15C205.265 202.283 205.074 201.542 204.69 200.925C204.307 200.292 203.782 199.817 203.115 199.5C202.465 199.167 201.74 199 200.94 199C199.79 199 198.807 199.367 197.99 200.1C197.19 200.833 196.732 201.85 196.615 203.15H205.265ZM215.468 211.225C214.418 211.225 213.477 211.05 212.643 210.7C211.81 210.333 211.152 209.833 210.668 209.2C210.185 208.55 209.918 207.808 209.868 206.975H212.218C212.285 207.658 212.602 208.217 213.168 208.65C213.752 209.083 214.51 209.3 215.443 209.3C216.31 209.3 216.993 209.108 217.493 208.725C217.993 208.342 218.243 207.858 218.243 207.275C218.243 206.675 217.977 206.233 217.443 205.95C216.91 205.65 216.085 205.358 214.968 205.075C213.952 204.808 213.118 204.542 212.468 204.275C211.835 203.992 211.285 203.583 210.818 203.05C210.368 202.5 210.143 201.783 210.143 200.9C210.143 200.2 210.352 199.558 210.768 198.975C211.185 198.392 211.777 197.933 212.543 197.6C213.31 197.25 214.185 197.075 215.168 197.075C216.685 197.075 217.91 197.458 218.843 198.225C219.777 198.992 220.277 200.042 220.343 201.375H218.068C218.018 200.658 217.727 200.083 217.193 199.65C216.677 199.217 215.977 199 215.093 199C214.277 199 213.627 199.175 213.143 199.525C212.66 199.875 212.418 200.333 212.418 200.9C212.418 201.35 212.56 201.725 212.843 202.025C213.143 202.308 213.51 202.542 213.943 202.725C214.393 202.892 215.01 203.083 215.793 203.3C216.777 203.567 217.577 203.833 218.193 204.1C218.81 204.35 219.335 204.733 219.768 205.25C220.218 205.767 220.452 206.442 220.468 207.275C220.468 208.025 220.26 208.7 219.843 209.3C219.427 209.9 218.835 210.375 218.068 210.725C217.318 211.058 216.452 211.225 215.468 211.225Z" fill="#B0B0B0"/>
<rect x="23" y="230" width="206.502" height="271.428" rx="32" fill="#FFB08C"/>
<path d="M64.7041 381.737H81.6367V417.698H64.7041V381.737Z" fill="#AB5832"/>
<rect x="62.124" y="430.115" width="126.108" height="66.9242" fill="#5F4E47"/>
<path d="M118.574 356.121C122.483 352.194 128.84 352.194 132.749 356.121L190.666 414.311C196.943 420.617 192.476 431.365 183.578 431.365H67.7444C58.8467 431.365 54.3799 420.617 60.6568 414.311L118.574 356.121Z" fill="#ED6C31"/>
<path d="M122.229 363.276C124.176 361.352 127.308 361.352 129.256 363.276L189.567 422.849C192.746 425.989 190.522 431.406 186.053 431.406H65.4313C60.962 431.406 58.7379 425.989 61.9176 422.849L122.229 363.276Z" fill="#AB5832"/>
<path fill-rule="evenodd" clip-rule="evenodd" d="M185.488 429.874L125.016 372.061L64.5444 429.874H65.6717V494.943H184.361V429.874H185.488Z" fill="#FFF3E1"/>
<path d="M61.9624 430.438V441.081L126.064 379.882L188.07 441.081V430.438L126.064 368.997L61.9624 430.438Z" fill="#BCAA93"/>
<rect x="69.0581" y="437.856" width="33.8653" height="53.4973" rx="5" fill="#A6CFD5"/>
<path d="M83.9746 437.856H88.0062V491.353H83.9746V437.856Z" fill="#FFF3E1"/>
<rect x="146.948" y="437.856" width="33.8653" height="33.8653" rx="16.9326" fill="#A6CFD5"/>
<path fill-rule="evenodd" clip-rule="evenodd" d="M165.897 437.856H161.865V452.773H146.948V456.804H161.865V471.721H165.897V456.804H180.813V452.773H165.897V437.856Z" fill="#FFF3E1"/>
<path fill-rule="evenodd" clip-rule="evenodd" d="M106.955 446.138C106.955 446.119 106.955 446.1 106.955 446.08C106.955 436.284 114.897 428.342 124.694 428.342C134.491 428.342 142.433 436.284 142.433 446.08H142.433V488.654H106.955V446.138Z" fill="#D27857"/>
<mask id="path-20-inside-1_808_17" fill="white">
<path d="M111.31 447.854H138.079V488.009H111.31V447.854Z"/>
</mask>
<path d="M138.079 488.009V493.009H143.079V488.009H138.079ZM111.31 488.009H106.31V493.009H111.31V488.009ZM133.079 447.854V488.009H143.079V447.854H133.079ZM138.079 483.009H111.31V493.009H138.079V483.009ZM116.31 488.009V447.854H106.31V488.009H116.31Z" fill="#AB5932" mask="url(#path-20-inside-1_808_17)"/>
<circle cx="124.694" cy="447.855" r="11" stroke="#AB5932" stroke-width="4.76968"/>
<rect x="116" y="448" width="17" height="13" fill="#D27857"/>
<rect x="112.405" y="460.785" width="24.3205" height="6.7681" fill="#AB5932"/>
<circle cx="137.111" cy="464.142" r="3.38653" fill="#FFBA02"/>
<rect x="62.0889" y="488.006" width="85.9772" height="8.99935" fill="#B0B0B0"/>
<rect x="62.0088" y="492.895" width="90.936" height="8.36193" fill="#9B9B9B"/>
<path fill-rule="evenodd" clip-rule="evenodd" d="M147.916 491.439C147.915 491.425 147.915 491.41 147.915 491.396C147.915 491.31 147.915 491.224 147.916 491.136V490.267H147.924C148.035 484.895 149.521 476.568 169.202 481.075C186.034 476.867 190.67 485.041 190.808 490.267H190.812C190.812 490.313 190.811 490.359 190.811 490.404C190.811 490.439 190.811 490.474 190.811 490.509C190.811 490.635 190.806 490.76 190.795 490.886C190.473 496.744 185.622 501.394 179.684 501.394H147.916V491.439Z" fill="#728037"/>
<circle cx="124.694" cy="405.12" r="7.24063" fill="#D3883E" stroke="#F9C23C"/>
<path fill-rule="evenodd" clip-rule="evenodd" d="M124.921 400.466C124.805 400.421 124.676 400.421 124.56 400.466L120.674 401.97C120.158 402.17 120.301 402.936 120.854 402.936H121.455V407.405C121.321 407.488 121.218 407.619 121.171 407.778C121.046 408.198 121.361 408.621 121.8 408.621H127.596C128.044 408.621 128.361 408.182 128.219 407.757C128.167 407.6 128.06 407.473 127.923 407.395V402.936H128.627C129.181 402.936 129.324 402.17 128.807 401.97L124.921 400.466Z" fill="#F9C23C"/>
<rect x="122.379" y="403.028" width="0.972594" height="4.27942" rx="0.486297" fill="#D3883E"/>
<rect x="124.227" y="403.028" width="0.972594" height="4.27942" rx="0.486297" fill="#D3883E"/>
<rect x="126.075" y="403.028" width="0.972594" height="4.27942" rx="0.486297" fill="#D3883E"/>
<path d="M54.4353 287L49.3533 278.024H47.1753V287H42.5553V263.966H51.2013C52.9833 263.966 54.5013 264.285 55.7553 264.923C57.0093 265.539 57.9443 266.386 58.5603 267.464C59.1983 268.52 59.5173 269.708 59.5173 271.028C59.5173 272.546 59.0773 273.921 58.1973 275.153C57.3173 276.363 56.0083 277.199 54.2703 277.661L59.7813 287H54.4353ZM47.1753 274.559H51.0363C52.2903 274.559 53.2253 274.262 53.8413 273.668C54.4573 273.052 54.7653 272.205 54.7653 271.127C54.7653 270.071 54.4573 269.257 53.8413 268.685C53.2253 268.091 52.2903 267.794 51.0363 267.794H47.1753V274.559ZM80.6909 277.463C80.6909 278.123 80.6469 278.717 80.5589 279.245H67.1939C67.3039 280.565 67.7659 281.599 68.5799 282.347C69.3939 283.095 70.3949 283.469 71.5829 283.469C73.2989 283.469 74.5199 282.732 75.2459 281.258H80.2289C79.7009 283.018 78.6889 284.47 77.1929 285.614C75.6969 286.736 73.8599 287.297 71.6819 287.297C69.9219 287.297 68.3379 286.912 66.9299 286.142C65.5439 285.35 64.4549 284.239 63.6629 282.809C62.8929 281.379 62.5079 279.729 62.5079 277.859C62.5079 275.967 62.8929 274.306 63.6629 272.876C64.4329 271.446 65.5109 270.346 66.8969 269.576C68.2829 268.806 69.8779 268.421 71.6819 268.421C73.4199 268.421 74.9709 268.795 76.3349 269.543C77.7209 270.291 78.7879 271.358 79.5359 272.744C80.3059 274.108 80.6909 275.681 80.6909 277.463ZM75.9059 276.143C75.8839 274.955 75.4549 274.009 74.6189 273.305C73.7829 272.579 72.7599 272.216 71.5499 272.216C70.4059 272.216 69.4379 272.568 68.6459 273.272C67.8759 273.954 67.4029 274.911 67.2269 276.143H75.9059ZM91.0591 287.297C89.5631 287.297 88.2211 287.033 87.0331 286.505C85.8451 285.955 84.8991 285.218 84.1951 284.294C83.5131 283.37 83.1391 282.347 83.0731 281.225H87.7261C87.8141 281.929 88.1551 282.512 88.7491 282.974C89.3651 283.436 90.1241 283.667 91.0261 283.667C91.9061 283.667 92.5881 283.491 93.0721 283.139C93.5781 282.787 93.8311 282.336 93.8311 281.786C93.8311 281.192 93.5231 280.752 92.9071 280.466C92.3131 280.158 91.3561 279.828 90.0361 279.476C88.6721 279.146 87.5501 278.805 86.6701 278.453C85.8121 278.101 85.0641 277.562 84.4261 276.836C83.8101 276.11 83.5021 275.131 83.5021 273.899C83.5021 272.887 83.7881 271.963 84.3601 271.127C84.9541 270.291 85.7901 269.631 86.8681 269.147C87.9681 268.663 89.2551 268.421 90.7291 268.421C92.9071 268.421 94.6451 268.971 95.9431 270.071C97.2411 271.149 97.9561 272.612 98.0881 274.46H93.6661C93.6001 273.734 93.2921 273.162 92.7421 272.744C92.2141 272.304 91.4991 272.084 90.5971 272.084C89.7611 272.084 89.1121 272.238 88.6501 272.546C88.2101 272.854 87.9901 273.283 87.9901 273.833C87.9901 274.449 88.2981 274.922 88.9141 275.252C89.5301 275.56 90.4871 275.879 91.7851 276.209C93.1051 276.539 94.1941 276.88 95.0521 277.232C95.9101 277.584 96.6471 278.134 97.2631 278.882C97.9011 279.608 98.2311 280.576 98.2531 281.786C98.2531 282.842 97.9561 283.788 97.3621 284.624C96.7901 285.46 95.9541 286.12 94.8541 286.604C93.7761 287.066 92.5111 287.297 91.0591 287.297ZM104.389 266.54C103.575 266.54 102.893 266.287 102.343 265.781C101.815 265.253 101.551 264.604 101.551 263.834C101.551 263.064 101.815 262.426 102.343 261.92C102.893 261.392 103.575 261.128 104.389 261.128C105.203 261.128 105.874 261.392 106.402 261.92C106.952 262.426 107.227 263.064 107.227 263.834C107.227 264.604 106.952 265.253 106.402 265.781C105.874 266.287 105.203 266.54 104.389 266.54ZM106.666 268.718V287H102.046V268.718H106.666ZM110.042 277.793C110.042 275.945 110.405 274.306 111.131 272.876C111.879 271.446 112.891 270.346 114.167 269.576C115.443 268.806 116.862 268.421 118.424 268.421C119.612 268.421 120.745 268.685 121.823 269.213C122.901 269.719 123.759 270.401 124.397 271.259V262.58H129.083V287H124.397V284.294C123.825 285.196 123.022 285.922 121.988 286.472C120.954 287.022 119.755 287.297 118.391 287.297C116.851 287.297 115.443 286.901 114.167 286.109C112.891 285.317 111.879 284.206 111.131 282.776C110.405 281.324 110.042 279.663 110.042 277.793ZM124.43 277.859C124.43 276.737 124.21 275.78 123.77 274.988C123.33 274.174 122.736 273.558 121.988 273.14C121.24 272.7 120.437 272.48 119.579 272.48C118.721 272.48 117.929 272.689 117.203 273.107C116.477 273.525 115.883 274.141 115.421 274.955C114.981 275.747 114.761 276.693 114.761 277.793C114.761 278.893 114.981 279.861 115.421 280.697C115.883 281.511 116.477 282.138 117.203 282.578C117.951 283.018 118.743 283.238 119.579 283.238C120.437 283.238 121.24 283.029 121.988 282.611C122.736 282.171 123.33 281.555 123.77 280.763C124.21 279.949 124.43 278.981 124.43 277.859ZM150.59 277.463C150.59 278.123 150.546 278.717 150.458 279.245H137.093C137.203 280.565 137.665 281.599 138.479 282.347C139.293 283.095 140.294 283.469 141.482 283.469C143.198 283.469 144.419 282.732 145.145 281.258H150.128C149.6 283.018 148.588 284.47 147.092 285.614C145.596 286.736 143.759 287.297 141.581 287.297C139.821 287.297 138.237 286.912 136.829 286.142C135.443 285.35 134.354 284.239 133.562 282.809C132.792 281.379 132.407 279.729 132.407 277.859C132.407 275.967 132.792 274.306 133.562 272.876C134.332 271.446 135.41 270.346 136.796 269.576C138.182 268.806 139.777 268.421 141.581 268.421C143.319 268.421 144.87 268.795 146.234 269.543C147.62 270.291 148.687 271.358 149.435 272.744C150.205 274.108 150.59 275.681 150.59 277.463ZM145.805 276.143C145.783 274.955 145.354 274.009 144.518 273.305C143.682 272.579 142.659 272.216 141.449 272.216C140.305 272.216 139.337 272.568 138.545 273.272C137.775 273.954 137.302 274.911 137.126 276.143H145.805ZM164.094 268.454C166.272 268.454 168.032 269.147 169.374 270.533C170.716 271.897 171.387 273.811 171.387 276.275V287H166.767V276.902C166.767 275.45 166.404 274.339 165.678 273.569C164.952 272.777 163.962 272.381 162.708 272.381C161.432 272.381 160.42 272.777 159.672 273.569C158.946 274.339 158.583 275.45 158.583 276.902V287H153.963V268.718H158.583V270.995C159.199 270.203 159.98 269.587 160.926 269.147C161.894 268.685 162.95 268.454 164.094 268.454ZM174.592 277.859C174.592 275.967 174.977 274.317 175.747 272.909C176.517 271.479 177.584 270.379 178.948 269.609C180.312 268.817 181.874 268.421 183.634 268.421C185.9 268.421 187.77 268.993 189.244 270.137C190.74 271.259 191.741 272.843 192.247 274.889H187.264C187 274.097 186.549 273.481 185.911 273.041C185.295 272.579 184.525 272.348 183.601 272.348C182.281 272.348 181.236 272.832 180.466 273.8C179.696 274.746 179.311 276.099 179.311 277.859C179.311 279.597 179.696 280.95 180.466 281.918C181.236 282.864 182.281 283.337 183.601 283.337C185.471 283.337 186.692 282.501 187.264 280.829H192.247C191.741 282.809 190.74 284.382 189.244 285.548C187.748 286.714 185.878 287.297 183.634 287.297C181.874 287.297 180.312 286.912 178.948 286.142C177.584 285.35 176.517 284.25 175.747 282.842C174.977 281.412 174.592 279.751 174.592 277.859ZM212.626 277.463C212.626 278.123 212.582 278.717 212.494 279.245H199.129C199.239 280.565 199.701 281.599 200.515 282.347C201.329 283.095 202.33 283.469 203.518 283.469C205.234 283.469 206.455 282.732 207.181 281.258H212.164C211.636 283.018 210.624 284.47 209.128 285.614C207.632 286.736 205.795 287.297 203.617 287.297C201.857 287.297 200.273 286.912 198.865 286.142C197.479 285.35 196.39 284.239 195.598 282.809C194.828 281.379 194.443 279.729 194.443 277.859C194.443 275.967 194.828 274.306 195.598 272.876C196.368 271.446 197.446 270.346 198.832 269.576C200.218 268.806 201.813 268.421 203.617 268.421C205.355 268.421 206.906 268.795 208.27 269.543C209.656 270.291 210.723 271.358 211.471 272.744C212.241 274.108 212.626 275.681 212.626 277.463ZM207.841 276.143C207.819 274.955 207.39 274.009 206.554 273.305C205.718 272.579 204.695 272.216 203.485 272.216C202.341 272.216 201.373 272.568 200.581 273.272C199.811 273.954 199.338 274.911 199.162 276.143H207.841ZM129.305 313.966V337H124.685V313.966H129.305Z" fill="white"/>
<rect x="258" y="230" width="206.502" height="271.428" rx="32" fill="#FFB08C"/>
<path d="M289.435 287L284.353 278.024H282.175V287H277.555V263.966H286.201C287.983 263.966 289.501 264.285 290.755 264.923C292.009 265.539 292.944 266.386 293.56 267.464C294.198 268.52 294.517 269.708 294.517 271.028C294.517 272.546 294.077 273.921 293.197 275.153C292.317 276.363 291.008 277.199 289.27 277.661L294.781 287H289.435ZM282.175 274.559H286.036C287.29 274.559 288.225 274.262 288.841 273.668C289.457 273.052 289.765 272.205 289.765 271.127C289.765 270.071 289.457 269.257 288.841 268.685C288.225 268.091 287.29 267.794 286.036 267.794H282.175V274.559ZM315.691 277.463C315.691 278.123 315.647 278.717 315.559 279.245H302.194C302.304 280.565 302.766 281.599 303.58 282.347C304.394 283.095 305.395 283.469 306.583 283.469C308.299 283.469 309.52 282.732 310.246 281.258H315.229C314.701 283.018 313.689 284.47 312.193 285.614C310.697 286.736 308.86 287.297 306.682 287.297C304.922 287.297 303.338 286.912 301.93 286.142C300.544 285.35 299.455 284.239 298.663 282.809C297.893 281.379 297.508 279.729 297.508 277.859C297.508 275.967 297.893 274.306 298.663 272.876C299.433 271.446 300.511 270.346 301.897 269.576C303.283 268.806 304.878 268.421 306.682 268.421C308.42 268.421 309.971 268.795 311.335 269.543C312.721 270.291 313.788 271.358 314.536 272.744C315.306 274.108 315.691 275.681 315.691 277.463ZM310.906 276.143C310.884 274.955 310.455 274.009 309.619 273.305C308.783 272.579 307.76 272.216 306.55 272.216C305.406 272.216 304.438 272.568 303.646 273.272C302.876 273.954 302.403 274.911 302.227 276.143H310.906ZM326.059 287.297C324.563 287.297 323.221 287.033 322.033 286.505C320.845 285.955 319.899 285.218 319.195 284.294C318.513 283.37 318.139 282.347 318.073 281.225H322.726C322.814 281.929 323.155 282.512 323.749 282.974C324.365 283.436 325.124 283.667 326.026 283.667C326.906 283.667 327.588 283.491 328.072 283.139C328.578 282.787 328.831 282.336 328.831 281.786C328.831 281.192 328.523 280.752 327.907 280.466C327.313 280.158 326.356 279.828 325.036 279.476C323.672 279.146 322.55 278.805 321.67 278.453C320.812 278.101 320.064 277.562 319.426 276.836C318.81 276.11 318.502 275.131 318.502 273.899C318.502 272.887 318.788 271.963 319.36 271.127C319.954 270.291 320.79 269.631 321.868 269.147C322.968 268.663 324.255 268.421 325.729 268.421C327.907 268.421 329.645 268.971 330.943 270.071C332.241 271.149 332.956 272.612 333.088 274.46H328.666C328.6 273.734 328.292 273.162 327.742 272.744C327.214 272.304 326.499 272.084 325.597 272.084C324.761 272.084 324.112 272.238 323.65 272.546C323.21 272.854 322.99 273.283 322.99 273.833C322.99 274.449 323.298 274.922 323.914 275.252C324.53 275.56 325.487 275.879 326.785 276.209C328.105 276.539 329.194 276.88 330.052 277.232C330.91 277.584 331.647 278.134 332.263 278.882C332.901 279.608 333.231 280.576 333.253 281.786C333.253 282.842 332.956 283.788 332.362 284.624C331.79 285.46 330.954 286.12 329.854 286.604C328.776 287.066 327.511 287.297 326.059 287.297ZM339.389 266.54C338.575 266.54 337.893 266.287 337.343 265.781C336.815 265.253 336.551 264.604 336.551 263.834C336.551 263.064 336.815 262.426 337.343 261.92C337.893 261.392 338.575 261.128 339.389 261.128C340.203 261.128 340.874 261.392 341.402 261.92C341.952 262.426 342.227 263.064 342.227 263.834C342.227 264.604 341.952 265.253 341.402 265.781C340.874 266.287 340.203 266.54 339.389 266.54ZM341.666 268.718V287H337.046V268.718H341.666ZM345.042 277.793C345.042 275.945 345.405 274.306 346.131 272.876C346.879 271.446 347.891 270.346 349.167 269.576C350.443 268.806 351.862 268.421 353.424 268.421C354.612 268.421 355.745 268.685 356.823 269.213C357.901 269.719 358.759 270.401 359.397 271.259V262.58H364.083V287H359.397V284.294C358.825 285.196 358.022 285.922 356.988 286.472C355.954 287.022 354.755 287.297 353.391 287.297C351.851 287.297 350.443 286.901 349.167 286.109C347.891 285.317 346.879 284.206 346.131 282.776C345.405 281.324 345.042 279.663 345.042 277.793ZM359.43 277.859C359.43 276.737 359.21 275.78 358.77 274.988C358.33 274.174 357.736 273.558 356.988 273.14C356.24 272.7 355.437 272.48 354.579 272.48C353.721 272.48 352.929 272.689 352.203 273.107C351.477 273.525 350.883 274.141 350.421 274.955C349.981 275.747 349.761 276.693 349.761 277.793C349.761 278.893 349.981 279.861 350.421 280.697C350.883 281.511 351.477 282.138 352.203 282.578C352.951 283.018 353.743 283.238 354.579 283.238C355.437 283.238 356.24 283.029 356.988 282.611C357.736 282.171 358.33 281.555 358.77 280.763C359.21 279.949 359.43 278.981 359.43 277.859ZM385.59 277.463C385.59 278.123 385.546 278.717 385.458 279.245H372.093C372.203 280.565 372.665 281.599 373.479 282.347C374.293 283.095 375.294 283.469 376.482 283.469C378.198 283.469 379.419 282.732 380.145 281.258H385.128C384.6 283.018 383.588 284.47 382.092 285.614C380.596 286.736 378.759 287.297 376.581 287.297C374.821 287.297 373.237 286.912 371.829 286.142C370.443 285.35 369.354 284.239 368.562 282.809C367.792 281.379 367.407 279.729 367.407 277.859C367.407 275.967 367.792 274.306 368.562 272.876C369.332 271.446 370.41 270.346 371.796 269.576C373.182 268.806 374.777 268.421 376.581 268.421C378.319 268.421 379.87 268.795 381.234 269.543C382.62 270.291 383.687 271.358 384.435 272.744C385.205 274.108 385.59 275.681 385.59 277.463ZM380.805 276.143C380.783 274.955 380.354 274.009 379.518 273.305C378.682 272.579 377.659 272.216 376.449 272.216C375.305 272.216 374.337 272.568 373.545 273.272C372.775 273.954 372.302 274.911 372.126 276.143H380.805ZM399.094 268.454C401.272 268.454 403.032 269.147 404.374 270.533C405.716 271.897 406.387 273.811 406.387 276.275V287H401.767V276.902C401.767 275.45 401.404 274.339 400.678 273.569C399.952 272.777 398.962 272.381 397.708 272.381C396.432 272.381 395.42 272.777 394.672 273.569C393.946 274.339 393.583 275.45 393.583 276.902V287H388.963V268.718H393.583V270.995C394.199 270.203 394.98 269.587 395.926 269.147C396.894 268.685 397.95 268.454 399.094 268.454ZM409.592 277.859C409.592 275.967 409.977 274.317 410.747 272.909C411.517 271.479 412.584 270.379 413.948 269.609C415.312 268.817 416.874 268.421 418.634 268.421C420.9 268.421 422.77 268.993 424.244 270.137C425.74 271.259 426.741 272.843 427.247 274.889H422.264C422 274.097 421.549 273.481 420.911 273.041C420.295 272.579 419.525 272.348 418.601 272.348C417.281 272.348 416.236 272.832 415.466 273.8C414.696 274.746 414.311 276.099 414.311 277.859C414.311 279.597 414.696 280.95 415.466 281.918C416.236 282.864 417.281 283.337 418.601 283.337C420.471 283.337 421.692 282.501 422.264 280.829H427.247C426.741 282.809 425.74 284.382 424.244 285.548C422.748 286.714 420.878 287.297 418.634 287.297C416.874 287.297 415.312 286.912 413.948 286.142C412.584 285.35 411.517 284.25 410.747 282.842C409.977 281.412 409.592 279.751 409.592 277.859ZM447.626 277.463C447.626 278.123 447.582 278.717 447.494 279.245H434.129C434.239 280.565 434.701 281.599 435.515 282.347C436.329 283.095 437.33 283.469 438.518 283.469C440.234 283.469 441.455 282.732 442.181 281.258H447.164C446.636 283.018 445.624 284.47 444.128 285.614C442.632 286.736 440.795 287.297 438.617 287.297C436.857 287.297 435.273 286.912 433.865 286.142C432.479 285.35 431.39 284.239 430.598 282.809C429.828 281.379 429.443 279.729 429.443 277.859C429.443 275.967 429.828 274.306 430.598 272.876C431.368 271.446 432.446 270.346 433.832 269.576C435.218 268.806 436.813 268.421 438.617 268.421C440.355 268.421 441.906 268.795 443.27 269.543C444.656 270.291 445.723 271.358 446.471 272.744C447.241 274.108 447.626 275.681 447.626 277.463ZM442.841 276.143C442.819 274.955 442.39 274.009 441.554 273.305C440.718 272.579 439.695 272.216 438.485 272.216C437.341 272.216 436.373 272.568 435.581 273.272C434.811 273.954 434.338 274.911 434.162 276.143H442.841ZM359.712 313.966V337H355.092V313.966H359.712ZM368.897 313.966V337H364.277V313.966H368.897Z" fill="white"/>
<rect x="297.26" y="359.009" width="129.48" height="142" fill="#5F4E47"/>
<path d="M300.772 359.009H422.617V501.009H300.772V359.009Z" fill="#FFF3E1"/>
<path d="M426.74 359.009L422.617 364.276H300.797L297.26 359.009H426.74Z" fill="#BCAA93"/>
<path d="M431.092 353.741L426.711 359.009H297.277L293.52 353.741H431.092Z" fill="#AB5832"/>
<rect x="388.722" y="445.354" width="25.9599" height="25.9599" rx="5" fill="#A6CFD5"/>
<path fill-rule="evenodd" clip-rule="evenodd" d="M403.247 445.354H400.157V456.789H388.722V459.879H400.157V471.314H403.247V459.879H414.682V456.789H403.247V445.354Z" fill="#FFF3E1"/>
<rect x="349.021" y="406.8" width="25.9599" height="25.9599" rx="5" fill="#A6CFD5"/>
<path fill-rule="evenodd" clip-rule="evenodd" d="M363.546 406.8H360.456V418.235H349.021V421.325H360.456V432.76H363.546V421.325H374.981V418.235H363.546V406.8Z" fill="#FFF3E1"/>
<rect x="308.177" y="445.354" width="25.9599" height="25.9599" rx="5" fill="#A6CFD5"/>
<path fill-rule="evenodd" clip-rule="evenodd" d="M322.702 445.354H319.612V456.789H308.177V459.879H319.612V471.314H322.702V459.879H334.137V456.789H322.702V445.354Z" fill="#FFF3E1"/>
<rect x="388.722" y="406.8" width="25.9599" height="25.9599" rx="5" fill="#A6CFD5"/>
<path fill-rule="evenodd" clip-rule="evenodd" d="M403.247 406.8H400.157V418.235H388.722V421.325H400.157V432.76H403.247V421.325H414.682V418.235H403.247V406.8Z" fill="#FFF3E1"/>
<rect x="308.177" y="406.8" width="25.9599" height="25.9599" rx="5" fill="#A6CFD5"/>
<path fill-rule="evenodd" clip-rule="evenodd" d="M322.702 406.8H319.612V418.235H308.177V421.325H319.612V432.76H322.702V421.325H334.137V418.235H322.702V406.8Z" fill="#FFF3E1"/>
<rect x="349.021" y="368.246" width="25.9599" height="25.9599" rx="5" fill="#A6CFD5"/>
<path fill-rule="evenodd" clip-rule="evenodd" d="M363.546 368.246H360.456V379.681H349.021V382.771H360.456V394.206H363.546V382.771H374.981V379.681H363.546V368.246Z" fill="#FFF3E1"/>
<rect x="388.722" y="368.246" width="25.9599" height="25.9599" rx="5" fill="#A6CFD5"/>
<path fill-rule="evenodd" clip-rule="evenodd" d="M403.247 368.246H400.157V379.681H388.722V382.771H400.157V394.206H403.247V382.771H414.682V379.681H403.247V368.246Z" fill="#FFF3E1"/>
<rect x="308.177" y="368.246" width="25.9599" height="25.9599" rx="5" fill="#A6CFD5"/>
<path fill-rule="evenodd" clip-rule="evenodd" d="M322.702 368.246H319.612V379.681H308.177V382.771H319.612V394.206H322.702V382.771H334.137V379.681H322.702V368.246Z" fill="#FFF3E1"/>
<path fill-rule="evenodd" clip-rule="evenodd" d="M380.476 457.303C380.476 457.302 380.476 457.302 380.476 457.302C380.476 447.246 372.324 439.094 362.268 439.094C352.211 439.094 344.059 447.246 344.059 457.302C344.059 457.302 344.059 457.302 344.059 457.303V501.003H380.476V457.303Z" fill="#D27857"/>
<mask id="path-58-inside-2_808_17" fill="white">
<path d="M348.528 459.123H376.006V500.341H348.528V459.123Z"/>
</mask>
<path d="M376.006 500.341V505.341H381.006V500.341H376.006ZM348.528 500.341H343.528V505.341H348.528V500.341ZM371.006 459.123V500.341H381.006V459.123H371.006ZM376.006 495.341H348.528V505.341H376.006V495.341ZM353.528 500.341V459.123H343.528V500.341H353.528Z" fill="#AB5932" mask="url(#path-58-inside-2_808_17)"/>
<circle cx="362.267" cy="459.123" r="11.8" stroke="#AB5932" stroke-width="3.87849"/>
<rect x="352.326" y="458.807" width="19.8495" height="14.0473" fill="#D27857"/>
<rect x="349.654" y="472.396" width="24.9645" height="6.94731" fill="#AB5932"/>
<circle cx="375.014" cy="475.842" r="3.47619" fill="#FFBA02"/>
<circle cx="374.945" cy="475.859" r="3.0558" fill="#D3883E" stroke="#F9C23C"/>
<path fill-rule="evenodd" clip-rule="evenodd" d="M375.057 473.724C374.999 473.701 374.934 473.701 374.876 473.724L373.2 474.372C372.942 474.472 373.013 474.856 373.29 474.856H373.457V476.909C373.395 476.947 373.348 477.007 373.326 477.08C373.269 477.273 373.414 477.467 373.615 477.467H376.278C376.484 477.467 376.629 477.265 376.564 477.07C376.54 476.998 376.491 476.94 376.428 476.904V474.856H376.643C376.92 474.856 376.991 474.472 376.733 474.372L375.057 473.724Z" fill="#F9C23C"/>
<rect x="373.881" y="474.898" width="0.44678" height="1.96583" rx="0.22339" fill="#D3883E"/>
<rect x="374.73" y="474.898" width="0.44678" height="1.96583" rx="0.22339" fill="#D3883E"/>
<rect x="375.579" y="474.898" width="0.44678" height="1.96583" rx="0.22339" fill="#D3883E"/>
<path fill-rule="evenodd" clip-rule="evenodd" d="M335.777 491.117C335.777 491.109 335.777 491.101 335.777 491.093C335.777 491.041 335.777 490.989 335.777 490.936V489.934H335.767C335.643 484.42 333.988 475.872 312.068 480.499C293.321 476.179 288.158 484.57 288.004 489.934H288C288 489.98 288 490.026 288.001 490.071C288 490.109 288 490.146 288 490.183C288 490.3 288.005 490.418 288.016 490.536C288.329 496.565 293.316 501.356 299.422 501.356H335.777V491.117Z" fill="#728037"/>
<path fill-rule="evenodd" clip-rule="evenodd" d="M388.223 491.094V501.357H424.577C430.683 501.357 435.67 496.566 435.983 490.539C435.994 490.42 435.999 490.302 435.999 490.184C435.999 490.146 435.999 490.107 435.998 490.069C435.999 490.024 435.999 489.98 435.999 489.935H435.995C435.842 484.571 430.678 476.18 411.931 480.5C390.011 475.873 388.356 484.42 388.232 489.935H388.223V491.094Z" fill="#728037"/>
<rect x="291" y="350" width="142" height="3.74086" rx="1.87043" fill="#ED6C31"/>
<rect x="493" y="230" width="138" height="271" rx="32" fill="#FFB08C"/>
<g filter="url(#filter0_d_808_17)">
<rect x="22" y="607" width="495" height="113" rx="15" fill="#F5F5F5"/>
</g>
<g filter="url(#filter1_d_808_17)">
<rect x="22" y="607" width="495" height="113" rx="15" fill="#F5F5F5"/>
</g>
<path d="M53 639H207" stroke="#CCCCCC" stroke-width="15" stroke-linecap="round"/>
<path d="M53 660H130" stroke="#CCCCCC" stroke-width="15" stroke-linecap="round"/>
<path d="M410 663H487" stroke="#FF5757" stroke-width="25" stroke-linecap="round"/>
<g filter="url(#filter2_d_808_17)">
<rect x="22" y="743" width="495" height="113" rx="15" fill="#F5F5F5"/>
</g>
<path d="M53 775H207" stroke="#CCCCCC" stroke-width="15" stroke-linecap="round"/>
<path d="M53 796H130" stroke="#CCCCCC" stroke-width="15" stroke-linecap="round"/>
<path d="M410 799H487" stroke="#FF5757" stroke-width="25" stroke-linecap="round"/>
</g>
<defs>
<filter id="filter0_d_808_17" x="18" y="607" width="503" height="121" filterUnits="userSpaceOnUse" color-interpolation-filters="sRGB">
<feFlood flood-opacity="0" result="BackgroundImageFix"/>
<feColorMatrix in="SourceAlpha" type="matrix" values="0 0 0 0 0 0 0 0 0 0 0 0 0 0 0 0 0 0 127 0" result="hardAlpha"/>
<feOffset dy="4"/>
<feGaussianBlur stdDeviation="2"/>
<feComposite in2="hardAlpha" operator="out"/>
<feColorMatrix type="matrix" values="0 0 0 0 0 0 0 0 0 0 0 0 0 0 0 0 0 0 0.25 0"/>
<feBlend mode="normal" in2="BackgroundImageFix" result="effect1_dropShadow_808_17"/>
<feBlend mode="normal" in="SourceGraphic" in2="effect1_dropShadow_808_17" result="shape"/>
</filter>
<filter id="filter1_d_808_17" x="18" y="607" width="503" height="121" filterUnits="userSpaceOnUse" color-interpolation-filters="sRGB">
<feFlood flood-opacity="0" result="BackgroundImageFix"/>
<feColorMatrix in="SourceAlpha" type="matrix" values="0 0 0 0 0 0 0 0 0 0 0 0 0 0 0 0 0 0 127 0" result="hardAlpha"/>
<feOffset dy="4"/>
<feGaussianBlur stdDeviation="2"/>
<feComposite in2="hardAlpha" operator="out"/>
<feColorMatrix type="matrix" values="0 0 0 0 0 0 0 0 0 0 0 0 0 0 0 0 0 0 0.25 0"/>
<feBlend mode="normal" in2="BackgroundImageFix" result="effect1_dropShadow_808_17"/>
<feBlend mode="normal" in="SourceGraphic" in2="effect1_dropShadow_808_17" result="shape"/>
</filter>
<filter id="filter2_d_808_17" x="18" y="743" width="503" height="121" filterUnits="userSpaceOnUse" color-interpolation-filters="sRGB">
<feFlood flood-opacity="0" result="BackgroundImageFix"/>
<feColorMatrix in="SourceAlpha" type="matrix" values="0 0 0 0 0 0 0 0 0 0 0 0 0 0 0 0 0 0 127 0" result="hardAlpha"/>
<feOffset dy="4"/>
<feGaussianBlur stdDeviation="2"/>
<feComposite in2="hardAlpha" operator="out"/>
<feColorMatrix type="matrix" values="0 0 0 0 0 0 0 0 0 0 0 0 0 0 0 0 0 0 0.25 0"/>
<feBlend mode="normal" in2="BackgroundImageFix" result="effect1_dropShadow_808_17"/>
<feBlend mode="normal" in="SourceGraphic" in2="effect1_dropShadow_808_17" result="shape"/>
</filter>
<clipPath id="clip0_808_17">
<rect width="539" height="1171" rx="15" fill="white"/>
</clipPath>
</defs>
</svg>
