<svg width="1242" height="740" viewBox="0 0 1242 740" fill="none" xmlns="http://www.w3.org/2000/svg">
<g filter="url(#filter0_d_212_89)">
<rect x="4" width="1234" height="732" rx="15" fill="white"/>
<path d="M472 182H557.5M472 329H557.5M557.5 476H472M557.5 623H472" stroke="#FF9B05" stroke-width="2" stroke-linecap="round"/>
<path d="M4 15C4 6.71573 10.7157 0 19 0H1223C1231.28 0 1238 6.71573 1238 15V48H4V15Z" fill="#151616"/>
<rect x="268.5" y="73.5" width="146" height="27" rx="4.5" stroke="#FF9B05"/>
<rect x="474.5" y="73.5" width="146" height="27" rx="4.5" stroke="#FF9B05"/>
<rect x="249.5" y="152.5" width="739" height="132" rx="3.5" stroke="#FF9B05" stroke-width="3"/>
<path d="M781 542.5H816.732M781 243.5H816.732M781 391.5H816.732M781 690H816.732" stroke="#D9D9D9" stroke-width="13" stroke-linecap="round"/>
<rect x="249.5" y="298.5" width="739" height="132" rx="3.5" stroke="#FF9B05" stroke-width="3"/>
<rect x="249.5" y="445.5" width="739" height="132" rx="3.5" stroke="#FF9B05" stroke-width="3"/>
<rect x="249.5" y="591.5" width="739" height="132" rx="3.5" stroke="#FF9B05" stroke-width="3"/>
<rect x="638.5" y="73.5" width="105" height="27" rx="4.5" stroke="#FF9B05"/>
<path d="M322 189H380.5M639 189H696.5" stroke="#F6F3F3" stroke-width="12" stroke-linecap="round"/>
<path d="M322 335H380.5M639 335H696.5" stroke="#F6F3F3" stroke-width="12" stroke-linecap="round"/>
<path d="M322 629H380.5M639 629H696.5" stroke="#F6F3F3" stroke-width="12" stroke-linecap="round"/>
<path d="M322 671H380.5M639 671H696.5" stroke="#F6F3F3" stroke-width="5" stroke-linecap="round"/>
<path d="M322 524H380.5M639 524H696.5" stroke="#F6F3F3" stroke-width="5" stroke-linecap="round"/>
<path d="M322 377H380.5M639 377H696.5" stroke="#F6F3F3" stroke-width="5" stroke-linecap="round"/>
<path d="M322 230H380.5M639 230H696.5" stroke="#F6F3F3" stroke-width="5" stroke-linecap="round"/>
<path d="M322 481H380.5M639 481H696.5" stroke="#F6F3F3" stroke-width="12" stroke-linecap="round"/>
<rect x="873" y="204" width="61" height="29" rx="10" fill="#FF9B05"/>
<rect x="842" y="73" width="132" height="29" rx="10" fill="#FF9B05"/>
<path d="M891.885 223V212.818H895.962C896.711 212.818 897.335 212.929 897.836 213.151C898.336 213.373 898.713 213.682 898.964 214.076C899.216 214.467 899.342 214.918 899.342 215.428C899.342 215.826 899.263 216.176 899.104 216.477C898.945 216.776 898.726 217.021 898.447 217.213C898.172 217.402 897.857 217.536 897.503 217.616V217.715C897.891 217.732 898.254 217.841 898.592 218.043C898.933 218.246 899.21 218.529 899.422 218.893C899.634 219.255 899.74 219.686 899.74 220.186C899.74 220.726 899.606 221.209 899.337 221.633C899.072 222.054 898.679 222.387 898.159 222.632C897.639 222.877 896.997 223 896.235 223H891.885ZM894.038 221.24H895.793C896.393 221.24 896.83 221.126 897.105 220.897C897.38 220.665 897.518 220.357 897.518 219.972C897.518 219.691 897.45 219.442 897.314 219.227C897.178 219.011 896.984 218.842 896.732 218.719C896.484 218.597 896.187 218.536 895.842 218.536H894.038V221.24ZM894.038 217.079H895.634C895.929 217.079 896.19 217.027 896.419 216.925C896.651 216.819 896.833 216.67 896.966 216.477C897.102 216.285 897.17 216.055 897.17 215.786C897.17 215.418 897.039 215.122 896.777 214.896C896.518 214.671 896.151 214.558 895.673 214.558H894.038V217.079ZM905.998 219.749V215.364H908.116V223H906.083V221.613H906.003C905.831 222.06 905.544 222.42 905.143 222.692C904.745 222.964 904.26 223.099 903.686 223.099C903.176 223.099 902.727 222.983 902.339 222.751C901.951 222.519 901.648 222.19 901.429 221.762C901.214 221.335 901.104 220.822 901.101 220.226V215.364H903.219V219.848C903.222 220.299 903.343 220.655 903.582 220.917C903.82 221.179 904.14 221.31 904.541 221.31C904.797 221.31 905.035 221.252 905.257 221.136C905.479 221.016 905.658 220.841 905.794 220.609C905.933 220.377 906.001 220.09 905.998 219.749ZM911.118 225.864C910.849 225.864 910.597 225.842 910.362 225.799C910.13 225.759 909.938 225.708 909.785 225.645L910.262 224.064C910.511 224.14 910.735 224.182 910.934 224.188C911.136 224.195 911.31 224.148 911.456 224.049C911.605 223.95 911.726 223.781 911.819 223.542L911.943 223.219L909.203 215.364H911.431L913.012 220.972H913.091L914.687 215.364H916.929L913.961 223.825C913.819 224.236 913.625 224.594 913.38 224.899C913.138 225.207 912.831 225.444 912.46 225.61C912.089 225.779 911.641 225.864 911.118 225.864Z" fill="white"/>
<path d="M889.408 85.7464C889.369 85.3454 889.198 85.0339 888.896 84.8118C888.595 84.5897 888.185 84.4787 887.668 84.4787C887.317 84.4787 887.02 84.5284 886.778 84.6278C886.536 84.724 886.351 84.8582 886.222 85.0305C886.096 85.2029 886.033 85.3984 886.033 85.6172C886.026 85.7995 886.064 85.9586 886.147 86.0945C886.233 86.2304 886.351 86.348 886.5 86.4474C886.649 86.5436 886.821 86.6281 887.017 86.701C887.213 86.7706 887.421 86.8303 887.643 86.88L888.558 87.0987C889.002 87.1982 889.41 87.3307 889.781 87.4964C890.152 87.6622 890.474 87.866 890.746 88.108C891.018 88.3499 891.228 88.6349 891.377 88.9631C891.53 89.2912 891.607 89.6674 891.611 90.0916C891.607 90.7147 891.448 91.255 891.134 91.7124C890.822 92.1664 890.371 92.5194 889.781 92.7713C889.195 93.0199 888.487 93.1442 887.658 93.1442C886.836 93.1442 886.121 93.0182 885.511 92.7663C884.904 92.5144 884.43 92.1416 884.089 91.6477C883.751 91.1506 883.573 90.5357 883.557 89.8033H885.64C885.663 90.1446 885.761 90.4297 885.933 90.6584C886.109 90.8838 886.343 91.0545 886.634 91.1705C886.929 91.2831 887.262 91.3395 887.634 91.3395C887.998 91.3395 888.315 91.2865 888.583 91.1804C888.855 91.0743 889.065 90.9268 889.214 90.7379C889.364 90.549 889.438 90.3319 889.438 90.0866C889.438 89.858 889.37 89.6657 889.234 89.5099C889.102 89.3542 888.906 89.2216 888.648 89.1122C888.393 89.0028 888.079 88.9034 887.708 88.8139L886.599 88.5355C885.741 88.3267 885.063 88.0002 884.566 87.5561C884.069 87.112 883.822 86.5137 883.825 85.7614C883.822 85.1449 883.986 84.6063 884.317 84.1456C884.652 83.6849 885.111 83.3253 885.695 83.0668C886.278 82.8082 886.941 82.679 887.683 82.679C888.439 82.679 889.098 82.8082 889.662 83.0668C890.229 83.3253 890.67 83.6849 890.984 84.1456C891.299 84.6063 891.462 85.1399 891.472 85.7464H889.408ZM896.499 93.1491C895.714 93.1491 895.037 92.9901 894.471 92.6719C893.907 92.3504 893.473 91.8963 893.168 91.3097C892.863 90.7197 892.711 90.022 892.711 89.2166C892.711 88.4311 892.863 87.7417 893.168 87.1484C893.473 86.5552 893.902 86.0928 894.456 85.7614C895.013 85.4299 895.666 85.2642 896.415 85.2642C896.918 85.2642 897.387 85.3454 897.822 85.5078C898.259 85.6669 898.64 85.9072 898.965 86.2287C899.293 86.5502 899.548 86.9545 899.731 87.4418C899.913 87.9257 900.004 88.4924 900.004 89.142V89.7237H893.556V88.4112H898.01C898.01 88.1063 897.944 87.8362 897.812 87.6009C897.679 87.3655 897.495 87.1816 897.26 87.049C897.028 86.9131 896.758 86.8452 896.449 86.8452C896.128 86.8452 895.843 86.9197 895.594 87.0689C895.349 87.2147 895.157 87.4119 895.018 87.6605C894.878 87.9058 894.807 88.1792 894.804 88.4808V89.7287C894.804 90.1065 894.873 90.433 895.013 90.7081C895.155 90.9832 895.356 91.1953 895.614 91.3445C895.873 91.4936 896.179 91.5682 896.534 91.5682C896.769 91.5682 896.985 91.535 897.18 91.4688C897.376 91.4025 897.543 91.303 897.682 91.1705C897.822 91.0379 897.928 90.8755 898.001 90.6832L899.959 90.8125C899.86 91.2831 899.656 91.6941 899.348 92.0455C899.043 92.3935 898.648 92.6652 898.165 92.8608C897.684 93.053 897.129 93.1491 896.499 93.1491ZM903.564 93.1442C903.077 93.1442 902.642 93.0597 902.261 92.8906C901.88 92.7183 901.578 92.4647 901.356 92.13C901.138 91.7919 901.028 91.371 901.028 90.8672C901.028 90.4429 901.106 90.0866 901.262 89.7983C901.418 89.5099 901.63 89.2779 901.898 89.1023C902.167 88.9266 902.472 88.794 902.813 88.7045C903.158 88.6151 903.519 88.5521 903.897 88.5156C904.341 88.4692 904.699 88.4261 904.971 88.3864C905.242 88.3433 905.44 88.2803 905.562 88.1974C905.685 88.1146 905.746 87.992 905.746 87.8295V87.7997C905.746 87.4848 905.647 87.2412 905.448 87.0689C905.252 86.8965 904.974 86.8104 904.613 86.8104C904.232 86.8104 903.928 86.8949 903.703 87.0639C903.478 87.2296 903.328 87.4384 903.256 87.6903L901.297 87.5312C901.396 87.0672 901.592 86.6662 901.883 86.3281C902.175 85.9867 902.551 85.7249 903.012 85.5426C903.476 85.357 904.013 85.2642 904.623 85.2642C905.047 85.2642 905.453 85.3139 905.841 85.4134C906.232 85.5128 906.578 85.6669 906.88 85.8757C907.185 86.0845 907.425 86.353 907.601 86.6811C907.776 87.0059 907.864 87.3954 907.864 87.8494V93H905.856V91.9411H905.796C905.673 92.1797 905.509 92.3902 905.304 92.5724C905.098 92.7514 904.851 92.8923 904.563 92.995C904.275 93.0945 903.942 93.1442 903.564 93.1442ZM904.17 91.6825C904.482 91.6825 904.757 91.6212 904.996 91.4986C905.234 91.3726 905.421 91.2036 905.557 90.9915C905.693 90.7794 905.761 90.5391 905.761 90.2706V89.4602C905.695 89.5033 905.604 89.5431 905.488 89.5795C905.375 89.6127 905.247 89.6442 905.105 89.674C904.962 89.7005 904.82 89.7254 904.677 89.7486C904.535 89.7685 904.406 89.7867 904.29 89.8033C904.041 89.8397 903.824 89.8977 903.638 89.9773C903.453 90.0568 903.309 90.1645 903.206 90.3004C903.103 90.433 903.052 90.5987 903.052 90.7976C903.052 91.0859 903.156 91.3063 903.365 91.4588C903.577 91.608 903.845 91.6825 904.17 91.6825ZM909.507 93V85.3636H911.561V86.696H911.64C911.779 86.2221 912.013 85.8641 912.341 85.6222C912.669 85.3769 913.047 85.2543 913.475 85.2543C913.581 85.2543 913.695 85.2609 913.818 85.2741C913.94 85.2874 914.048 85.3056 914.141 85.3288V87.2081C914.041 87.1783 913.904 87.1518 913.728 87.1286C913.552 87.1054 913.392 87.0938 913.246 87.0938C912.934 87.0938 912.656 87.1617 912.411 87.2976C912.169 87.4302 911.977 87.6158 911.834 87.8544C911.695 88.093 911.625 88.3681 911.625 88.6797V93H909.507ZM918.331 93.1491C917.548 93.1491 916.876 92.9834 916.312 92.652C915.752 92.3172 915.321 91.8532 915.02 91.2599C914.721 90.6667 914.572 89.9839 914.572 89.2116C914.572 88.4295 914.723 87.7434 915.025 87.1534C915.329 86.5601 915.762 86.0978 916.322 85.7663C916.882 85.4316 917.548 85.2642 918.321 85.2642C918.987 85.2642 919.57 85.3852 920.071 85.6271C920.571 85.8691 920.967 86.2088 921.259 86.6463C921.551 87.0838 921.711 87.5975 921.741 88.1875H919.743C919.686 87.8063 919.537 87.4998 919.295 87.2678C919.056 87.0324 918.743 86.9148 918.355 86.9148C918.027 86.9148 917.741 87.0043 917.495 87.1832C917.253 87.3589 917.065 87.6158 916.929 87.9538C916.793 88.2919 916.725 88.7012 916.725 89.1818C916.725 89.669 916.791 90.0833 916.924 90.4247C917.06 90.7661 917.25 91.0263 917.495 91.2053C917.741 91.3842 918.027 91.4737 918.355 91.4737C918.597 91.4737 918.815 91.424 919.007 91.3246C919.202 91.2251 919.363 91.081 919.489 90.892C919.618 90.6998 919.703 90.4695 919.743 90.201H921.741C921.708 90.7843 921.549 91.2981 921.264 91.7422C920.982 92.183 920.593 92.5277 920.096 92.7763C919.598 93.0249 919.01 93.1491 918.331 93.1491ZM925.215 88.5852V93H923.097V82.8182H925.155V86.7109H925.245C925.417 86.2602 925.696 85.9072 926.08 85.652C926.465 85.3935 926.947 85.2642 927.527 85.2642C928.057 85.2642 928.519 85.3802 928.914 85.6122C929.312 85.8409 929.62 86.1707 929.839 86.6016C930.061 87.0291 930.17 87.5412 930.167 88.1378V93H928.049V88.5156C928.052 88.045 927.933 87.6787 927.691 87.4169C927.452 87.1551 927.117 87.0241 926.687 87.0241C926.398 87.0241 926.143 87.0855 925.921 87.2081C925.702 87.3307 925.53 87.5097 925.404 87.745C925.281 87.977 925.218 88.2571 925.215 88.5852Z" fill="white"/>
<path d="M779.71 183.99V181.455H791.656V183.99H787.203V196H784.163V183.99H779.71ZM802.604 186.156C802.505 185.811 802.365 185.505 802.185 185.24C802.005 184.97 801.785 184.743 801.525 184.558C801.269 184.369 800.976 184.224 800.644 184.125C800.317 184.026 799.955 183.976 799.558 183.976C798.814 183.976 798.161 184.161 797.597 184.53C797.039 184.899 796.603 185.437 796.29 186.142C795.978 186.843 795.822 187.7 795.822 188.713C795.822 189.726 795.976 190.588 796.283 191.298C796.591 192.009 797.027 192.551 797.59 192.925C798.154 193.294 798.819 193.479 799.586 193.479C800.282 193.479 800.876 193.356 801.369 193.109C801.866 192.858 802.245 192.506 802.505 192.051C802.77 191.597 802.903 191.059 802.903 190.439L803.528 190.531H799.778V188.216H805.864V190.048C805.864 191.327 805.594 192.425 805.055 193.344C804.515 194.258 803.772 194.963 802.825 195.46C801.878 195.953 800.793 196.199 799.572 196.199C798.208 196.199 797.01 195.898 795.978 195.297C794.946 194.691 794.141 193.831 793.563 192.719C792.99 191.601 792.704 190.276 792.704 188.741C792.704 187.562 792.874 186.511 793.215 185.588C793.561 184.66 794.044 183.874 794.664 183.23C795.284 182.586 796.006 182.096 796.83 181.76C797.654 181.424 798.547 181.256 799.508 181.256C800.332 181.256 801.099 181.376 801.809 181.618C802.519 181.855 803.149 182.191 803.698 182.626C804.252 183.062 804.704 183.58 805.055 184.182C805.405 184.778 805.63 185.437 805.729 186.156H802.604ZM810.353 181.455L813.869 192.506H814.004L817.526 181.455H820.935L815.921 196H811.958L806.937 181.455H810.353Z" fill="#FF9B05"/>
<path d="M780.71 329.99V327.455H792.656V329.99H788.203V342H785.163V329.99H780.71ZM803.604 332.156C803.505 331.811 803.365 331.505 803.185 331.24C803.005 330.97 802.785 330.743 802.525 330.558C802.269 330.369 801.976 330.224 801.644 330.125C801.317 330.026 800.955 329.976 800.558 329.976C799.814 329.976 799.161 330.161 798.597 330.53C798.039 330.899 797.603 331.437 797.29 332.142C796.978 332.843 796.822 333.7 796.822 334.713C796.822 335.726 796.976 336.588 797.283 337.298C797.591 338.009 798.027 338.551 798.59 338.925C799.154 339.294 799.819 339.479 800.586 339.479C801.282 339.479 801.876 339.356 802.369 339.109C802.866 338.858 803.245 338.506 803.505 338.051C803.77 337.597 803.903 337.059 803.903 336.439L804.528 336.531H800.778V334.216H806.864V336.048C806.864 337.327 806.594 338.425 806.055 339.344C805.515 340.258 804.772 340.963 803.825 341.46C802.878 341.953 801.793 342.199 800.572 342.199C799.208 342.199 798.01 341.898 796.978 341.297C795.946 340.691 795.141 339.831 794.563 338.719C793.99 337.601 793.704 336.276 793.704 334.741C793.704 333.562 793.874 332.511 794.215 331.588C794.561 330.66 795.044 329.874 795.664 329.23C796.284 328.586 797.006 328.096 797.83 327.76C798.654 327.424 799.547 327.256 800.508 327.256C801.332 327.256 802.099 327.376 802.809 327.618C803.519 327.855 804.149 328.191 804.698 328.626C805.252 329.062 805.704 329.58 806.055 330.182C806.405 330.778 806.63 331.437 806.729 332.156H803.604ZM811.353 327.455L814.869 338.506H815.004L818.526 327.455H821.935L816.921 342H812.958L807.937 327.455H811.353Z" fill="#FF9B05"/>
<path d="M780.71 477.99V475.455H792.656V477.99H788.203V490H785.163V477.99H780.71ZM803.604 480.156C803.505 479.811 803.365 479.505 803.185 479.24C803.005 478.97 802.785 478.743 802.525 478.558C802.269 478.369 801.976 478.224 801.644 478.125C801.317 478.026 800.955 477.976 800.558 477.976C799.814 477.976 799.161 478.161 798.597 478.53C798.039 478.899 797.603 479.437 797.29 480.142C796.978 480.843 796.822 481.7 796.822 482.713C796.822 483.726 796.976 484.588 797.283 485.298C797.591 486.009 798.027 486.551 798.59 486.925C799.154 487.294 799.819 487.479 800.586 487.479C801.282 487.479 801.876 487.356 802.369 487.109C802.866 486.858 803.245 486.506 803.505 486.051C803.77 485.597 803.903 485.059 803.903 484.439L804.528 484.531H800.778V482.216H806.864V484.048C806.864 485.327 806.594 486.425 806.055 487.344C805.515 488.258 804.772 488.963 803.825 489.46C802.878 489.953 801.793 490.199 800.572 490.199C799.208 490.199 798.01 489.898 796.978 489.297C795.946 488.691 795.141 487.831 794.563 486.719C793.99 485.601 793.704 484.276 793.704 482.741C793.704 481.562 793.874 480.511 794.215 479.588C794.561 478.66 795.044 477.874 795.664 477.23C796.284 476.586 797.006 476.096 797.83 475.76C798.654 475.424 799.547 475.256 800.508 475.256C801.332 475.256 802.099 475.376 802.809 475.618C803.519 475.855 804.149 476.191 804.698 476.626C805.252 477.062 805.704 477.58 806.055 478.182C806.405 478.778 806.63 479.437 806.729 480.156H803.604ZM811.353 475.455L814.869 486.506H815.004L818.526 475.455H821.935L816.921 490H812.958L807.937 475.455H811.353Z" fill="#FF9B05"/>
<path d="M781.71 623.99V621.455H793.656V623.99H789.203V636H786.163V623.99H781.71ZM804.604 626.156C804.505 625.811 804.365 625.505 804.185 625.24C804.005 624.97 803.785 624.743 803.525 624.558C803.269 624.369 802.976 624.224 802.644 624.125C802.317 624.026 801.955 623.976 801.558 623.976C800.814 623.976 800.161 624.161 799.597 624.53C799.039 624.899 798.603 625.437 798.29 626.142C797.978 626.843 797.822 627.7 797.822 628.713C797.822 629.726 797.976 630.588 798.283 631.298C798.591 632.009 799.027 632.551 799.59 632.925C800.154 633.294 800.819 633.479 801.586 633.479C802.282 633.479 802.876 633.356 803.369 633.109C803.866 632.858 804.245 632.506 804.505 632.051C804.77 631.597 804.903 631.059 804.903 630.439L805.528 630.531H801.778V628.216H807.864V630.048C807.864 631.327 807.594 632.425 807.055 633.344C806.515 634.258 805.772 634.963 804.825 635.46C803.878 635.953 802.793 636.199 801.572 636.199C800.208 636.199 799.01 635.898 797.978 635.297C796.946 634.691 796.141 633.831 795.563 632.719C794.99 631.601 794.704 630.276 794.704 628.741C794.704 627.562 794.874 626.511 795.215 625.588C795.561 624.66 796.044 623.874 796.664 623.23C797.284 622.586 798.006 622.096 798.83 621.76C799.654 621.424 800.547 621.256 801.508 621.256C802.332 621.256 803.099 621.376 803.809 621.618C804.519 621.855 805.149 622.191 805.698 622.626C806.252 623.062 806.704 623.58 807.055 624.182C807.405 624.778 807.63 625.437 807.729 626.156H804.604ZM812.353 621.455L815.869 632.506H816.004L819.526 621.455H822.935L817.921 636H813.958L808.937 621.455H812.353Z" fill="#FF9B05"/>
<rect x="873" y="350" width="61" height="29" rx="10" fill="#FF9B05"/>
<path d="M891.885 369V358.818H895.962C896.711 358.818 897.335 358.929 897.836 359.151C898.336 359.373 898.713 359.682 898.964 360.076C899.216 360.467 899.342 360.918 899.342 361.428C899.342 361.826 899.263 362.176 899.104 362.477C898.945 362.776 898.726 363.021 898.447 363.213C898.172 363.402 897.857 363.536 897.503 363.616V363.715C897.891 363.732 898.254 363.841 898.592 364.043C898.933 364.246 899.21 364.529 899.422 364.893C899.634 365.255 899.74 365.686 899.74 366.186C899.74 366.726 899.606 367.209 899.337 367.633C899.072 368.054 898.679 368.387 898.159 368.632C897.639 368.877 896.997 369 896.235 369H891.885ZM894.038 367.24H895.793C896.393 367.24 896.83 367.126 897.105 366.897C897.38 366.665 897.518 366.357 897.518 365.972C897.518 365.691 897.45 365.442 897.314 365.227C897.178 365.011 896.984 364.842 896.732 364.719C896.484 364.597 896.187 364.536 895.842 364.536H894.038V367.24ZM894.038 363.079H895.634C895.929 363.079 896.19 363.027 896.419 362.925C896.651 362.819 896.833 362.67 896.966 362.477C897.102 362.285 897.17 362.055 897.17 361.786C897.17 361.418 897.039 361.122 896.777 360.896C896.518 360.671 896.151 360.558 895.673 360.558H894.038V363.079ZM905.998 365.749V361.364H908.116V369H906.083V367.613H906.003C905.831 368.06 905.544 368.42 905.143 368.692C904.745 368.964 904.26 369.099 903.686 369.099C903.176 369.099 902.727 368.983 902.339 368.751C901.951 368.519 901.648 368.19 901.429 367.762C901.214 367.335 901.104 366.822 901.101 366.226V361.364H903.219V365.848C903.222 366.299 903.343 366.655 903.582 366.917C903.82 367.179 904.14 367.31 904.541 367.31C904.797 367.31 905.035 367.252 905.257 367.136C905.479 367.016 905.658 366.841 905.794 366.609C905.933 366.377 906.001 366.09 905.998 365.749ZM911.118 371.864C910.849 371.864 910.597 371.842 910.362 371.799C910.13 371.759 909.938 371.708 909.785 371.645L910.262 370.064C910.511 370.14 910.735 370.182 910.934 370.188C911.136 370.195 911.31 370.148 911.456 370.049C911.605 369.95 911.726 369.781 911.819 369.542L911.943 369.219L909.203 361.364H911.431L913.012 366.972H913.091L914.687 361.364H916.929L913.961 369.825C913.819 370.236 913.625 370.594 913.38 370.899C913.138 371.207 912.831 371.444 912.46 371.61C912.089 371.779 911.641 371.864 911.118 371.864Z" fill="white"/>
<rect x="873" y="498" width="61" height="29" rx="10" fill="#FF9B05"/>
<path d="M891.885 517V506.818H895.962C896.711 506.818 897.335 506.929 897.836 507.151C898.336 507.373 898.713 507.682 898.964 508.076C899.216 508.467 899.342 508.918 899.342 509.428C899.342 509.826 899.263 510.176 899.104 510.477C898.945 510.776 898.726 511.021 898.447 511.213C898.172 511.402 897.857 511.536 897.503 511.616V511.715C897.891 511.732 898.254 511.841 898.592 512.043C898.933 512.246 899.21 512.529 899.422 512.893C899.634 513.255 899.74 513.686 899.74 514.186C899.74 514.726 899.606 515.209 899.337 515.633C899.072 516.054 898.679 516.387 898.159 516.632C897.639 516.877 896.997 517 896.235 517H891.885ZM894.038 515.24H895.793C896.393 515.24 896.83 515.126 897.105 514.897C897.38 514.665 897.518 514.357 897.518 513.972C897.518 513.691 897.45 513.442 897.314 513.227C897.178 513.011 896.984 512.842 896.732 512.719C896.484 512.597 896.187 512.536 895.842 512.536H894.038V515.24ZM894.038 511.079H895.634C895.929 511.079 896.19 511.027 896.419 510.925C896.651 510.819 896.833 510.67 896.966 510.477C897.102 510.285 897.17 510.055 897.17 509.786C897.17 509.418 897.039 509.122 896.777 508.896C896.518 508.671 896.151 508.558 895.673 508.558H894.038V511.079ZM905.998 513.749V509.364H908.116V517H906.083V515.613H906.003C905.831 516.06 905.544 516.42 905.143 516.692C904.745 516.964 904.26 517.099 903.686 517.099C903.176 517.099 902.727 516.983 902.339 516.751C901.951 516.519 901.648 516.19 901.429 515.762C901.214 515.335 901.104 514.822 901.101 514.226V509.364H903.219V513.848C903.222 514.299 903.343 514.655 903.582 514.917C903.82 515.179 904.14 515.31 904.541 515.31C904.797 515.31 905.035 515.252 905.257 515.136C905.479 515.016 905.658 514.841 905.794 514.609C905.933 514.377 906.001 514.09 905.998 513.749ZM911.118 519.864C910.849 519.864 910.597 519.842 910.362 519.799C910.13 519.759 909.938 519.708 909.785 519.645L910.262 518.064C910.511 518.14 910.735 518.182 910.934 518.188C911.136 518.195 911.31 518.148 911.456 518.049C911.605 517.95 911.726 517.781 911.819 517.542L911.943 517.219L909.203 509.364H911.431L913.012 514.972H913.091L914.687 509.364H916.929L913.961 517.825C913.819 518.236 913.625 518.594 913.38 518.899C913.138 519.207 912.831 519.444 912.46 519.61C912.089 519.779 911.641 519.864 911.118 519.864Z" fill="white"/>
<rect x="873" y="644" width="61" height="29" rx="10" fill="#FF9B05"/>
<path d="M891.885 663V652.818H895.962C896.711 652.818 897.335 652.929 897.836 653.151C898.336 653.373 898.713 653.682 898.964 654.076C899.216 654.467 899.342 654.918 899.342 655.428C899.342 655.826 899.263 656.176 899.104 656.477C898.945 656.776 898.726 657.021 898.447 657.213C898.172 657.402 897.857 657.536 897.503 657.616V657.715C897.891 657.732 898.254 657.841 898.592 658.043C898.933 658.246 899.21 658.529 899.422 658.893C899.634 659.255 899.74 659.686 899.74 660.186C899.74 660.726 899.606 661.209 899.337 661.633C899.072 662.054 898.679 662.387 898.159 662.632C897.639 662.877 896.997 663 896.235 663H891.885ZM894.038 661.24H895.793C896.393 661.24 896.83 661.126 897.105 660.897C897.38 660.665 897.518 660.357 897.518 659.972C897.518 659.691 897.45 659.442 897.314 659.227C897.178 659.011 896.984 658.842 896.732 658.719C896.484 658.597 896.187 658.536 895.842 658.536H894.038V661.24ZM894.038 657.079H895.634C895.929 657.079 896.19 657.027 896.419 656.925C896.651 656.819 896.833 656.67 896.966 656.477C897.102 656.285 897.17 656.055 897.17 655.786C897.17 655.418 897.039 655.122 896.777 654.896C896.518 654.671 896.151 654.558 895.673 654.558H894.038V657.079ZM905.998 659.749V655.364H908.116V663H906.083V661.613H906.003C905.831 662.06 905.544 662.42 905.143 662.692C904.745 662.964 904.26 663.099 903.686 663.099C903.176 663.099 902.727 662.983 902.339 662.751C901.951 662.519 901.648 662.19 901.429 661.762C901.214 661.335 901.104 660.822 901.101 660.226V655.364H903.219V659.848C903.222 660.299 903.343 660.655 903.582 660.917C903.82 661.179 904.14 661.31 904.541 661.31C904.797 661.31 905.035 661.252 905.257 661.136C905.479 661.016 905.658 660.841 905.794 660.609C905.933 660.377 906.001 660.09 905.998 659.749ZM911.118 665.864C910.849 665.864 910.597 665.842 910.362 665.799C910.13 665.759 909.938 665.708 909.785 665.645L910.262 664.064C910.511 664.14 910.735 664.182 910.934 664.188C911.136 664.195 911.31 664.148 911.456 664.049C911.605 663.95 911.726 663.781 911.819 663.542L911.943 663.219L909.203 655.364H911.431L913.012 660.972H913.091L914.687 655.364H916.929L913.961 663.825C913.819 664.236 913.625 664.594 913.38 664.899C913.138 665.207 912.831 665.444 912.46 665.61C912.089 665.779 911.641 665.864 911.118 665.864Z" fill="white"/>
<path d="M28.2144 34.8947H50.9593C50.9593 34.8947 83.3602 35.9676 65.765 25.2388C56.9674 20.5182 53.3196 17.2996 50.9593 17.2996C48.599 17.2996 28.2144 17.2996 28.2144 17.2996" stroke="#FF9B05" stroke-width="2" stroke-linecap="round"/>
<path d="M28 39.1863H61.6883" stroke="#FF9B05" stroke-width="2" stroke-linecap="round"/>
<path d="M31.8624 14.2956L34.6519 7M34.6519 7H28.4292M34.6519 7H40.8746" stroke="#FF9B05" stroke-width="2" stroke-linecap="round"/>
<circle cx="1211.5" cy="23.5" r="18.5" stroke="#FF9B05" stroke-width="2"/>
<circle cx="1211.69" cy="17.5403" r="5.85455" stroke="#FF9B05" stroke-width="2"/>
<mask id="path-40-inside-1_212_89" fill="white">
<path d="M1222.46 34.6486C1222.46 31.5321 1221.32 28.5433 1219.3 26.3396C1217.28 24.136 1214.54 22.8979 1211.69 22.8979C1208.83 22.8979 1206.09 24.136 1204.07 26.3396C1202.05 28.5433 1200.91 31.5321 1200.91 34.6486L1211.69 34.6486H1222.46Z"/>
</mask>
<path d="M1222.46 34.6486C1222.46 31.5321 1221.32 28.5433 1219.3 26.3396C1217.28 24.136 1214.54 22.8979 1211.69 22.8979C1208.83 22.8979 1206.09 24.136 1204.07 26.3396C1202.05 28.5433 1200.91 31.5321 1200.91 34.6486L1211.69 34.6486H1222.46Z" stroke="#FF9B05" stroke-width="4" mask="url(#path-40-inside-1_212_89)"/>
</g>
<defs>
<filter id="filter0_d_212_89" x="0" y="0" width="1242" height="740" filterUnits="userSpaceOnUse" color-interpolation-filters="sRGB">
<feFlood flood-opacity="0" result="BackgroundImageFix"/>
<feColorMatrix in="SourceAlpha" type="matrix" values="0 0 0 0 0 0 0 0 0 0 0 0 0 0 0 0 0 0 127 0" result="hardAlpha"/>
<feOffset dy="4"/>
<feGaussianBlur stdDeviation="2"/>
<feComposite in2="hardAlpha" operator="out"/>
<feColorMatrix type="matrix" values="0 0 0 0 0 0 0 0 0 0 0 0 0 0 0 0 0 0 0.25 0"/>
<feBlend mode="normal" in2="BackgroundImageFix" result="effect1_dropShadow_212_89"/>
<feBlend mode="normal" in="SourceGraphic" in2="effect1_dropShadow_212_89" result="shape"/>
</filter>
</defs>
</svg>
