<svg width="1024" height="1024" viewBox="0 0 1024 1024" fill="none" xmlns="http://www.w3.org/2000/svg">
<path d="M969.599 351.25C963.866 337.35 957.399 323.734 950.199 310.4C946.133 302.834 941.833 295.367 937.299 288C917.733 256.3 893.883 226.367 865.749 198.2C773.583 106.034 662.316 59.9502 531.949 59.9502C401.616 59.9502 290.366 106.034 198.199 198.2C106.033 290.367 59.9492 401.617 59.9492 531.95C59.9492 662.317 106.033 773.584 198.199 865.75C290.366 957.884 401.616 1003.95 531.949 1003.95C662.316 1003.95 773.583 957.884 865.749 865.75C916.516 814.95 953.299 758.367 976.099 696C994.666 645.167 1003.95 590.484 1003.95 531.95C1003.95 487.05 998.483 444.4 987.549 404C986.316 399.434 985.016 394.9 983.649 390.4C979.549 377.1 974.866 364.05 969.599 351.25Z" fill="black" fill-opacity="0.098039"/>
<path d="M969.7 392C968.533 387.433 967.317 382.9 966.05 378.4C965.034 374.876 963.967 371.36 962.85 367.85C961.202 362.552 959.452 357.285 957.6 352.05C951.1 333.683 943.383 315.8 934.45 298.4C930.583 290.833 926.483 283.367 922.15 276C901.717 241.333 876.267 208.75 845.8 178.25C773.133 105.583 688.583 61.5667 592.15 46.2C575.817 43.6 559.133 41.8167 542.1 40.85C532.167 40.2833 522.133 40 512 40C502.6 40 493.3 40.25 484.1 40.75C365.733 46.8833 263.783 92.7167 178.25 178.25C86.0833 270.417 40 381.667 40 512C40 642.367 86.0833 753.633 178.25 845.8C234.777 902.305 298.477 941.488 369.35 963.35C405.709 974.559 443.959 981.209 484.1 983.3C484.233 983.3 484.367 983.3 484.5 983.3C492.6 983.7 500.767 983.933 509 984C510 984 511 984 512 984C522.167 984 532.2 983.733 542.1 983.2C544.433 983.067 546.75 982.917 549.05 982.75C569.083 981.317 588.65 978.75 607.75 975.05C615.617 973.517 623.417 971.8 631.15 969.9C711.55 949.867 783.1 908.5 845.8 845.8C894.4 797.167 930.183 743.233 953.15 684C971.65 636.267 981.833 585.1 983.7 530.5C983.9 524.367 984 518.2 984 512C984 511.333 984 510.667 984 510C984 509.667 984 509.333 984 509C983.767 468.133 979 429.133 969.7 392Z" fill="white"/>
<path d="M983.35 538.9L681 236.85C563.587 326.497 476.62 428.247 420.1 542.1H444.1V646.15H378C363.126 692.893 352.793 741.443 347 791.8L537.3 983.45C538.899 983.37 540.499 983.286 542.1 983.2C544.433 983.067 546.75 982.917 549.05 982.75C569.083 981.317 588.65 978.75 607.75 975.05C615.617 973.517 623.417 971.8 631.15 969.9C711.55 949.867 783.1 908.5 845.8 845.8C894.4 797.167 930.183 743.233 953.15 684C970.699 638.721 980.765 590.355 983.35 538.9Z" fill="black" fill-opacity="0.2"/>
<path d="M505.101 754.228C510.381 741.74 513.021 728.668 513.021 715.012V614.244H412.254C398.597 614.244 385.525 616.884 373.038 622.165C360.985 627.268 350.312 634.471 341.016 643.774C331.713 653.069 324.51 663.743 319.407 675.795C314.127 688.283 311.486 701.355 311.486 715.012C311.486 728.668 314.127 741.74 319.407 754.228C324.51 766.28 331.713 776.958 341.016 786.261C350.312 795.556 360.985 802.756 373.038 807.859C385.517 813.139 398.589 815.779 412.254 815.779C425.91 815.779 438.983 813.139 451.47 807.859C463.522 802.756 474.2 795.556 483.503 786.261C492.799 776.958 499.998 766.28 505.101 754.228Z" fill="#0ACF83"/>
<path d="M373.038 420.618C360.985 425.721 350.312 432.924 341.016 442.227C331.713 451.523 324.51 462.196 319.407 474.249C314.127 486.736 311.486 499.808 311.486 513.465C311.486 527.121 314.127 540.193 319.407 552.681C324.51 564.733 331.713 575.411 341.016 584.714C350.312 594.018 360.985 601.221 373.038 606.324C385.525 611.604 398.597 614.244 412.254 614.244H513.021V412.697H412.254C398.597 412.697 385.525 415.337 373.038 420.618Z" fill="#A259FF"/>
<path d="M373.038 219.071C360.985 224.174 350.312 231.377 341.016 240.68C331.713 249.983 324.51 260.661 319.407 272.713C314.127 285.201 311.486 298.273 311.486 311.93C311.486 325.586 314.127 338.658 319.407 351.146C324.51 363.198 331.713 373.876 341.016 383.179C350.312 392.474 360.985 399.673 373.038 404.776C385.517 410.057 398.589 412.697 412.254 412.697H513.021V211.15H412.254C398.597 211.15 385.525 213.79 373.038 219.071Z" fill="#F24E1E"/>
<path d="M685.051 240.68C675.747 231.377 665.07 224.174 653.017 219.071C640.53 213.79 627.458 211.15 613.801 211.15H513.021V412.697H613.801C627.458 412.697 640.53 410.057 653.017 404.776C665.07 399.673 675.747 392.474 685.051 383.179C694.346 373.876 701.545 363.198 706.648 351.146C711.928 338.658 714.569 325.586 714.569 311.93C714.569 298.265 711.928 285.193 706.648 272.713C701.545 260.661 694.346 249.983 685.051 240.68Z" fill="#FF7262"/>
<path d="M685.051 442.227C675.747 432.924 665.07 425.721 653.017 420.618C640.53 415.337 627.458 412.697 613.801 412.697C600.145 412.697 587.072 415.337 574.585 420.618C562.533 425.721 551.855 432.924 542.552 442.227C533.248 451.523 526.045 462.196 520.942 474.249C515.662 486.736 513.021 499.808 513.021 513.465C513.021 527.121 515.662 540.193 520.942 552.681C526.045 564.733 533.248 575.411 542.552 584.714C551.855 594.018 562.533 601.221 574.585 606.324C587.072 611.604 600.145 614.244 613.801 614.244C627.458 614.244 640.53 611.604 653.017 606.324C665.07 601.221 675.747 594.018 685.051 584.714C694.346 575.411 701.545 564.733 706.648 552.681C711.928 540.193 714.569 527.121 714.569 513.465C714.569 499.8 711.928 486.728 706.648 474.249C701.545 462.196 694.346 451.523 685.051 442.227Z" fill="#1ABCFE"/>
</svg>
