<svg width="1053" height="1053" viewBox="0 0 1053 1053" fill="none" xmlns="http://www.w3.org/2000/svg">
<rect width="1053" height="1053" fill="white"/>
<path d="M612.312 446.434V500.565C612.312 504.308 609.268 507.351 605.525 507.351H585.24C583.765 507.351 582.324 507.829 581.146 508.718L564.947 520.864V514.178C564.947 510.408 561.891 507.351 558.12 507.351H541.228C537.485 507.351 534.441 504.308 534.441 500.565V446.434C534.441 442.69 537.485 439.647 541.228 439.647H605.525C609.268 439.647 612.312 442.69 612.312 446.434Z" fill="#E33131"/>
<path d="M625.958 446.434V500.565C625.958 511.835 616.794 520.998 605.524 520.998H587.514L562.212 539.971C561.014 540.88 559.573 541.338 558.119 541.338C557.082 541.338 556.039 541.102 555.069 540.617C552.76 539.459 551.299 537.103 551.299 534.517V520.998H541.227C529.956 520.998 520.793 511.835 520.793 500.565V446.434C520.793 435.17 529.956 426 541.227 426H605.524C616.794 426 625.958 435.17 625.958 446.434ZM612.31 500.565V446.434C612.31 442.69 609.267 439.647 605.524 439.647H541.227C537.483 439.647 534.44 442.69 534.44 446.434V500.565C534.44 504.308 537.483 507.351 541.227 507.351H558.119C561.889 507.351 564.946 510.408 564.946 514.178V520.864L581.145 508.718C582.323 507.829 583.764 507.351 585.238 507.351H605.524C609.267 507.351 612.31 504.308 612.31 500.565Z" fill="black"/>
<path d="M589.879 590.628C592.545 593.294 592.545 597.61 589.879 600.276L573.808 616.347C567.351 622.803 558.376 625.88 547.914 625.88C524.807 625.88 494.423 610.88 467.755 584.211C449.852 566.309 436.468 545.876 430.072 526.681C423.137 505.897 425.11 488.661 435.613 478.151L451.684 462.087C454.35 459.421 458.672 459.421 461.332 462.087L501.505 502.254C504.172 504.921 504.172 509.236 501.505 511.902L484.775 528.546C483.011 532.06 486.047 543.371 497.318 554.642C508.588 565.912 519.906 568.955 523.414 567.185L540.057 550.454C542.723 547.794 547.045 547.794 549.705 550.454L589.879 590.628Z" fill="black"/>
<path fill-rule="evenodd" clip-rule="evenodd" d="M527.04 207.668C502.848 171.646 463.205 149.249 422.817 149.249C353.55 149.249 299.305 204.228 299.305 274.475C299.305 281.204 300.719 290.628 303.358 302.389C296.977 301.07 285.075 298.808 275.246 298.808C205.036 298.808 150 352.78 150 421.754C150 462.334 172.646 502.019 209.042 526.267C172.288 550.864 150.274 589.125 150.274 629.404C150.274 697.539 206.497 752.934 275.566 752.934C284.048 752.934 294.263 750.974 303.178 749.004C300.681 760.275 299.315 769.775 299.315 776.645C299.315 846.854 353.578 901.862 422.836 901.862C463.859 901.862 502.148 880.469 526.151 844.63C549.24 878.933 590.734 901.862 630.495 901.862C699.497 901.862 753.478 846.882 753.478 776.645C753.478 767.522 751.499 756.515 749.897 749.004C761.677 751.52 771.063 752.934 777.792 752.934C846.851 752.934 903 697.521 903 629.404C903 588.786 881.136 549.299 845.834 525.513C881.127 501.745 903 462.391 903 421.688C903 353.929 846.578 298.733 777.189 298.733C768.519 298.733 758.03 300.938 749.822 302.719C751.179 296.311 753.469 284.191 753.469 274.485C753.469 204.238 699.488 149.239 630.485 149.239C590.308 149.239 551.148 171.632 527.04 207.668ZM364.52 333.083L364.557 333.112C364.557 333.112 372.803 341.197 374.547 342.866C374.654 342.83 374.765 342.793 374.878 342.755C378.327 341.606 384.533 339.538 391.868 339.52C405.74 339.473 417.944 344.392 427.321 353.703C436.802 363.25 442.673 377.188 442.626 390.155C442.626 403.5 436.934 417.146 427.359 426.702C417.926 436.022 405.835 440.979 392.264 440.885C364.133 440.762 341.233 418.079 341.233 390.278C341.233 382.475 342.872 376.82 344.531 372.466C342.053 370.129 334.702 362.779 334.702 362.779C323.308 351.281 303.518 337.56 274.087 337.588C251.987 337.607 231.32 346.183 215.846 361.676C200.117 377.414 191.174 399.089 191.193 421.236C191.249 449.979 204.254 469.006 215.158 479.872C231.075 495.695 252.788 504.657 274.869 504.62L274.454 546.086C251.884 546.152 230.84 555.199 215.083 571.031C199.241 586.901 190.552 607.973 190.599 630.308C190.665 652.266 199.759 673.96 215.638 689.755H215.648C231.235 705.277 252.044 713.852 274.303 713.758C307.523 713.758 328.68 694.175 334.316 688.125L344.145 678.06C342.92 674.79 340.752 668.353 340.752 660.795V660.701C340.752 646.913 345.69 634.728 354.964 625.398C364.482 615.88 378.486 610.037 391.397 610.037C404.798 610.075 418.463 615.823 427.981 625.379C437.264 634.794 442.117 646.838 442.117 660.362C441.985 688.558 419.358 711.44 391.51 711.44C383.716 711.402 378.119 709.762 373.727 708.141C371.352 710.592 364.039 717.942 364.001 717.942C352.532 729.374 338.82 749.117 338.82 778.426V778.577C338.867 824.359 376.432 861.584 422.487 861.489C451.202 861.471 470.21 848.475 481.104 837.571C496.965 821.645 506.191 799.903 506.172 777.823L547.346 777.37C547.365 799.922 556.676 821.032 572.508 836.77L572.518 836.742C588.378 852.565 609.479 861.292 631.757 861.197C671.951 861.141 715.33 829.137 715.33 777.587V777.474C715.254 744.217 695.699 723.144 689.668 717.471L679.641 707.698C676.352 708.876 670 711.016 662.367 711.016C648.504 711.072 636.29 706.172 626.989 696.861C617.499 687.342 611.562 673.367 611.562 660.437C611.637 647.064 617.414 633.343 626.97 623.824C636.328 614.561 648.372 609.651 661.914 609.707C690.083 609.792 712.964 632.476 712.964 660.239V660.296C712.964 668.108 711.315 673.706 709.732 678.069C712.097 680.482 719.467 687.823 719.504 687.851C730.86 699.368 750.613 713.051 780.054 713.014C825.883 712.957 863.099 675.393 863.061 629.347C862.985 577.722 819.541 546.048 779.3 546.086L778.471 504.601C801.032 504.563 822.123 495.639 837.88 479.844C853.656 463.974 862.354 442.902 862.326 420.567C862.269 380.345 830.237 336.975 778.612 337.07C745.392 337.136 724.348 356.672 718.656 362.703C718.656 362.703 710.552 371.025 708.855 372.749C710.015 376.076 712.154 382.494 712.154 390.052V390.146C712.154 403.971 707.31 416.156 698.018 425.392C688.499 434.891 674.637 440.828 661.679 440.828H661.566C648.193 440.781 634.556 435.042 625.038 425.467C615.708 416.081 610.836 404.018 610.902 390.448C611.005 362.307 633.689 339.388 661.452 339.407C669.246 339.426 674.901 341.066 679.236 342.668C680.067 341.83 681.51 340.384 683.035 338.855C685.866 336.018 688.98 332.897 688.98 332.867C700.496 321.501 714.142 301.786 714.142 272.402V272.27C714.095 250.161 705.557 229.457 690.064 213.973C674.392 198.282 652.622 189.301 630.476 189.329C601.789 189.357 582.705 202.391 571.839 213.294C556.007 229.202 547.289 250.972 547.365 273.024H547.327L506.172 273.231C506.144 250.68 497.493 229.57 481.642 213.794C465.753 197.99 444.756 189.32 422.402 189.348C382.227 189.433 338.933 221.399 338.933 272.883V273.052C338.98 306.319 358.507 327.41 364.52 333.083Z" fill="#E33131"/>
<circle cx="526.5" cy="766.5" r="53.5" fill="#E33131"/>
<circle cx="287.5" cy="521.5" r="53.5" fill="#E33131"/>
<circle cx="767.5" cy="530.5" r="53.5" fill="#E33131"/>
<circle cx="526.5" cy="281.5" r="53.5" fill="#E33131"/>
<path d="M542.28 471.04C542.28 469.2 542.733 467.533 543.64 466.04C544.547 464.547 545.787 463.36 547.36 462.48C548.933 461.6 550.693 461.16 552.64 461.16C554.8 461.16 556.653 461.68 558.2 462.72C559.773 463.76 560.987 465.253 561.84 467.2C562.693 469.12 563.12 471.453 563.12 474.2C563.12 477.64 562.667 480.547 561.76 482.92C560.88 485.293 559.613 487.093 557.96 488.32C556.307 489.547 554.36 490.16 552.12 490.16C550.333 490.16 548.68 489.773 547.16 489C545.64 488.227 544.36 487.12 543.32 485.68L546.4 482.32C547.04 483.307 547.867 484.08 548.88 484.64C549.92 485.227 551.027 485.52 552.2 485.52C553.4 485.52 554.427 485.2 555.28 484.56C556.16 483.92 556.84 483 557.32 481.8C557.827 480.573 558.093 479.107 558.12 477.4C557.773 478.013 557.293 478.56 556.68 479.04C556.093 479.52 555.413 479.893 554.64 480.16C553.893 480.4 553.067 480.52 552.16 480.52C550.32 480.52 548.64 480.107 547.12 479.28C545.627 478.427 544.44 477.293 543.56 475.88C542.707 474.44 542.28 472.827 542.28 471.04ZM552.64 465.68C551.707 465.68 550.84 465.933 550.04 466.44C549.24 466.92 548.6 467.56 548.12 468.36C547.64 469.16 547.4 470.053 547.4 471.04C547.4 472 547.627 472.88 548.08 473.68C548.56 474.453 549.2 475.08 550 475.56C550.8 476.013 551.68 476.24 552.64 476.24C553.6 476.24 554.467 476.013 555.24 475.56C556.04 475.08 556.68 474.453 557.16 473.68C557.64 472.88 557.88 472 557.88 471.04C557.88 470.08 557.64 469.2 557.16 468.4C556.68 467.573 556.04 466.92 555.24 466.44C554.44 465.933 553.573 465.68 552.64 465.68ZM583.355 479.16V484H567.115V479.16H572.795V467.04C572.555 467.36 572.181 467.693 571.675 468.04C571.168 468.36 570.595 468.667 569.955 468.96C569.315 469.253 568.675 469.493 568.035 469.68C567.395 469.867 566.821 469.96 566.315 469.96V464.96C566.795 464.96 567.368 464.813 568.035 464.52C568.728 464.2 569.408 463.827 570.075 463.4C570.768 462.973 571.355 462.56 571.835 462.16C572.341 461.733 572.661 461.4 572.795 461.16H578.275V479.16H583.355ZM603.12 479.16V484H586.88V479.16H592.56V467.04C592.32 467.36 591.947 467.693 591.44 468.04C590.934 468.36 590.36 468.667 589.72 468.96C589.08 469.253 588.44 469.493 587.8 469.68C587.16 469.867 586.587 469.96 586.08 469.96V464.96C586.56 464.96 587.134 464.813 587.8 464.52C588.494 464.2 589.174 463.827 589.84 463.4C590.534 462.973 591.12 462.56 591.6 462.16C592.107 461.733 592.427 461.4 592.56 461.16H598.04V479.16H603.12Z" fill="white"/>
</svg>
