<svg height="1024" preserveAspectRatio="none" viewBox="0 0 1024 1024" width="1024" xmlns="http://www.w3.org/2000/svg"><path d="m969.6 351.25q-8.6-20.85-19.4-40.85-6.1-11.35-12.9-22.4-29.35-47.55-71.55-89.8-138.25-138.25-333.8-138.25-195.5 0-333.75 138.25-138.25 138.25-138.25 333.75 0 195.55 138.25 333.8 138.25 138.2 333.75 138.2 195.55 0 333.8-138.2 76.15-76.2 110.35-169.75 27.85-76.25 27.85-164.05 0-67.35-16.4-127.95-1.85-6.85-3.9-13.6-6.15-19.95-14.05-39.15z" fill-opacity=".098039"/><path d="m962.85 367.85q-2.47128906-7.946875-5.25-15.8-9.75-27.55-23.15-53.65-5.8-11.35-12.3-22.4-30.65-52-76.35-97.75-109-109-253.65-132.05-24.5-3.9-50.05-5.35-14.9-.85-30.1-.85-14.1 0-27.9.75-177.55 9.2-305.85 137.5-138.25 138.25-138.25 333.75 0 195.55 138.25 333.8 84.79003906 84.75703125 191.1 117.55 54.53808594 16.81308594 114.75 19.95.2 0 .4 0 12.15.6 24.5.7 1.5 0 3 0 15.25 0 30.1-.8 3.5-.2 6.95-.45 30.05-2.15 58.7-7.7 11.8-2.3 23.4-5.15 120.6-30.05 214.65-124.1 72.9-72.95 107.35-161.8 27.75-71.6 30.55-153.5.3-9.2.3-18.5 0-1 0-2 0-.5 0-1-.35-61.3-14.3-117-1.75-6.85-3.65-13.6-1.52421875-5.28554687-3.2-10.55z" fill="#fff"/><path d="m982.8 547.95-245.25-245.25-232.95 74.25 32.85 32.85-160.05 99.75 30.35 30.35-171.65 90 348.95 348.95q11.47148438-1.62480469 22.7-3.8 11.8-2.3 23.4-5.15 120.6-30.05 214.65-124.1 72.9-72.95 107.35-161.8 24.77167969-63.91523437 29.65-136.05z" fill-opacity=".098039"/><path d="m594.4 412.05q-4.2-1.8-8.8-1.8h-261.4q.05 24 9.3 45.9 8.95 21.15 25.3 37.45 16.3 16.35 37.45 25.3 21.9 9.25 45.85 9.3h48.2v46.6q0 24 9.3 45.9 8.95 21.15 25.3 37.45 16.3 16.3 37.5 25.25 21.85 9.25 45.85 9.25v-259.7q0-4.6-1.8-8.85-1.7-4.05-4.85-7.2-3.1-3.15-7.2-4.85m-399.6 128.35q0 24 9.3 45.95 8.95 21.15 25.3 37.5 16.3 16.35 37.5 25.3 21.9 9.25 45.9 9.25h48.3v46.5q0 23.95 9.25 45.85 8.95 21.15 25.25 37.45 16.3 16.3 37.45 25.3 21.85 9.25 45.8 9.3v-259.7q0-4.6-1.8-8.8-1.7-4.1-4.85-7.25-3.1-3.15-7.2-4.85-4.2-1.8-8.8-1.8zm541-246.5q-1.7-4.1-4.85-7.25-3.15-3.1-7.2-4.85-4.2-1.75-8.85-1.75h-261.35q0 24 9.25 45.9 8.95 21.2 25.3 37.5 16.35 16.35 37.5 25.3 21.9 9.25 45.95 9.25h48.15v46.5q0 24 9.25 45.9 9 21.15 25.3 37.45 16.3 16.35 37.45 25.3 21.9 9.25 45.9 9.3v-259.75q0-4.6-1.8-8.8z" fill="#2e87fb"/></svg>