<svg width="300" height="300" viewBox="0 0 300 300" fill="none" xmlns="http://www.w3.org/2000/svg">
<rect width="300" height="300" fill="#FDAB13"/>
<path fill-rule="evenodd" clip-rule="evenodd" d="M94 223.362L137.26 249V201.387L225 149.5V98.2239L137.26 50L94 75.0276V174.528V223.362ZM181.13 123.862L137.26 149.5V99.75L181.13 123.862Z" fill="white"/>
<path d="M137.26 50L94 75.0276V174.528M137.26 50L225 98.2239M137.26 50V99.75M225 98.2239V149.5L137.26 201.387M225 98.2239L181.13 123.862M137.26 201.387V249L94 223.362V174.528M137.26 201.387L94 174.528M137.26 201.387V149.5M94 174.528L137.26 149.5M137.26 149.5L181.13 123.862M137.26 149.5V99.75M181.13 123.862L137.26 99.75" stroke="#FDAB13" stroke-width="10" stroke-linejoin="round"/>
</svg>
